<?xml version="1.0" encoding="utf-8"?>
<!-- Generated by IcoMoon.io -->
<!DOCTYPE svg PUBLIC "-//W3C//DTD SVG 1.1//EN" "http://www.w3.org/Graphics/SVG/1.1/DTD/svg11.dtd">
<svg version="1.1" xmlns="http://www.w3.org/2000/svg" xmlns:xlink="http://www.w3.org/1999/xlink" width="64" height="64" viewBox="0 0 64 64">
<path d="M52.429 13.571q1 1 1.714 2.714t0.714 3.143v41.143q0 1.429-1 2.429t-2.429 1h-48q-1.429 0-2.429-1t-1-2.429v-57.143q0-1.429 1-2.429t2.429-1h32q1.429 0 3.143 0.714t2.714 1.714zM36.571 4.857v13.429h13.429q-0.357-1.036-0.786-1.464l-11.179-11.179q-0.429-0.429-1.464-0.786zM50.286 59.429v-36.571h-14.857q-1.429 0-2.429-1t-1-2.429v-14.857h-27.429v54.857h45.714zM15.321 51.071v3.786h10.036v-3.786h-2.679l3.679-5.75q0.179-0.25 0.357-0.589t0.268-0.482 0.125-0.143h0.071q0.036 0.143 0.179 0.357 0.071 0.143 0.161 0.268t0.214 0.286 0.232 0.304l3.821 5.75h-2.714v3.786h10.393v-3.786h-2.429l-6.857-9.75 6.964-10.071h2.393v-3.821h-9.964v3.821h2.643l-3.679 5.679q-0.143 0.25-0.357 0.589t-0.321 0.482l-0.071 0.107h-0.071q-0.036-0.143-0.179-0.357-0.214-0.393-0.607-0.821l-3.786-5.679h2.714v-3.821h-10.357v3.821h2.429l6.75 9.714-6.929 10.107h-2.429z"></path>
</svg>
