<?xml version="1.0" encoding="utf-8"?>
<!-- Generated by IcoMoon.io -->
<!DOCTYPE svg PUBLIC "-//W3C//DTD SVG 1.1//EN" "http://www.w3.org/Graphics/SVG/1.1/DTD/svg11.dtd">
<svg version="1.1" xmlns="http://www.w3.org/2000/svg" xmlns:xlink="http://www.w3.org/1999/xlink" width="64" height="64" viewBox="0 0 64 64">
<path d="M52.429 13.571q1 1 1.714 2.714t0.714 3.143v41.143q0 1.429-1 2.429t-2.429 1h-48q-1.429 0-2.429-1t-1-2.429v-57.143q0-1.429 1-2.429t2.429-1h32q1.429 0 3.143 0.714t2.714 1.714zM36.571 4.857v13.429h13.429q-0.357-1.036-0.786-1.464l-11.179-11.179q-0.429-0.429-1.464-0.786zM50.286 59.429v-36.571h-14.857q-1.429 0-2.429-1t-1-2.429v-14.857h-27.429v54.857h45.714zM45.714 43.429v11.429h-36.571v-6.857l6.857-6.857 4.571 4.571 13.714-13.714zM16 36.571q-2.857 0-4.857-2t-2-4.857 2-4.857 4.857-2 4.857 2 2 4.857-2 4.857-4.857 2z"></path>
</svg>
