<?xml version="1.0" encoding="utf-8"?>
<!-- Generated by IcoMoon.io -->
<!DOCTYPE svg PUBLIC "-//W3C//DTD SVG 1.1//EN" "http://www.w3.org/Graphics/SVG/1.1/DTD/svg11.dtd">
<svg version="1.1" xmlns="http://www.w3.org/2000/svg" xmlns:xlink="http://www.w3.org/1999/xlink" width="64" height="64" viewBox="0 0 64 64">
<path d="M52.429 13.571q1 1 1.714 2.714t0.714 3.143v41.143q0 1.429-1 2.429t-2.429 1h-48q-1.429 0-2.429-1t-1-2.429v-57.143q0-1.429 1-2.429t2.429-1h32q1.429 0 3.143 0.714t2.714 1.714zM36.571 4.857v13.429h13.429q-0.357-1.036-0.786-1.464l-11.179-11.179q-0.429-0.429-1.464-0.786zM50.286 59.429v-36.571h-14.857q-1.429 0-2.429-1t-1-2.429v-14.857h-27.429v54.857h45.714zM17.143 27.429q0.286-0.393 0.75-0.446t0.857 0.232l1.821 1.357q0.393 0.286 0.446 0.75t-0.232 0.857l-6.5 8.679 6.5 8.679q0.286 0.393 0.232 0.857t-0.446 0.75l-1.821 1.357q-0.393 0.286-0.857 0.232t-0.75-0.446l-8.071-10.75q-0.5-0.679 0-1.357zM45.786 38.179q0.5 0.679 0 1.357l-8.071 10.75q-0.286 0.393-0.75 0.446t-0.857-0.232l-1.821-1.357q-0.393-0.286-0.446-0.75t0.232-0.857l6.5-8.679-6.5-8.679q-0.286-0.393-0.232-0.857t0.446-0.75l1.821-1.357q0.393-0.286 0.857-0.232t0.75 0.446zM23.643 54.643q-0.464-0.071-0.732-0.464t-0.196-0.857l4.929-29.679q0.071-0.464 0.464-0.732t0.857-0.196l2.25 0.357q0.464 0.071 0.732 0.464t0.196 0.857l-4.929 29.679q-0.071 0.464-0.464 0.732t-0.857 0.196z"></path>
</svg>
