<?xml version="1.0" encoding="utf-8"?>
<!-- Generated by IcoMoon.io -->
<!DOCTYPE svg PUBLIC "-//W3C//DTD SVG 1.1//EN" "http://www.w3.org/Graphics/SVG/1.1/DTD/svg11.dtd">
<svg version="1.1" xmlns="http://www.w3.org/2000/svg" xmlns:xlink="http://www.w3.org/1999/xlink" width="64" height="64" viewBox="0 0 64 64">
<path d="M52.429 13.571q1 1 1.714 2.714t0.714 3.143v41.143q0 1.429-1 2.429t-2.429 1h-48q-1.429 0-2.429-1t-1-2.429v-57.143q0-1.429 1-2.429t2.429-1h32q1.429 0 3.143 0.714t2.714 1.714zM36.571 4.857v13.429h13.429q-0.357-1.036-0.786-1.464l-11.179-11.179q-0.429-0.429-1.464-0.786zM50.286 59.429v-36.571h-14.857q-1.429 0-2.429-1t-1-2.429v-14.857h-27.429v54.857h45.714zM8.321 27.429v3.821h2.5l5.857 23.607h5.679l4.571-17.321q0.25-0.714 0.357-1.643 0.071-0.571 0.071-0.857h0.143l0.107 0.857q0.036 0.107 0.125 0.714t0.196 0.929l4.571 17.321h5.679l5.857-23.607h2.5v-3.821h-10.714v3.821h3.214l-3.536 15.643q-0.179 0.714-0.25 1.643l-0.071 0.75h-0.143q0-0.107-0.018-0.232t-0.054-0.286-0.036-0.232q-0.036-0.179-0.143-0.75t-0.179-0.893l-5.143-19.464h-4.071l-5.143 19.464q-0.071 0.321-0.161 0.875t-0.125 0.768l-0.143 0.75h-0.143l-0.071-0.75q-0.071-0.929-0.25-1.643l-3.536-15.643h3.214v-3.821h-10.714z"></path>
</svg>
