<?xml version="1.0" encoding="utf-8"?>
<!-- Generated by IcoMoon.io -->
<!DOCTYPE svg PUBLIC "-//W3C//DTD SVG 1.1//EN" "http://www.w3.org/Graphics/SVG/1.1/DTD/svg11.dtd">
<svg version="1.1" xmlns="http://www.w3.org/2000/svg" xmlns:xlink="http://www.w3.org/1999/xlink" width="82" height="64" viewBox="0 0 82 64">
<path d="M39.964 12.179q-4.571-3.036-10.036-3.036-3.679 0-7.054 1.446t-5.804 3.875-3.875 5.786-1.446 7.036q0 3.714 1.446 7.071t3.875 5.786 5.786 3.875 7.071 1.446q5.464 0 10.036-3.036-4.679-3.821-6.357-9.482t0.018-11.304 6.339-9.464zM41.143 13.036q-4.5 3.536-6.143 8.911t-0.018 10.732 6.161 8.893q4.536-3.536 6.161-8.893t-0.018-10.732-6.143-8.911zM42.321 12.179q4.643 3.821 6.339 9.482t0.018 11.321-6.357 9.446q4.571 3.036 10.036 3.036 3.714 0 7.071-1.446t5.786-3.875 3.875-5.786 1.446-7.071q0-3.679-1.446-7.036t-3.875-5.786-5.804-3.875-7.054-1.446q-5.464 0-10.036 3.036zM68.786 37.964h0.25v-0.107h-0.607v0.107h0.25v0.607h0.107v-0.607zM69.821 38.571h0.143v-0.714h-0.179l-0.214 0.464-0.214-0.464h-0.179v0.714h0.107v-0.536l0.214 0.464h0.143l0.179-0.464v0.536zM69.536 54.286v0.071h-0.179v-0.107h0.179v0.036zM69.536 54.607h0.107l-0.143-0.179h0.071l0.036-0.036q0.036-0.036 0.036-0.107t-0.036-0.107l-0.036-0.036h-0.321v0.464h0.107v-0.179h0.036zM24.464 52.179q0-0.679 0.393-1.107t1.071-0.429q0.643 0 1.036 0.446t0.393 1.089q0 0.679-0.393 1.107t-1.036 0.429q-0.679 0-1.071-0.429t-0.393-1.107zM41.357 50.607q1.071 0 1.25 1.143h-2.5q0.179-1.143 1.25-1.143zM54.071 52.179q0-0.679 0.393-1.107t1.036-0.429 1.054 0.446 0.411 1.089q0 0.679-0.393 1.107t-1.071 0.429q-0.643 0-1.036-0.429t-0.393-1.107zM63.786 52.179q0-0.643 0.411-1.089t1.054-0.446 1.054 0.446 0.411 1.089q0 0.679-0.411 1.107t-1.054 0.429-1.054-0.446-0.411-1.089zM69.429 54.75q-0.071 0-0.143-0.036-0.036 0-0.107-0.071t-0.071-0.107q-0.036-0.071-0.036-0.143 0-0.107 0.036-0.143 0-0.071 0.071-0.143l0.036-0.036q0.071 0 0.071-0.036 0.071-0.036 0.143-0.036 0.107 0 0.143 0.036l0.143 0.071 0.071 0.143v0.036q0.036 0.071 0.036 0.107l-0.036 0.036v0.107t-0.036 0.036l-0.036 0.071q-0.071 0.071-0.143 0.071-0.036 0.036-0.143 0.036zM21.393 54.607h1.071v-3.036q0-0.857-0.518-1.375t-1.411-0.554q-1.143 0-1.679 0.857-0.5-0.857-1.607-0.857-0.857 0-1.393 0.714v-0.571h-1.071v4.821h1.071v-2.679q0-1.286 1.179-1.286 1.071 0 1.071 1.286v2.679h1.036v-2.679q0-1.286 1.179-1.286 1.071 0 1.071 1.286v2.679zM27.321 54.607h1.036v-4.821h-1.036v0.571q-0.607-0.714-1.536-0.714-1.036 0-1.714 0.714t-0.679 1.821 0.679 1.821 1.714 0.714q1 0 1.536-0.714v0.607zM33.679 53.143q0-1.214-1.679-1.429l-0.5-0.071q-0.821-0.143-0.821-0.5 0-0.536 0.893-0.536 0.821 0 1.536 0.393l0.429-0.857q-0.786-0.5-1.964-0.5-0.929 0-1.464 0.429t-0.536 1.143q0 1.179 1.679 1.393l0.464 0.071q0.857 0.143 0.857 0.5 0 0.607-1.107 0.607-0.893 0-1.607-0.5l-0.464 0.821q0.893 0.607 2.071 0.607 1.036 0 1.625-0.429t0.589-1.143zM38.321 54.357l-0.286-0.893q-0.464 0.25-0.929 0.25-0.679 0-0.679-0.786v-2.179h1.714v-0.964h-1.714v-1.464h-1.071v1.464h-1v0.964h1v2.179q0 1.786 1.679 1.786 0.75 0 1.286-0.357zM41.393 49.643q-1.036 0-1.714 0.714t-0.679 1.821q0 1.143 0.696 1.839t1.768 0.696q1.179 0 1.964-0.679l-0.5-0.786q-0.643 0.536-1.393 0.536-1.214 0-1.464-1.179h3.607v-0.429q0-1.143-0.643-1.839t-1.643-0.696zM47.071 49.643q-0.821 0-1.25 0.714v-0.571h-1.071v4.821h1.071v-2.714q0-1.25 1.036-1.25 0.357 0 0.643 0.143l0.321-1q-0.321-0.143-0.75-0.143zM48.143 52.179q0 1.107 0.696 1.821t1.875 0.714q1.036 0 1.714-0.571l-0.5-0.857q-0.643 0.464-1.25 0.429-0.643 0-1.054-0.429t-0.411-1.107 0.411-1.107 1.054-0.429q0.679 0 1.25 0.429l0.5-0.857q-0.714-0.571-1.714-0.571-1.179 0-1.875 0.714t-0.696 1.821zM56.893 54.607h1.071v-4.821h-1.071v0.571q-0.536-0.714-1.5-0.714-1.036 0-1.732 0.714t-0.696 1.821 0.696 1.821 1.732 0.714q1 0 1.5-0.714v0.607zM61.643 49.643q-0.821 0-1.25 0.714v-0.571h-1.036v4.821h1.036v-2.714q0-1.25 1.036-1.25 0.357 0 0.643 0.143l0.321-1q-0.286-0.143-0.75-0.143zM66.643 54.607h1.036v-6.786h-1.036v2.536q-0.536-0.714-1.536-0.714t-1.696 0.732-0.696 1.804 0.696 1.804 1.696 0.732q1.036 0 1.536-0.714v0.607zM69.429 53.893l-0.071 0.036h-0.107q-0.071 0.036-0.143 0.107-0.107 0.036-0.107 0.143-0.036 0.071-0.036 0.214 0 0.107 0.036 0.179 0 0.071 0.107 0.143 0.071 0.071 0.143 0.107t0.179 0.036q0.143 0 0.214-0.036 0-0.036 0.071-0.071l0.071-0.036q0.036-0.036 0.107-0.143 0.036-0.071 0.036-0.179 0-0.143-0.036-0.214-0.036-0.036-0.107-0.143 0-0.036-0.071-0.071l-0.071-0.036q-0.036 0-0.107-0.018t-0.107-0.018zM82.286 9.143v45.714q0 1.857-1.357 3.214t-3.214 1.357h-73.143q-1.857 0-3.214-1.357t-1.357-3.214v-45.714q0-1.857 1.357-3.214t3.214-1.357h73.143q1.857 0 3.214 1.357t1.357 3.214z"></path>
</svg>
