<?xml version="1.0" encoding="utf-8"?>
<!-- Generated by IcoMoon.io -->
<!DOCTYPE svg PUBLIC "-//W3C//DTD SVG 1.1//EN" "http://www.w3.org/Graphics/SVG/1.1/DTD/svg11.dtd">
<svg version="1.1" xmlns="http://www.w3.org/2000/svg" xmlns:xlink="http://www.w3.org/1999/xlink" width="64" height="64" viewBox="0 0 64 64">
<path d="M51.821 4.571q1.25 0 2.143 0.893t0.893 2.143v48.786q0 1.25-0.893 2.143t-2.143 0.893h-13.964v-21.25h7.107l1.071-8.286h-8.179v-5.286q0-2 0.839-3t3.268-1l4.357-0.036v-7.393q-2.25-0.321-6.357-0.321-4.857 0-7.768 2.857t-2.911 8.071v6.107h-7.143v8.286h7.143v21.25h-26.25q-1.25 0-2.143-0.893t-0.893-2.143v-48.786q0-1.25 0.893-2.143t2.143-0.893h48.786z"></path>
</svg>
