<?xml version="1.0" encoding="utf-8"?>
<!-- Generated by IcoMoon.io -->
<!DOCTYPE svg PUBLIC "-//W3C//DTD SVG 1.1//EN" "http://www.w3.org/Graphics/SVG/1.1/DTD/svg11.dtd">
<svg version="1.1" xmlns="http://www.w3.org/2000/svg" xmlns:xlink="http://www.w3.org/1999/xlink" width="64" height="64" viewBox="0 0 64 64">
<path d="M35.179 34.786q0.464 0 3.482 1.571t3.196 1.893q0.071 0.179 0.071 0.536 0 1.179-0.607 2.714-0.571 1.393-2.536 2.339t-3.643 0.946q-2.036 0-6.786-2.214-3.5-1.607-6.071-4.214t-5.286-6.607q-2.571-3.821-2.536-6.929v-0.286q0.107-3.25 2.643-5.643 0.857-0.786 1.857-0.786 0.214 0 0.643 0.054t0.679 0.054q0.679 0 0.946 0.232t0.554 0.982q0.286 0.714 1.179 3.143t0.893 2.679q0 0.75-1.232 2.054t-1.232 1.661q0 0.25 0.179 0.536 1.214 2.607 3.643 4.893 2 1.893 5.393 3.607 0.429 0.25 0.786 0.25 0.536 0 1.929-1.732t1.857-1.732zM27.929 53.714q4.536 0 8.696-1.786t7.161-4.786 4.786-7.161 1.786-8.696-1.786-8.696-4.786-7.161-7.161-4.786-8.696-1.786-8.696 1.786-7.161 4.786-4.786 7.161-1.786 8.696q0 7.25 4.286 13.143l-2.821 8.321 8.643-2.75q5.643 3.714 12.321 3.714zM27.929 4.357q5.464 0 10.446 2.143t8.589 5.75 5.75 8.589 2.143 10.446-2.143 10.446-5.75 8.589-8.589 5.75-10.446 2.143q-6.964 0-13.036-3.357l-14.893 4.786 4.857-14.464q-3.857-6.357-3.857-13.893 0-5.464 2.143-10.446t5.75-8.589 8.589-5.75 10.446-2.143z"></path>
</svg>
