<?xml version="1.0" encoding="utf-8"?>
<!-- Generated by IcoMoon.io -->
<!DOCTYPE svg PUBLIC "-//W3C//DTD SVG 1.1//EN" "http://www.w3.org/Graphics/SVG/1.1/DTD/svg11.dtd">
<svg version="1.1" xmlns="http://www.w3.org/2000/svg" xmlns:xlink="http://www.w3.org/1999/xlink" width="64" height="64" viewBox="0 0 64 64">
<path d="M18.286 0q0.464 0 0.804 0.339t0.339 0.804v52.571q0 0.714-0.607 1l-17.143 9.143q-0.25 0.143-0.536 0.143-0.464 0-0.804-0.339t-0.339-0.804v-52.571q0-0.714 0.607-1l17.143-9.143q0.25-0.143 0.536-0.143zM62.857 0q0.464 0 0.804 0.339t0.339 0.804v52.571q0 0.714-0.607 1l-17.143 9.143q-0.25 0.143-0.536 0.143-0.464 0-0.804-0.339t-0.339-0.804v-52.571q0-0.714 0.607-1l17.143-9.143q0.25-0.143 0.536-0.143zM22.857 0q0.286 0 0.5 0.107l18.286 9.143q0.643 0.357 0.643 1.036v52.571q0 0.464-0.339 0.804t-0.804 0.339q-0.286 0-0.5-0.107l-18.286-9.143q-0.643-0.357-0.643-1.036v-52.571q0-0.464 0.339-0.804t0.804-0.339z"></path>
</svg>
