<svg xmlns="http://www.w3.org/2000/svg" viewBox="0 0 131 38.77" width="131" height="39">
  <defs>
    <style>
      .a {
        fill: #ee3524;
      }
    </style>
  </defs>
  <title>alfabank</title>
  <path class="a" d="M12.45,0c2.64,0,3.47,1.89,4.16,3.78L24,23.92a0.4,0.4,0,0,1-.22.51l-4,1.55a0.39,0.39,0,0,1-.49-0.23L17.53,21H7.37L5.64,25.75a0.38,0.38,0,0,1-.49.23l-4-1.55a0.4,0.4,0,0,1-.23-0.51c0.25-.7,7-19.18,7.35-20.14C8.95,1.92,9.81,0,12.45,0ZM0.38,33.59A0.39,0.39,0,0,0,0,34v4.39a0.39,0.39,0,0,0,.38.39H24.51a0.39,0.39,0,0,0,.38-0.39V34a0.39,0.39,0,0,0-.38-0.39H0.38m12-27.46L9,16.45h6.93L12.47,6.13h0Zm89.74,15.14a1.74,1.74,0,0,1-1.84,1.94A4.85,4.85,0,0,1,98.86,23V19.5a7.43,7.43,0,0,1,1.47-.11A1.66,1.66,0,0,1,102.17,21.27Zm2.44-.17c0-2.16-1.27-3.66-3.93-3.66a7.05,7.05,0,0,0-1.82.23V14.55a15.74,15.74,0,0,1,2-.12,23.13,23.13,0,0,1,2.65.15l0.06-1.81a18.1,18.1,0,0,0-3.54-.36,17.33,17.33,0,0,0-3.62.49V24.43a10.8,10.8,0,0,0,3.77.68C103.1,25.11,104.61,23.57,104.61,21.09ZM76.9,20.47c0,1.61-.64,2.64-1.69,2.64A3.12,3.12,0,0,1,74,22.92V18.1a2.46,2.46,0,0,1,1.29-.26c1.05,0,1.58.87,1.58,2.63m-8,.05c0-1.75.53-2.68,1.58-2.68a2.46,2.46,0,0,1,1.29.26v4.82a3.11,3.11,0,0,1-1.18.19c-1.2,0-1.69-1-1.69-2.59M74,27.75V24.61a3.56,3.56,0,0,0,1.85.43c1.94,0,3.38-1.62,3.38-4.57,0-3.18-1.42-4.54-3.76-4.54a3,3,0,0,0-1.46.29V12.47H71.75v3.75a3,3,0,0,0-1.46-.29c-2.34,0-3.76,1.42-3.76,4.6,0,3,1.29,4.51,3.37,4.51a3.57,3.57,0,0,0,1.85-.43v3.14H74M56.66,24.89V16.47a11.28,11.28,0,0,0-3.49-.54,11.13,11.13,0,0,0-3.47.54v4.31a5.86,5.86,0,0,1-.15,1.9,2,2,0,0,1-.76,1l0.63,1.34c1.84-.52,2.54-1.32,2.54-3.87V18a6.37,6.37,0,0,1,1.21-.11,6.18,6.18,0,0,1,1.2.11v6.87h2.3ZM84.94,23a3.41,3.41,0,0,1-1.24.21,1.08,1.08,0,0,1-1.29-1.17c0-.88.59-1.17,1.73-1.17a2.44,2.44,0,0,1,.68.09v0.63A5.5,5.5,0,0,0,84.94,23Zm2.92,1a4,4,0,0,1-.76-2.62V19.07a3.29,3.29,0,0,0-.48-2.2c-0.46-.65-1.24-0.94-2.67-0.94a12,12,0,0,0-3,.35L81.32,18a14.6,14.6,0,0,1,1.8-.17c1.52,0,1.7.22,1.7,1.36v0.43a4.41,4.41,0,0,0-1.16-.16c-2.3,0-3.51,1.12-3.51,3A2.64,2.64,0,0,0,83,25.08a4.67,4.67,0,0,0,1.69-.31,4.51,4.51,0,0,0,.8-0.45,2.37,2.37,0,0,0,.87.74Zm22.41-1a3.41,3.41,0,0,1-1.24.21,1.07,1.07,0,0,1-1.28-1.17c0-.88.59-1.17,1.73-1.17a2.38,2.38,0,0,1,.67.09v0.63A5.56,5.56,0,0,0,110.27,23Zm2.92,1a4,4,0,0,1-.77-2.62V19.07a3.3,3.3,0,0,0-.48-2.2c-0.47-.65-1.24-0.94-2.68-0.94a12,12,0,0,0-3,.35L106.65,18a14.59,14.59,0,0,1,1.8-.17c1.52,0,1.69.22,1.69,1.36v0.43a4.39,4.39,0,0,0-1.16-.16c-2.3,0-3.5,1.12-3.5,3a2.63,2.63,0,0,0,2.87,2.69,4.66,4.66,0,0,0,1.69-.31,4.39,4.39,0,0,0,.8-0.45,2.38,2.38,0,0,0,.88.74Zm-50-2.19a1.24,1.24,0,0,1-1.41,1.45,2.88,2.88,0,0,1-1-.14V20.66a4,4,0,0,1,1-.14A1.19,1.19,0,0,1,63.19,21.86Zm-4.71-5.79v8.36a8.79,8.79,0,0,0,3.35.67c2.44,0,3.74-1.26,3.74-3.34,0-1.88-1.15-3-3.31-3a5.48,5.48,0,0,0-1.47.22V16.07H58.48Zm63.1,8.81V16.15h-2.3v3.3h-2.6v-3.3h-2.29v8.74h2.29V21.32h2.6v3.57h2.3Zm9.42,0s-1.25-2.67-1.56-3.28a2.06,2.06,0,0,0-1.37-1.33v0A1.78,1.78,0,0,0,129.33,19a3.22,3.22,0,0,1,.74-1.24,0.63,0.63,0,0,1,.53-0.13L130.72,16a5.87,5.87,0,0,0-1.07,0,1.69,1.69,0,0,0-1.25.53,3.73,3.73,0,0,0-.6,1l-0.6,1.25a0.84,0.84,0,0,1-.92.67h-0.39v-3.3h-2.31v8.74h2.31V21.32h0.31a1,1,0,0,1,1.12.85c0.41,0.83,1.18,2.72,1.18,2.72H131Zm-85.57,0h2.64l-4-12.21a4.79,4.79,0,0,0-1.5-.23,3.41,3.41,0,0,0-1.3.23L37,24.89h2.53s0.34-1.07.76-2.4h4.38ZM41,20.44l0.84-2.83c0.3-1,.74-2.56.74-2.56h0.07s0.41,1.62.67,2.55l0.8,2.84H41ZM91.76,19a1.47,1.47,0,1,0,1.46,1.47A1.47,1.47,0,0,0,91.76,19Z"/>
</svg>
