<?xml version="1.0" encoding="utf-8"?>
<!-- Svg Vector Icons : http://www.onlinewebfonts.com/icon -->
<!DOCTYPE svg PUBLIC "-//W3C//DTD SVG 1.1//EN" "http://www.w3.org/Graphics/SVG/1.1/DTD/svg11.dtd">
<svg version="1.1" xmlns="http://www.w3.org/2000/svg" xmlns:xlink="http://www.w3.org/1999/xlink" x="0px" y="0px" viewBox="0 0 1000 1000" enable-background="new 0 0 1000 1000" xml:space="preserve">
<metadata> Svg Vector Icons : http://www.onlinewebfonts.com/icon </metadata>
<g><path d="M345.1,138.5c35.3,0,64.1,28.9,64.1,64.1v300.8c0,35.3-11,90.8-24.5,123.4c0,0-103,186.1-232.9,230.5c-11.1,3.8-32.6,14.5-60.1-26c-27.6-40.5,20.5-60.3,57-93.5c0,0,42.8-22,60.9-106.8l0,0c0-34.9-28.9-63.5-64.1-63.5H74.1c-35.3,0-64.1-28.9-64.1-64.1V202.7c0-35.3,28.9-64.1,64.1-64.1H345.1z M925.9,138.5c35.3,0,64.1,28.9,64.1,64.1v300.8c0,35.3-11,90.8-24.5,123.4c0,0-103,186.1-232.9,230.5c-11.1,3.8-32.6,14.5-60.1-26c-27.6-40.5,20.5-60.3,57-93.5c0,0,42.8-22,60.9-106.8l0,0c0-34.9-28.9-63.5-64.1-63.5h-71.3c-35.3,0-64.1-28.9-64.1-64.1V202.7c0-35.3,28.9-64.1,64.1-64.1H925.9z"/></g>
</svg>