<?xml version="1.0" encoding="utf-8"?>
<!-- Generated by IcoMoon.io -->
<!DOCTYPE svg PUBLIC "-//W3C//DTD SVG 1.1//EN" "http://www.w3.org/Graphics/SVG/1.1/DTD/svg11.dtd">
<svg version="1.1" xmlns="http://www.w3.org/2000/svg" xmlns:xlink="http://www.w3.org/1999/xlink" width="64" height="64" viewBox="0 0 64 64">
<path d="M25.143 13.714q-5.464 0-10.214 1.857t-7.554 5.036-2.804 6.821q0 2.929 1.893 5.643t5.321 4.714l3.464 2-1.25 3q1.214-0.714 2.214-1.393l1.571-1.107 1.893 0.357q2.786 0.5 5.464 0.5 5.464 0 10.214-1.857t7.554-5.036 2.804-6.821-2.804-6.821-7.554-5.036-10.214-1.857zM25.143 9.143q6.821 0 12.625 2.446t9.161 6.661 3.357 9.179-3.357 9.179-9.161 6.661-12.625 2.446q-3.071 0-6.286-0.571-4.429 3.143-9.929 4.571-1.286 0.321-3.071 0.571h-0.107q-0.393 0-0.732-0.286t-0.411-0.75q-0.036-0.107-0.036-0.232t0.018-0.232 0.071-0.214l0.089-0.179t0.125-0.196 0.143-0.179 0.161-0.179 0.143-0.161q0.179-0.214 0.821-0.893t0.929-1.054 0.804-1.036 0.893-1.375 0.732-1.571q-4.429-2.571-6.964-6.321t-2.536-8q0-4.964 3.357-9.179t9.161-6.661 12.625-2.446zM54.5 50.893q0.357 0.857 0.732 1.571t0.893 1.375 0.804 1.036 0.929 1.054 0.821 0.893q0.036 0.036 0.143 0.161t0.161 0.179 0.143 0.179 0.125 0.196l0.089 0.179t0.071 0.214 0.018 0.232-0.036 0.232q-0.107 0.5-0.464 0.786t-0.786 0.25q-1.786-0.25-3.071-0.571-5.5-1.429-9.929-4.571-3.214 0.571-6.286 0.571-9.679 0-16.857-4.714 2.071 0.143 3.143 0.143 5.75 0 11.036-1.607t9.429-4.607q4.464-3.286 6.857-7.571t2.393-9.071q0-2.75-0.821-5.429 4.607 2.536 7.286 6.357t2.679 8.214q0 4.286-2.536 8.018t-6.964 6.304z"></path>
</svg>
