<?xml version="1.0" encoding="utf-8"?>
<!-- Generated by IcoMoon.io -->
<!DOCTYPE svg PUBLIC "-//W3C//DTD SVG 1.1//EN" "http://www.w3.org/Graphics/SVG/1.1/DTD/svg11.dtd">
<svg version="1.1" xmlns="http://www.w3.org/2000/svg" xmlns:xlink="http://www.w3.org/1999/xlink" width="64" height="64" viewBox="0 0 64 64">
<path d="M64 32q0 6.214-4.286 11.482t-11.643 8.321-16.071 3.054q-2.5 0-5.179-0.286-7.071 6.25-16.429 8.643-1.75 0.5-4.071 0.786-0.607 0.071-1.089-0.321t-0.625-1.036v-0.036q-0.107-0.143-0.018-0.429t0.071-0.357 0.161-0.339l0.214-0.321t0.25-0.304 0.286-0.321q0.25-0.286 1.107-1.232t1.232-1.357 1.107-1.411 1.161-1.821 0.964-2.107 0.929-2.714q-5.607-3.179-8.839-7.857t-3.232-10.036q0-4.643 2.536-8.875t6.821-7.304 10.214-4.875 12.429-1.804q8.714 0 16.071 3.054t11.643 8.321 4.286 11.482z"></path>
</svg>
