<svg xmlns="http://www.w3.org/2000/svg"
 xmlns:xlink="http://www.w3.org/1999/xlink"
 width="22px" height="22px"  viewBox="0 0 22 22">
<path fill-rule="evenodd"  fill="#545454"
 d="M11.498108,1.0026855 C6.2600403,1.0026855 1.9986877,5.263672 1.9986877,10.501953 C1.9986877,15.73999 6.2600403,20.00122 11.498108,20.00122 C16.735931,20.00122 20.997437,15.73999 20.997437,10.501953 C20.997437,5.263672 16.735931,1.0026855 11.498108,1.0026855 ZM16.031555,17.240479 C15.948486,16.74707 15.516571,14.371582 14.455383,11.455322 C16.997955,11.04834 19.231873,11.714844 19.509369,11.802246 C19.147827,14.060059 17.851868,16.009521 16.031555,17.240479 ZM13.961151,10.176514 C13.904297,10.037598 13.8461,9.898193 13.786377,9.7578125 C13.61792,9.361816 13.43692,8.968994 13.248047,8.58252 C16.247986,7.357666 17.607727,5.614502 17.778717,5.3830566 C18.908844,6.76416 19.59317,8.522461 19.611053,10.4375 C19.343475,10.380859 16.661041,9.836914 13.961151,10.176514 ZM12.624176,7.3759766 C11.294647,4.9331055 9.820923,2.9262695 9.596741,2.6257324 C10.206879,2.4787598 10.843445,2.4003906 11.498108,2.4003906 C13.559723,2.4003906 15.443817,3.1738281 16.87674,4.4453125 C16.730743,4.652588 15.50943,6.2944336 12.624176,7.3759766 ZM3.555542,8.852295 C4.081726,6.3344727 5.7785034,4.2419434 8.048523,3.1713867 C8.262421,3.4645996 9.712341,5.473877 11.056732,7.8637695 C7.261383,8.871826 3.918518,8.857178 3.555542,8.852295 ZM11.727234,9.111572 C11.959534,9.566162 12.1814575,10.027588 12.38504,10.488525 C12.2778015,10.518799 12.171082,10.551025 12.065338,10.585205 C7.8805847,11.937744 5.6539,15.624756 5.4701233,15.939453 C4.174164,14.500977 3.3841858,12.598145 3.3841858,10.51416 C3.3841858,10.4313965 3.3858337,10.348633 3.3883667,10.266357 C3.7433167,10.273682 7.6752625,10.324219 11.727234,9.111572 ZM12.883057,11.848389 C12.90094,11.842285 12.918732,11.836426 12.936615,11.830322 C14.075836,14.790039 14.546936,17.271484 14.667633,17.983398 C13.693268,18.398438 12.622162,18.628174 11.498108,18.628174 C9.622345,18.628174 7.8934326,17.988037 6.517639,16.915283 C6.663788,16.616943 8.306488,13.443115 12.883057,11.848389 Z"/>
</svg>