<?xml version="1.0" encoding="utf-8"?>
<!-- Generated by IcoMoon.io -->
<!DOCTYPE svg PUBLIC "-//W3C//DTD SVG 1.1//EN" "http://www.w3.org/Graphics/SVG/1.1/DTD/svg11.dtd">
<svg version="1.1" xmlns="http://www.w3.org/2000/svg" xmlns:xlink="http://www.w3.org/1999/xlink" width="64" height="64" viewBox="0 0 64 64">
<path d="M59.429 53.714v-27.429q-1.143 1.286-2.464 2.357-9.571 7.357-15.214 12.071-1.821 1.536-2.964 2.393t-3.089 1.732-3.661 0.875h-0.071q-1.714 0-3.661-0.875t-3.089-1.732-2.964-2.393q-5.643-4.714-15.214-12.071-1.321-1.071-2.464-2.357v27.429q0 0.464 0.339 0.804t0.804 0.339h52.571q0.464 0 0.804-0.339t0.339-0.804zM59.429 16.179v-0.875t-0.018-0.464-0.107-0.446-0.196-0.321-0.321-0.268-0.5-0.089h-52.571q-0.464 0-0.804 0.339t-0.339 0.804q0 6 5.25 10.143 6.893 5.429 14.321 11.321 0.214 0.179 1.25 1.054t1.643 1.339 1.589 1.125 1.804 0.982 1.536 0.321h0.071q0.714 0 1.536-0.321t1.804-0.982 1.589-1.125 1.643-1.339 1.25-1.054q7.429-5.893 14.321-11.321 1.929-1.536 3.589-4.125t1.661-4.696zM64 14.857v38.857q0 2.357-1.679 4.036t-4.036 1.679h-52.571q-2.357 0-4.036-1.679t-1.679-4.036v-38.857q0-2.357 1.679-4.036t4.036-1.679h52.571q2.357 0 4.036 1.679t1.679 4.036z"></path>
</svg>
