<?xml version="1.0" encoding="utf-8"?>
<!-- Generated by IcoMoon.io -->
<!DOCTYPE svg PUBLIC "-//W3C//DTD SVG 1.1//EN" "http://www.w3.org/Graphics/SVG/1.1/DTD/svg11.dtd">
<svg version="1.1" xmlns="http://www.w3.org/2000/svg" xmlns:xlink="http://www.w3.org/1999/xlink" width="64" height="64" viewBox="0 0 64 64">
<path d="M27.429 4.571q7.464 0 13.768 3.679t9.982 9.982 3.679 13.768-3.679 13.768-9.982 9.982-13.768 3.679-13.768-3.679-9.982-9.982-3.679-13.768 3.679-13.768 9.982-9.982 13.768-3.679zM32 49.107v-6.786q0-0.5-0.321-0.839t-0.786-0.339h-6.857q-0.464 0-0.821 0.357t-0.357 0.821v6.786q0 0.464 0.357 0.821t0.821 0.357h6.857q0.464 0 0.786-0.339t0.321-0.839zM31.929 36.821l0.643-22.179q0-0.429-0.357-0.643-0.357-0.286-0.857-0.286h-7.857q-0.5 0-0.857 0.286-0.357 0.214-0.357 0.643l0.607 22.179q0 0.357 0.357 0.625t0.857 0.268h6.607q0.5 0 0.839-0.268t0.375-0.625z"></path>
</svg>
