<svg xmlns="http://www.w3.org/2000/svg"
 xmlns:xlink="http://www.w3.org/1999/xlink"
 width="14px" height="21px"  viewBox="0 0 14 21">
<path fill-rule="evenodd"  fill="#545454"
 d="M8.81311,1.0068359 C7.6757812,1.0068359 6.572815,1.1950684 5.8291626,1.5720215 C5.0855713,1.9489746 4.548828,2.6152344 4.2717285,3.2145996 C3.99469,3.8139648 3.8562622,4.543213 3.8562622,5.76001 C3.8562622,5.76001 3.8562622,6.956543 3.8562622,6.956543 C3.8562622,6.956543 1.9919434,6.956543 1.9919434,6.956543 C1.9919434,6.956543 1.9919434,9.984131 1.9919434,9.984131 C1.9919434,9.984131 3.8562622,9.984131 3.8562622,9.984131 C3.8562622,9.984131 3.8562622,19.999268 3.8562622,19.999268 C3.8562622,19.999268 7.8412476,19.999268 7.8412476,19.999268 C7.8412476,19.999268 7.8412476,9.984131 7.8412476,9.984131 C7.8412476,9.984131 10.326538,9.984131 10.326538,9.984131 C10.326538,9.984131 11.014893,6.956543 11.014893,6.956543 C11.014893,6.956543 7.8412476,6.956543 7.8412476,6.956543 C7.8412476,6.956543 7.8412476,5.827881 7.8412476,5.827881 C7.8412476,5.0927734 7.9699707,4.595703 8.227539,4.33667 C8.485168,4.078125 8.996399,3.8815918 9.589539,3.8815918 C10.1922,3.8815918 10.675659,4.215088 11.284058,4.583252 C11.284058,4.583252 12.010498,1.7351074 12.010498,1.7351074 C10.892334,1.4082031 9.979675,1.0068359 8.81311,1.0068359 Z"/>
</svg>