<?xml version="1.0" encoding="utf-8"?>
<!-- Generated by IcoMoon.io -->
<!DOCTYPE svg PUBLIC "-//W3C//DTD SVG 1.1//EN" "http://www.w3.org/Graphics/SVG/1.1/DTD/svg11.dtd">
<svg version="1.1" xmlns="http://www.w3.org/2000/svg" xmlns:xlink="http://www.w3.org/1999/xlink" width="64" height="64" viewBox="0 0 64 64">
<path d="M44.571 4.571q4.25 0 7.268 3.018t3.018 7.268v34.286q0 4.25-3.018 7.268t-7.268 3.018h-6.714v-21.25h7.107l1.071-8.286h-8.179v-5.286q0-2 0.839-3t3.268-1l4.357-0.036v-7.393q-2.25-0.321-6.357-0.321-4.857 0-7.768 2.857t-2.911 8.071v6.107h-7.143v8.286h7.143v21.25h-19q-4.25 0-7.268-3.018t-3.018-7.268v-34.286q0-4.25 3.018-7.268t7.268-3.018h34.286z"></path>
</svg>
