<?xml version="1.0" encoding="utf-8"?>
<!-- Generator: Adobe Illustrator 21.0.0, SVG Export Plug-In . SVG Version: 6.00 Build 0)  -->
<svg version="1.1" id="Слой_1" xmlns="http://www.w3.org/2000/svg" xmlns:xlink="http://www.w3.org/1999/xlink" x="0px" y="0px"
	 viewBox="0 0 32 32" style="enable-background:new 0 0 32 32;" xml:space="preserve">
<style type="text/css">
	.st0{fill:#1083AD;}
</style>
<path class="st0" d="M26.3,18.4c-0.4-0.4-1.4-0.6-2.8-0.7c-1,0-2.1,0.1-3.4,0.3c-0.5-0.3-1.1-0.6-1.6-1.1c-1.2-1.1-2.2-2.7-2.8-4.4
	l0.1-0.4c0,0,0.7-3.9,0.5-5.2c0-0.2,0-0.2-0.1-0.4l-0.1-0.2C16,6,15.6,5.6,15.1,5.6h-0.4c-0.6,0-1.1,0.3-1.3,0.8
	c-0.4,1.5,0,3.8,0.8,6.7L14,13.6c-0.6,1.3-1.2,2.7-1.8,3.9l-0.1,0.2c-0.6,1.2-1.2,2.3-1.8,3.2l-0.5,0.3c0,0-1,0.5-1.2,0.6
	c-1.8,1.1-3.1,2.4-3.3,3.4c-0.1,0.3,0,0.7,0.3,0.9l0.5,0.3c0.2,0.1,0.4,0.2,0.7,0.2c1.3,0,2.9-1.6,5-5.3c2.4-0.8,5.2-1.5,7.6-1.8
	c1.9,1,4.1,1.8,5.6,1.8c0.3,0,0.5,0,0.7-0.1c0.3-0.1,0.5-0.2,0.6-0.5c0.3-0.4,0.3-1,0.3-1.6C26.6,18.8,26.5,18.6,26.3,18.4
	L26.3,18.4z M6.6,25.4c0.3-0.7,1.2-2,2.6-3.1l0.5-0.5C8.2,24.2,7.3,25.1,6.6,25.4L6.6,25.4z M15,6.2c0.4,0,0.7,1.1,0.7,2.1
	s-0.2,1.7-0.5,2.3c-0.2-0.8-0.4-2-0.4-2.8C14.8,7.8,14.8,6.3,15,6.2L15,6.2z M12.5,19.9c0.3-0.5,0.6-1.1,0.9-1.7
	c0.8-1.4,1.3-2.6,1.6-3.5c0.7,1.3,1.6,2.4,2.7,3.3c0.1,0.1,0.3,0.2,0.4,0.3C15.9,18.8,14.1,19.3,12.5,19.9z M25.9,19.8
	c-0.1,0.1-0.5,0.1-0.7,0.1c-0.8,0-1.7-0.4-3.1-0.9c0.5,0,1,0,1.4,0c0.8,0,1,0,1.8,0.2S26,19.7,25.9,19.8z"/>
<path class="st0" d="M28.7,7.2C28,6.2,27,5.1,26,4s-2.2-2-3.1-2.7C21.2,0.1,20.4,0,20,0H4.5C3.1,0,2,1.1,2,2.5v27
	C2,30.9,3.1,32,4.5,32h23c1.4,0,2.5-1.1,2.5-2.5V10C30,9.6,29.9,8.8,28.7,7.2z M24.5,5.5c1,1,1.7,1.8,2.3,2.5H22V3.2
	C22.7,3.7,23.6,4.5,24.5,5.5z M28,29.5c0,0.3-0.2,0.5-0.5,0.5h-23C4.2,30,4,29.8,4,29.5v-27C4,2.2,4.2,2,4.5,2H20v7c0,0.6,0.5,1,1,1
	h7V29.5z"/>
</svg>
