<svg xmlns="http://www.w3.org/2000/svg"
 xmlns:xlink="http://www.w3.org/1999/xlink"
 width="45px" height="63px"  viewBox="0 0 45 63">
<path fill-rule="evenodd"  fill="#7d8f9b"
 d="M29.999878,19.645752 C29.999878,19.645752 29.999878,40.82257 29.999878,40.82257 C29.999878,40.82257 43.999695,54.94055 43.999695,54.94055 C43.999695,58.83899 40.86566,61.999146 36.999695,61.999146 C36.999695,61.999146 8.999878,61.999146 8.999878,61.999146 C5.13385,61.999146 1.9998779,58.83899 1.9998779,54.94055 C1.9998779,54.94055 15.999878,40.82257 15.999878,40.82257 C15.999878,40.82257 15.999878,19.645752 15.999878,19.645752 C13.766541,19.645752 6.7665405,12.587524 8.999878,12.587524 C8.999878,12.587524 36.999817,12.587524 36.999817,12.587524 C39.233093,12.587524 32.233093,19.645752 29.999878,19.645752 ZM31.749817,9.057983 C30.783386,9.057983 29.999878,8.267944 29.999878,7.293396 C29.999878,6.3184814 30.783386,5.5286865 31.749817,5.5286865 C32.71637,5.5286865 33.499817,6.3184814 33.499817,7.293396 C33.499817,8.267944 32.71637,9.057983 31.749817,9.057983 ZM24.749817,5.5286865 C23.783447,5.5286865 22.999878,4.7385254 22.999878,3.7640991 C22.999878,2.789734 23.783447,1.9992676 24.749817,1.9992676 C25.71637,1.9992676 26.499817,2.789734 26.499817,3.7640991 C26.499817,4.7385254 25.71637,5.5286865 24.749817,5.5286865 ZM15.999878,9.057983 C14.0668335,9.057983 12.499817,7.477844 12.499817,5.5286865 C12.499817,3.5794067 14.0668335,1.9992676 15.999878,1.9992676 C17.932861,1.9992676 19.499817,3.5794067 19.499817,5.5286865 C19.499817,7.477844 17.932861,9.057983 15.999878,9.057983 Z"/>
</svg>