<svg xmlns="http://www.w3.org/2000/svg"
 xmlns:xlink="http://www.w3.org/1999/xlink"
 width="68px" height="62px"  viewBox="0 0 68 62">
<path fill-rule="evenodd"  fill="#788a95"
 d="M46.10663,43.799377 C46.10663,43.799377 40.56366,53.400024 40.56366,53.400024 C40.56366,53.400024 34.940674,50.153625 34.940674,50.153625 C34.5036,50.51996 34.05255,50.866577 33.585815,51.187134 C33.585815,51.187134 35.2677,57.463867 35.2677,57.463867 C35.2677,57.463867 24.55951,60.332947 24.55951,60.332947 C24.55951,60.332947 22.871094,54.03186 22.871094,54.03186 C22.336365,53.98694 21.80243,53.911194 21.270264,53.81714 C21.270264,53.81714 18.024231,59.439392 18.024231,59.439392 C18.024231,59.439392 8.423523,53.896423 8.423523,53.896423 C8.423523,53.896423 11.687866,48.24243 11.687866,48.24243 C11.343933,47.827637 11.013794,47.402954 10.710876,46.96173 C10.710876,46.96173 4.434204,48.643555 4.434204,48.643555 C4.434204,48.643555 1.5650024,37.93524 1.5650024,37.93524 C1.5650024,37.93524 7.866211,36.24695 7.866211,36.24695 C7.9110107,35.71228 7.9868164,35.178345 8.080811,34.64612 C8.080811,34.64612 2.4585571,31.400085 2.4585571,31.400085 C2.4585571,31.400085 8.001465,21.799438 8.001465,21.799438 C8.001465,21.799438 13.654419,25.06311 13.654419,25.06311 C14.0460205,24.737793 14.444519,24.42212 14.859863,24.133545 C14.859863,24.133545 13.171448,17.832275 13.171448,17.832275 C13.171448,17.832275 23.8797,14.963074 23.8797,14.963074 C23.8797,14.963074 25.561462,21.239685 25.561462,21.239685 C26.095032,21.281494 26.627869,21.35498 27.159119,21.445496 C27.159119,21.445496 30.423523,15.791443 30.423523,15.791443 C30.423523,15.791443 40.02423,21.334412 40.02423,21.334412 C40.02423,21.334412 36.778137,26.956604 36.778137,26.956604 C37.125732,27.370483 37.458313,27.794983 37.764404,28.235596 C37.764404,28.235596 44.065674,26.547241 44.065674,26.547241 C44.065674,26.547241 46.934937,37.255432 46.934937,37.255432 C46.934937,37.255432 40.658264,38.937256 40.658264,38.937256 C40.616516,39.470886 40.542908,40.003662 40.452576,40.534973 C40.452576,40.534973 46.10663,43.799377 46.10663,43.799377 ZM29.612244,28.024658 C24.39209,25.010925 17.717163,26.7995 14.703369,32.01953 C11.689514,37.239624 13.478088,43.914673 18.69812,46.928406 C23.918274,49.94232 30.5932,48.153687 33.607056,42.933594 C36.62085,37.7135 34.832336,31.038574 29.612244,28.024658 ZM21.473816,42.37848 C18.822693,40.84796 17.914368,37.457825 19.445007,34.8067 C20.975647,32.155518 24.365662,31.247192 27.016846,32.777832 C29.66803,34.30847 30.576294,37.698486 29.045654,40.34967 C27.515015,43.000793 24.125,43.90918 21.473816,42.37848 ZM61.680725,4.8654175 C61.680725,4.8654175 65.66815,10.287964 65.66815,10.287964 C65.66815,10.287964 62.492126,12.623352 62.492126,12.623352 C62.589294,12.955688 62.67212,13.291016 62.736572,13.628662 C62.736572,13.628662 66.63672,14.223511 66.63672,14.223511 C66.63672,14.223511 65.621826,20.87738 65.621826,20.87738 C65.621826,20.87738 61.7063,20.280212 61.7063,20.280212 C61.551147,20.56659 61.378784,20.845093 61.196777,21.117981 C61.196777,21.117981 63.5318,24.29358 63.5318,24.29358 C63.5318,24.29358 58.10919,28.280945 58.10919,28.280945 C58.10919,28.280945 55.760925,25.087402 55.760925,25.087402 C55.44641,25.17749 55.12976,25.257568 54.810608,25.318481 C54.810608,25.318481 54.2157,29.218689 54.2157,29.218689 C54.2157,29.218689 47.561768,28.203857 47.561768,28.203857 C47.561768,28.203857 48.159058,24.288208 48.159058,24.288208 C47.87262,24.132935 47.594177,23.960693 47.321167,23.778809 C47.321167,23.778809 44.14563,26.113708 44.14563,26.113708 C44.14563,26.113708 40.158264,20.691162 40.158264,20.691162 C40.158264,20.691162 43.351135,18.343323 43.351135,18.343323 C43.265747,18.046265 43.187378,17.74768 43.128113,17.446411 C43.128113,17.446411 39.212708,16.849121 39.212708,16.849121 C39.212708,16.849121 40.22754,10.195374 40.22754,10.195374 C40.22754,10.195374 44.127747,10.790222 44.127747,10.790222 C44.281067,10.503723 44.451843,10.225342 44.631653,9.951965 C44.631653,9.951965 42.283386,6.758423 42.283386,6.758423 C42.283386,6.758423 47.706055,2.7711182 47.706055,2.7711182 C47.706055,2.7711182 50.041138,5.9467163 50.041138,5.9467163 C50.356018,5.854431 50.673096,5.772827 50.992798,5.710205 C50.992798,5.710205 51.590027,1.7946777 51.590027,1.7946777 C51.590027,1.7946777 58.243896,2.8094482 58.243896,2.8094482 C58.243896,2.8094482 57.648987,6.709778 57.648987,6.709778 C57.935486,6.862915 58.213867,7.0338135 58.487244,7.213623 C58.487244,7.213623 61.680725,4.8654175 61.680725,4.8654175 ZM48.888184,10.1918335 C45.93976,12.359741 45.307068,16.507507 47.475098,19.455872 C49.643127,22.404419 53.79071,23.036926 56.739136,20.868896 C59.68756,18.700867 60.32025,14.553223 58.15222,11.604858 C55.98419,8.656372 51.83661,8.023865 48.888184,10.1918335 ZM54.885864,18.216309 C53.388428,19.317444 51.28192,18.996094 50.180847,17.498596 C49.079773,16.00122 49.401062,13.894653 50.8985,12.793762 C52.395935,11.692627 54.50244,12.013855 55.603455,13.511353 C56.70453,15.008728 56.38324,17.115295 54.885864,18.216309 Z"/>
</svg>