<svg xmlns="http://www.w3.org/2000/svg"
 xmlns:xlink="http://www.w3.org/1999/xlink"
 width="38px" height="65px"  viewBox="0 0 38 65">
<path fill-rule="evenodd"  fill="#7d8f9b"
 d="M32.111115,63.99939 C32.111115,63.99939 4.8889008,63.99939 4.8889008,63.99939 C2.7411194,63.99939 1.0000458,62.26422 1.0000458,60.12433 C1.0000458,60.12433 1.0000458,5.8745117 1.0000458,5.8745117 C1.0000458,3.734314 2.7411194,1.9991455 4.8889008,1.9991455 C4.8889008,1.9991455 32.111115,1.9991455 32.111115,1.9991455 C34.25888,1.9991455 36.00003,3.734314 36.00003,5.8745117 C36.00003,5.8745117 36.00003,60.12433 36.00003,60.12433 C36.00003,62.26422 34.25888,63.99939 32.111115,63.99939 ZM18.5,60.12433 C19.573822,60.12433 20.444427,59.25702 20.444427,58.18689 C20.444427,57.116882 19.573822,56.249023 18.5,56.249023 C17.426056,56.249023 16.555573,57.116882 16.555573,58.18689 C16.555573,59.25702 17.426056,60.12433 18.5,60.12433 ZM22.388916,5.8745117 C22.388916,5.8745117 14.611084,5.8745117 14.611084,5.8745117 C13.53714,5.8745117 12.6666565,6.741699 12.6666565,7.8115845 C12.6666565,8.881714 13.53714,9.749268 14.611084,9.749268 C14.611084,9.749268 22.388916,9.749268 22.388916,9.749268 C23.462738,9.749268 24.333344,8.881714 24.333344,7.8115845 C24.333344,6.741699 23.462738,5.8745117 22.388916,5.8745117 ZM32.111115,13.624451 C32.111115,13.624451 4.8889008,13.624451 4.8889008,13.624451 C4.8889008,13.624451 4.8889008,52.374084 4.8889008,52.374084 C4.8889008,52.374084 32.111115,52.374084 32.111115,52.374084 C32.111115,52.374084 32.111115,13.624451 32.111115,13.624451 Z"/>
</svg>