<?xml version="1.0" encoding="utf-8"?>
<!-- Generated by IcoMoon.io -->
<!DOCTYPE svg PUBLIC "-//W3C//DTD SVG 1.1//EN" "http://www.w3.org/Graphics/SVG/1.1/DTD/svg11.dtd">
<svg version="1.1" xmlns="http://www.w3.org/2000/svg" xmlns:xlink="http://www.w3.org/1999/xlink" width="64" height="64" viewBox="0 0 64 64">
<path d="M8.464 50.5h8.25v-24.786h-8.25v24.786zM17.25 18.071q-0.036-1.857-1.286-3.071t-3.321-1.214-3.375 1.214-1.304 3.071q0 1.821 1.268 3.054t3.304 1.232h0.036q2.107 0 3.393-1.232t1.286-3.054zM38.143 50.5h8.25v-14.214q0-5.5-2.607-8.321t-6.893-2.821q-4.857 0-7.464 4.179h0.071v-3.607h-8.25q0.107 2.357 0 24.786h8.25v-13.857q0-1.357 0.25-2 0.536-1.25 1.607-2.125t2.643-0.875q4.143 0 4.143 5.607v13.25zM54.857 14.857v34.286q0 4.25-3.018 7.268t-7.268 3.018h-34.286q-4.25 0-7.268-3.018t-3.018-7.268v-34.286q0-4.25 3.018-7.268t7.268-3.018h34.286q4.25 0 7.268 3.018t3.018 7.268z"></path>
</svg>
