<svg xmlns="http://www.w3.org/2000/svg" width="50" height="46" viewBox="0 0 50 46"><title>Монтажная область 1</title><rect x="0.5" y="0.5" width="11" height="11"/><path d="M11,1V11H1V1H11m1-1H0V12H12V0Z"/><rect x="0.5" y="17.5" width="11" height="11"/><path d="M11,18V28H1V18H11m1-1H0V29H12V17Z"/><rect x="0.5" y="34.5" width="11" height="11"/><path d="M11,35V45H1V35H11m1-1H0V46H12V34Z"/><rect x="19.5" y="0.5" width="30" height="11"/><path d="M49,1V11H20V1H49m1-1H19V12H50V0Z"/><rect x="19.5" y="17.5" width="30" height="11"/><path d="M49,18V28H20V18H49m1-1H19V29H50V17Z"/><rect x="19.5" y="34.5" width="30" height="11"/><path d="M49,35V45H20V35H49m1-1H19V46H50V34Z"/></svg>