<?xml version="1.0" encoding="utf-8"?>
<!-- Generated by IcoMoon.io -->
<!DOCTYPE svg PUBLIC "-//W3C//DTD SVG 1.1//EN" "http://www.w3.org/Graphics/SVG/1.1/DTD/svg11.dtd">
<svg version="1.1" xmlns="http://www.w3.org/2000/svg" xmlns:xlink="http://www.w3.org/1999/xlink" width="41" height="64" viewBox="0 0 41 64">
<path d="M11.429 27.429h18.286v-6.857q0-3.786-2.679-6.464t-6.464-2.679-6.464 2.679-2.679 6.464v6.857zM41.143 30.857v20.571q0 1.429-1 2.429t-2.429 1h-34.286q-1.429 0-2.429-1t-1-2.429v-20.571q0-1.429 1-2.429t2.429-1h1.143v-6.857q0-6.571 4.714-11.286t11.286-4.714 11.286 4.714 4.714 11.286v6.857h1.143q1.429 0 2.429 1t1 2.429z"></path>
</svg>
