<svg id="logo" xmlns="http://www.w3.org/2000/svg" viewBox="0 0 184.8 66.1">
  <path d="M82.3 24.5H0V0h82.3v24.5zM4 20.5h74.3V4H4v16.5zm37.1 45.6c-20.2 0-36.5-16.4-36.5-36.5h4c0 18 14.6 32.5 32.5 32.5s32.5-14.6 32.5-32.5h4c0 20.2-16.3 36.5-36.5 36.5z"/>
  <path d="M56.9 53h-4v-7.7c-.2-6.5-5.6-11.6-12.1-11.4-6.2.2-11.2 5.2-11.4 11.4V53h-4v-7.7c.2-8.7 7.4-15.5 16.1-15.3 8.5.2 15.2 7 15.4 15.3V53z"/>
  <circle cx="41.5" cy="44.2" r="5.8"/>
  <path d="M105.2 29v26.8c0 3.9-2 5.9-5.9 5.9h-2c-3.5 0-5.3-1.8-5.3-5.3V55h3.5v1.3c0 1.4.7 2.1 2 2.1h2c1.3 0 2-.7 2-2.1v-4.9c-1.3 1.2-2.9 1.8-4.7 1.8-1.6 0-2.8-.5-3.6-1.5-.8-1-1.2-2.3-1.2-3.9V34c0-1.6.4-2.9 1.2-3.9.8-1 2-1.5 3.6-1.5 1.8 0 3.3.6 4.7 2V29h3.7zm-3.8 19.3V33.7c-1.1-.9-2.3-1.4-3.5-1.4-1.5 0-2.2.7-2.2 2.2v13c0 1.5.7 2.2 2.2 2.2 1.2 0 2.4-.5 3.5-1.4zM121.9 29v27h-3.8v-1.8c-1.4 1.4-3 2-4.8 2-3.1 0-4.6-1.6-4.6-4.8V29h3.8v21.7c0 1.4.7 2 2 2 1.2 0 2.4-.5 3.6-1.4V29h3.8zm3.3 22.5v-5c0-1.6.3-2.9.9-3.7s1.6-1.5 3.1-2l5.1-1.8v-4.5c0-1.6-.8-2.5-2.4-2.5h-.3c-1.6 0-2.4.8-2.4 2.5V38h-3.7v-3.2c0-4.1 2-6.1 6.1-6.1h.4c4.1 0 6.1 2 6.1 6.1V56h-3.8v-1.7c-1.4 1.3-3 2-4.7 2-2.9 0-4.4-1.6-4.4-4.8zm5.7 1.2c1.1 0 2.2-.4 3.5-1.3v-8.8l-3.5 1.2c-.7.3-1.2.6-1.5 1-.3.4-.4 1-.4 1.8v4.1c0 1.3.6 2 1.9 2zm10.6 3.3V29h3.8v2.8c.6-1.1 1.2-1.9 1.9-2.4s1.5-.7 2.5-.7V33c-1.8.1-3.3.7-4.4 1.7V56h-3.8zm23.8-35.5V56h-3.8v-1.8c-1.3 1.4-2.9 2-4.7 2-1.6 0-2.8-.5-3.6-1.5-.8-1-1.2-2.3-1.2-3.9V34c0-1.6.4-2.9 1.2-3.9.8-1 2-1.5 3.6-1.5 1.8 0 3.3.6 4.7 2V20.5h3.8zm-3.8 30.8V33.7c-1.1-.9-2.3-1.4-3.5-1.4-1.5 0-2.2.7-2.2 2.2v16c0 1.5.7 2.2 2.2 2.2 1.2 0 2.4-.5 3.5-1.4zm-61.9-38c.7.5 1.1 1 1.4 1.5s.4 1.2.4 2v2.7c0 2.3-1.2 3.5-3.5 3.5h-.6c-2.3 0-3.4-1.1-3.4-3.4v-3.9H96v4c0 .9.5 1.4 1.4 1.4h.4c.9 0 1.4-.5 1.4-1.4v-2.8c0-.4-.1-.8-.2-1-.1-.3-.4-.5-.7-.8l-2.6-1.9c-.7-.5-1.1-1-1.4-1.5-.3-.5-.4-1.2-.4-2V7.4c0-2.3 1.2-3.5 3.5-3.5h.5c2.3 0 3.4 1.1 3.4 3.4v3.4h-2.1V7.3c0-.9-.5-1.4-1.4-1.4h-.4c-.9 0-1.4.5-1.4 1.4v2.4c0 .4.1.8.2 1 .2.3.4.5.7.8l2.7 1.8zm9.5 0c1.1.4 1.7 1.4 1.7 2.9v3.2c0 2.3-1.2 3.5-3.5 3.5h-4V4.1h3.9c2.3 0 3.5 1.2 3.5 3.5v2.8c0 1.5-.5 2.4-1.6 2.9zm-.5-5.9c0-.9-.5-1.4-1.4-1.4h-1.7v6.3h1.6c1.1 0 1.6-.5 1.6-1.6V7.4zm-3.2 6.8v6.7h1.8c.9 0 1.4-.5 1.4-1.4v-3.7c0-1.1-.5-1.6-1.6-1.6h-1.6z"/>
</svg>
