<svg xmlns="http://www.w3.org/2000/svg"
 xmlns:xlink="http://www.w3.org/1999/xlink"
 width="28px" height="28px"  viewBox="0 0 28 28">
<path fill-rule="evenodd"  fill="#545454"
 d="M25.649963,1.6225586 C25.52356,1.5407715 25.37854,1.5002441 25.234253,1.5002441 C25.086182,1.5002441 24.938232,1.5419922 24.80951,1.6289062 C24.80951,1.6289062 1.8408203,16.941406 1.8408203,16.941406 C1.6045532,17.098389 1.4744263,17.375 1.5043945,17.657715 C1.5335083,17.94043 1.7174683,18.183838 1.9813232,18.288574 C1.9813232,18.288574 7.9717407,20.685547 7.9717407,20.685547 C7.9717407,20.685547 10.788269,25.614502 10.788269,25.614502 C10.922852,25.850586 11.17334,25.997314 11.444824,26.000244 C11.447815,26.000244 11.450012,26.000244 11.453003,26.000244 C11.721436,26.000244 11.971191,25.858154 12.109497,25.62793 C12.109497,25.62793 13.699768,22.976562 13.699768,22.976562 C13.699768,22.976562 21.12201,25.945068 21.12201,25.945068 C21.213196,25.982422 21.30957,26.000244 21.406006,26.000244 C21.536194,26.000244 21.665588,25.967285 21.781372,25.901611 C21.983337,25.787842 22.123108,25.589111 22.161255,25.360352 C22.161255,25.360352 25.989319,2.3913574 25.989319,2.3913574 C26.03949,2.0908203 25.906372,1.7890625 25.649963,1.6225586 ZM3.9014282,17.408203 C3.9014282,17.408203 21.644653,5.578369 21.644653,5.578369 C21.644653,5.578369 8.744141,19.387695 8.744141,19.387695 C8.676025,19.347168 8.6154175,19.293457 8.5407715,19.263672 C8.5407715,19.263672 3.9014282,17.408203 3.9014282,17.408203 ZM9.30127,19.92627 C9.299622,19.923096 9.297363,19.92163 9.295837,19.918701 C9.295837,19.918701 23.798706,4.3952637 23.798706,4.3952637 C23.798706,4.3952637 11.435059,23.659912 11.435059,23.659912 C11.435059,23.659912 9.30127,19.92627 9.30127,19.92627 ZM20.807251,24.169922 C20.807251,24.169922 14.268066,21.554688 14.268066,21.554688 C14.111755,21.493164 13.950195,21.472412 13.790222,21.463379 C13.790222,21.463379 23.860046,5.8532715 23.860046,5.8532715 C23.860046,5.8532715 20.807251,24.169922 20.807251,24.169922 Z"/>
</svg>