<svg xmlns="http://www.w3.org/2000/svg" viewBox="0 0 138 22.9" width="138" height="23">
  <defs>
    <style>
      .a, .c {
        fill: #0d4ba0;
      }

      .b {
        fill: #f26522;
      }

      .c {
        fill-rule: evenodd;
      }
    </style>
  </defs>
  <title>psb</title>
  <g>
    <path class="a" d="M16,8.81v0a1.42,1.42,0,0,0,1-1.47c0-1.09-.88-1.59-2.13-1.59H12.75v2.6H11.5a1.78,1.78,0,0,0-2,1.81c0,0.91.52,1.31,1.49,1.79,0.59,0.3,1.29.47,1.29,1.15a0.9,0.9,0,0,1-1,.78H9.93a2.05,2.05,0,0,0,.28-1c0-.42-0.15-2.09-2.47-2.09H5.84v6.44H7.13V14.37L7.66,14.9h3.54c1.65,0,2.44-.85,2.44-1.87a2,2,0,0,0-.18-0.88h1.33c2,0,2.52-1,2.52-1.81A1.49,1.49,0,0,0,16,8.81Zm-8.22,5H7.13v-2.1H7.74a1,1,0,0,1,1.1,1A1,1,0,0,1,7.74,13.85Zm5-4v1.56a9.18,9.18,0,0,0-1-.5A1.09,1.09,0,0,1,10.85,10c0-.26.16-0.65,0.95-0.65h1.46ZM14,6.73h0.59c1,0,1,.61,1,0.8a0.83,0.83,0,0,1-1,.79H14V6.73Zm0.74,4.4H14V9.34h0.74a0.92,0.92,0,0,1,1.15.89A1,1,0,0,1,14.78,11.13Z"/>
    <path class="a" d="M22.92,5.58A5.58,5.58,0,0,0,17.34,0H9.46A5.58,5.58,0,0,0,4.1,4.08h9.52c3.66,0,5.22,1.7,5.22,5.7v9a5.59,5.59,0,0,0,4.08-5.37V5.58Z"/>
    <path class="b" d="M0,17.32A5.58,5.58,0,0,0,5.58,22.9h7.88a5.58,5.58,0,0,0,5.37-4.08H9.3c-3.66,0-5.22-1.7-5.22-5.7v-9A5.59,5.59,0,0,0,0,9.45v7.88Z"/>
    <g>
      <polygon class="c" points="121.6 17.16 121.6 8.87 124 8.87 124 11.95 126.61 11.95 126.61 8.87 128.98 8.87 128.98 17.16 126.61 17.16 126.61 13.46 124 13.46 124 17.16 121.6 17.16 121.6 17.16"/>
      <path class="c" d="M118.14,15.85V12.9c-1,.13-2.5.31-2.5,1.75,0,1.77,1.91,1.44,2.5,1.19h0Zm-4.69-1.06a2.46,2.46,0,0,1,1.73-2.42,8.68,8.68,0,0,1,1.38-.38c0.4-.07.93-0.13,1.57-0.22V11.51a1.23,1.23,0,0,0-1.49-1.43,4.93,4.93,0,0,0-2.27.62L114.2,9.22a8.74,8.74,0,0,1,3-.53,4.85,4.85,0,0,1,1.63.22,2.07,2.07,0,0,1,1.5,1.82,5.86,5.86,0,0,1,0,.84v5.16c-2.08.8-6.92,1.34-6.92-1.94h0Z"/>
      <path class="c" d="M109.87,15.57a1.13,1.13,0,0,1-1,.48c-1.38,0-1.7-2.26-1.7-3.27a3.58,3.58,0,0,1,.66-2.29,1.19,1.19,0,0,1,1-.44,1.34,1.34,0,0,1,1.27,1,5.6,5.6,0,0,1,.35,2.11,4.2,4.2,0,0,1-.59,2.42h0Zm2.88-4.42a3.57,3.57,0,0,0-1-1.7c-0.82-.78-3.7-1.42-5.09.66,0-2.19.93-3.27,2.79-3.59S112.29,6,112.29,6l-0.18-1.78s-1.9.26-3.47,0.62A4.78,4.78,0,0,0,104.91,9a14.41,14.41,0,0,0,.24,5.72,3.72,3.72,0,0,0,3.73,2.64c2.82,0,4.12-1.73,4.12-4.44a7.58,7.58,0,0,0-.24-1.78h0Z"/>
      <polygon class="c" points="130.36 17.16 130.36 8.87 132.73 8.87 132.73 12.69 135.39 8.87 137.73 8.87 135.02 12.57 138 17.16 135.36 17.16 132.73 13.04 132.73 17.16 130.36 17.16 130.36 17.16"/>
      <path class="c" d="M92.56,17.34A6.52,6.52,0,0,1,90.3,17l0.19-1.44a3.23,3.23,0,0,0,1.73.48c1.2,0,1.86-.55,1.83-1.33a1,1,0,0,0-.37-0.87,1.34,1.34,0,0,0-.83-0.33c-0.32,0-.58,0-0.8,0H91.47V12.24h0.16c0.88,0,2.26,0,2.26-1.18A1.22,1.22,0,0,0,92.51,10a4.09,4.09,0,0,0-2,.53L90.36,9.14A7.08,7.08,0,0,1,93,8.67c1.92,0,3.12.82,3.07,2.13a2,2,0,0,1-1.52,1.89,2.86,2.86,0,0,1,1.06.39,1.89,1.89,0,0,1,.8,1.6A2.34,2.34,0,0,1,95,16.88a6,6,0,0,1-2.47.46h0Z"/>
      <path class="c" d="M71.21,17.34c-2.74,0-4.26-1.66-4.26-4.37a4,4,0,0,1,4.29-4.31,5.22,5.22,0,0,1,2,.34l-0.26,1.5a2.79,2.79,0,0,0-1.31-.35c-1.6,0-2.29,1.31-2.29,2.75s0.67,2.92,2.3,2.92A2.72,2.72,0,0,0,73,15.5L73.14,17a5.63,5.63,0,0,1-1.94.31h0Z"/>
      <path class="c" d="M97.46,17.16V8.87h2.35v2.62c0.5,0,.82,0,0.94,0a4.08,4.08,0,0,1,2.4.55,2.55,2.55,0,0,1,1,2.11c-0.06,2.71-2.8,3.22-4.29,3.22a12.46,12.46,0,0,1-2.37-.18h0Zm2.35-1.34S102,16.27,102,14.23a1.43,1.43,0,0,0-.21-0.86,1.45,1.45,0,0,0-1.36-.5h-0.34a1.15,1.15,0,0,0-.24,0v2.92h0Z"/>
      <path class="c" d="M76.75,12.33V10s0.24,0,.83,0a1.12,1.12,0,0,1,1.36,1.09c0,0.82-.5,1.22-1.65,1.22H76.75Zm0.59,1.29c0.22,0,.46,0,0.75,0a1.23,1.23,0,0,1,.75.29,0.93,0.93,0,0,1,.34.82c0,0.91-.8,1.24-1.84,1.24l-0.59,0V13.62h0.59Zm2.35-.87a1.85,1.85,0,0,0,1.49-1.88,2,2,0,0,0-.27-1.05A1.87,1.87,0,0,0,80,9.09a7,7,0,0,0-2.71-.42,17.66,17.66,0,0,0-2.85.2v8.3a21.15,21.15,0,0,0,2.85.18c1.67,0,4.2-.42,4.26-2.53V14.72a1.9,1.9,0,0,0-1.86-2h0Z"/>
      <path class="c" d="M86.74,12.46H86.15c-1.14,0-1.6-.37-1.6-1.31A1.15,1.15,0,0,1,85.88,10a6.82,6.82,0,0,1,.86,0v2.44h0ZM86.21,8.67c-1.75,0-3.92.29-3.92,2.53A2.1,2.1,0,0,0,84,13.42l-2.22,3.75h2.47L86,13.86h0.7v3.31h2.34V8.87a18.27,18.27,0,0,0-2.87-.2h0Z"/>
      <polygon class="c" points="28.65 17.16 28.65 5.72 37.36 5.72 37.36 17.16 34.83 17.16 34.83 7.34 31.19 7.34 31.19 17.16 28.65 17.16 28.65 17.16"/>
      <path class="c" d="M44.12,12.73c0-3.11-2.16-2.84-3-2.64V15.5c0.32,0.07,3,1.09,3-2.77h0Zm-5.37,7.78V9.09c2.08-.42,7.72-1.59,7.72,3.46a4.93,4.93,0,0,1-1,3.27A4.09,4.09,0,0,1,41.16,17v3.52h-2.4Z"/>
      <path class="c" d="M51.42,16a1.49,1.49,0,0,0,1.35-1.29A7.43,7.43,0,0,0,53,12.9a5.41,5.41,0,0,0-.32-2A1.35,1.35,0,0,0,51.42,10,1.49,1.49,0,0,0,50,11.15a5.52,5.52,0,0,0-.27,1.76c0,1,.24,3.13,1.67,3.13h0Zm-0.18,1.31c-2.74,0-3.93-1.73-3.93-4.32s1.41-4.35,4.17-4.35a3.86,3.86,0,0,1,2.37.67A3,3,0,0,1,55,11a6.47,6.47,0,0,1,.3,2c0,2.79-1.19,4.39-4.08,4.39h0Z"/>
      <polygon class="c" points="55.83 17.16 56.69 8.87 59.45 8.87 61.16 14.52 62.86 8.87 65.58 8.87 66.39 17.16 64.19 17.16 63.73 11.2 61.93 17.16 60.02 17.16 58.2 11.15 57.73 17.16 55.83 17.16 55.83 17.16"/>
    </g>
  </g>
</svg>
