<?xml version="1.0" encoding="utf-8"?>
<!-- Generated by IcoMoon.io -->
<!DOCTYPE svg PUBLIC "-//W3C//DTD SVG 1.1//EN" "http://www.w3.org/Graphics/SVG/1.1/DTD/svg11.dtd">
<svg version="1.1" xmlns="http://www.w3.org/2000/svg" xmlns:xlink="http://www.w3.org/1999/xlink" width="59" height="64" viewBox="0 0 59 64">
<path d="M27.429 34.286v13.714q0 2.857-2 4.857t-4.857 2h-13.714q-2.857 0-4.857-2t-2-4.857v-25.143q0-3.714 1.446-7.089t3.911-5.839 5.839-3.911 7.089-1.446h2.286q0.929 0 1.607 0.679t0.679 1.607v4.571q0 0.929-0.679 1.607t-1.607 0.679h-2.286q-3.786 0-6.464 2.679t-2.679 6.464v1.143q0 1.429 1 2.429t2.429 1h8q2.857 0 4.857 2t2 4.857zM59.429 34.286v13.714q0 2.857-2 4.857t-4.857 2h-13.714q-2.857 0-4.857-2t-2-4.857v-25.143q0-3.714 1.446-7.089t3.911-5.839 5.839-3.911 7.089-1.446h2.286q0.929 0 1.607 0.679t0.679 1.607v4.571q0 0.929-0.679 1.607t-1.607 0.679h-2.286q-3.786 0-6.464 2.679t-2.679 6.464v1.143q0 1.429 1 2.429t2.429 1h8q2.857 0 4.857 2t2 4.857z"></path>
</svg>
