<?xml version="1.0" encoding="utf-8"?>
<!-- Generated by IcoMoon.io -->
<!DOCTYPE svg PUBLIC "-//W3C//DTD SVG 1.1//EN" "http://www.w3.org/Graphics/SVG/1.1/DTD/svg11.dtd">
<svg version="1.1" xmlns="http://www.w3.org/2000/svg" xmlns:xlink="http://www.w3.org/1999/xlink" width="50" height="64" viewBox="0 0 50 64">
<path d="M13.714 48q0 2.857-2 4.857t-4.857 2-4.857-2-2-4.857 2-4.857 4.857-2 4.857 2 2 4.857zM32 52.393q0.071 1-0.607 1.714-0.643 0.75-1.679 0.75h-4.821q-0.893 0-1.536-0.589t-0.714-1.482q-0.786-8.179-6.589-13.982t-13.982-6.589q-0.893-0.071-1.482-0.714t-0.589-1.536v-4.821q0-1.036 0.75-1.679 0.607-0.607 1.536-0.607h0.179q5.714 0.464 10.929 2.875t9.25 6.482q4.071 4.036 6.482 9.25t2.875 10.929zM50.286 52.464q0.071 0.964-0.643 1.679-0.643 0.714-1.643 0.714h-5.107q-0.929 0-1.589-0.625t-0.696-1.518q-0.429-7.679-3.607-14.589t-8.268-12-12-8.268-14.589-3.643q-0.893-0.036-1.518-0.696t-0.625-1.554v-5.107q0-1 0.714-1.643 0.643-0.643 1.571-0.643h0.107q9.357 0.464 17.911 4.286t15.196 10.5q6.679 6.643 10.5 15.196t4.286 17.911z"></path>
</svg>
