<?xml version="1.0" encoding="utf-8"?>
<!-- Generated by IcoMoon.io -->
<!DOCTYPE svg PUBLIC "-//W3C//DTD SVG 1.1//EN" "http://www.w3.org/Graphics/SVG/1.1/DTD/svg11.dtd">
<svg version="1.1" xmlns="http://www.w3.org/2000/svg" xmlns:xlink="http://www.w3.org/1999/xlink" width="64" height="64" viewBox="0 0 64 64">
<path d="M9.143 51.429v6.857q0 0.5-0.321 0.821t-0.821 0.321h-6.857q-0.5 0-0.821-0.321t-0.321-0.821v-6.857q0-0.5 0.321-0.821t0.821-0.321h6.857q0.5 0 0.821 0.321t0.321 0.821zM22.857 46.857v11.429q0 0.5-0.321 0.821t-0.821 0.321h-6.857q-0.5 0-0.821-0.321t-0.321-0.821v-11.429q0-0.5 0.321-0.821t0.821-0.321h6.857q0.5 0 0.821 0.321t0.321 0.821zM36.571 37.714v20.571q0 0.5-0.321 0.821t-0.821 0.321h-6.857q-0.5 0-0.821-0.321t-0.321-0.821v-20.571q0-0.5 0.321-0.821t0.821-0.321h6.857q0.5 0 0.821 0.321t0.321 0.821zM50.286 24v34.286q0 0.5-0.321 0.821t-0.821 0.321h-6.857q-0.5 0-0.821-0.321t-0.321-0.821v-34.286q0-0.5 0.321-0.821t0.821-0.321h6.857q0.5 0 0.821 0.321t0.321 0.821zM64 5.714v52.571q0 0.5-0.321 0.821t-0.821 0.321h-6.857q-0.5 0-0.821-0.321t-0.321-0.821v-52.571q0-0.5 0.321-0.821t0.821-0.321h6.857q0.5 0 0.821 0.321t0.321 0.821z"></path>
</svg>
