<?xml version="1.0" encoding="utf-8"?>
<!-- Generated by IcoMoon.io -->
<!DOCTYPE svg PUBLIC "-//W3C//DTD SVG 1.1//EN" "http://www.w3.org/Graphics/SVG/1.1/DTD/svg11.dtd">
<svg version="1.1" xmlns="http://www.w3.org/2000/svg" xmlns:xlink="http://www.w3.org/1999/xlink" width="64" height="64" viewBox="0 0 64 64">
<path d="M41.893 37.964q0-1.786-0.696-3.268t-1.732-2.446-2.607-1.75-2.946-1.214-3.125-0.821l-3.714-0.857q-1.071-0.25-1.571-0.375t-1.25-0.411-1.071-0.571-0.589-0.75-0.268-1.071q0-2.75 5.143-2.75 1.536 0 2.75 0.429t1.929 1.018 1.357 1.196 1.429 1.036 1.714 0.429q1.679 0 2.696-1.143t1.018-2.75q0-1.964-2-3.554t-5.071-2.411-6.5-0.821q-2.429 0-4.714 0.554t-4.268 1.679-3.179 3.107-1.196 4.589q0 2.179 0.679 3.804t2 2.696 2.857 1.732 3.679 1.161l5.214 1.286q3.214 0.786 4 1.286 1.143 0.714 1.143 2.143 0 1.393-1.429 2.304t-3.75 0.911q-1.821 0-3.268-0.571t-2.321-1.375-1.625-1.607-1.643-1.375-1.929-0.571q-1.786 0-2.696 1.071t-0.911 2.679q0 3.286 4.357 5.625t10.393 2.339q2.607 0 5-0.661t4.375-1.911 3.161-3.339 1.179-4.696zM54.857 45.714q0 5.679-4.018 9.696t-9.696 4.018q-4.643 0-8.357-2.857-2.75 0.571-5.357 0.571-5.107 0-9.768-1.982t-8.036-5.357-5.357-8.036-1.982-9.768q0-2.607 0.571-5.357-2.857-3.714-2.857-8.357 0-5.679 4.018-9.696t9.696-4.018q4.643 0 8.357 2.857 2.75-0.571 5.357-0.571 5.107 0 9.768 1.982t8.036 5.357 5.357 8.036 1.982 9.768q0 2.607-0.571 5.357 2.857 3.714 2.857 8.357z"></path>
</svg>
