<svg xmlns="http://www.w3.org/2000/svg"><symbol id="angle_left" viewBox="0 0 23 64"><path d="M22.393 19.429q0 .464-.357.821L8 34.286l14.036 14.036q.357.357.357.821t-.357.821L20.25 51.75q-.357.357-.821.357t-.821-.357L1.965 35.107q-.357-.357-.357-.821t.357-.821l16.643-16.643q.357-.357.821-.357t.821.357l1.786 1.786q.357.357.357.821z"/></symbol><symbol id="angle_right" viewBox="0 0 23 64"><path d="M21.25 34.286q0 .464-.357.821L4.25 51.75q-.357.357-.821.357t-.821-.357L.822 49.964q-.357-.357-.357-.821t.357-.821l14.036-14.036L.822 20.25q-.357-.357-.357-.821t.357-.821l1.786-1.786q.357-.357.821-.357t.821.357l16.643 16.643q.357.357.357.821z"/></symbol><symbol id="avtomat_vorota" viewBox="0 0 101 101"><path fill="none" stroke="#000" stroke-miterlimit="10" stroke-width="4" d="M2.17 34.54h13.79v43.25H2.17zm83 0h13.79v43.25H85.17zm-69.21 6.75h69.21v36.5H15.96zm34.54 0v36.5"/></symbol><symbol id="bolt" viewBox="0 0 32 64"><path d="M31.607 20.214q.643.714.25 1.571L12.571 63.106q-.464.893-1.5.893-.143 0-.5-.071-.607-.179-.911-.679t-.161-1.071l7.036-28.857-14.5 3.607q-.143.036-.429.036-.643 0-1.107-.393-.643-.536-.464-1.393L7.214 5.714q.143-.5.571-.821t1-.321h11.714q.679 0 1.143.446t.464 1.054q0 .286-.179.643L15.82 23.251l14.143-3.5q.286-.071.429-.071.679 0 1.214.536z"/></symbol><symbol id="calendar" viewBox="0 0 59 64"><path d="M4.571 59.429h10.286V49.143H4.571v10.286zm12.572 0h11.429V49.143H17.143v10.286zM4.571 46.857h10.286V35.428H4.571v11.429zm12.572 0h11.429V35.428H17.143v11.429zM4.571 33.143h10.286V22.857H4.571v10.286zm26.286 26.286h11.429V49.143H30.857v10.286zM17.143 33.143h11.429V22.857H17.143v10.286zm27.428 26.286h10.286V49.143H44.571v10.286zM30.857 46.857h11.429V35.428H30.857v11.429zM18.286 16V5.714q0-.464-.339-.804t-.804-.339h-2.286q-.464 0-.804.339t-.339.804V16q0 .464.339.804t.804.339h2.286q.464 0 .804-.339t.339-.804zm26.285 30.857h10.286V35.428H44.571v11.429zM30.857 33.143h11.429V22.857H30.857v10.286zm13.714 0h10.286V22.857H44.571v10.286zM45.714 16V5.714q0-.464-.339-.804t-.804-.339h-2.286q-.464 0-.804.339t-.339.804V16q0 .464.339.804t.804.339h2.286q.464 0 .804-.339t.339-.804zm13.715-2.286v45.714q0 1.857-1.357 3.214t-3.214 1.357H4.572q-1.857 0-3.214-1.357T.001 59.428V13.714q0-1.857 1.357-3.214t3.214-1.357h4.571V5.714q0-2.357 1.679-4.036t4.036-1.679h2.286q2.357 0 4.036 1.679t1.679 4.036v3.429h13.714V5.714q0-2.357 1.679-4.036t4.036-1.679h2.286q2.357 0 4.036 1.679t1.679 4.036v3.429h4.571q1.857 0 3.214 1.357t1.357 3.214z"/></symbol><symbol id="caret_left" viewBox="0 0 23 64"><path d="M22.857 16v32q0 .929-.679 1.607t-1.607.679-1.607-.679l-16-16q-.679-.679-.679-1.607t.679-1.607l16-16q.679-.679 1.607-.679t1.607.679.679 1.607z"/></symbol><symbol id="caret_right" viewBox="0 0 23 64"><path d="M20.571 32q0 .929-.679 1.607l-16 16q-.679.679-1.607.679t-1.607-.679T-.001 48V16q0-.929.679-1.607t1.607-.679 1.607.679l16 16q.679.679.679 1.607z"/></symbol><symbol id="cloud" viewBox="0 0 69 64"><path d="M68.571 41.143q0 5.679-4.018 9.696t-9.696 4.018H16q-6.607 0-11.304-4.696T0 38.857q0-4.714 2.536-8.625t6.679-5.839q-.071-1-.071-1.536 0-7.571 5.357-12.929T27.43 4.571q5.643 0 10.232 3.143t6.696 8.214q2.5-2.214 5.929-2.214 3.786 0 6.464 2.679t2.679 6.464q0 2.679-1.464 4.929 4.607 1.071 7.607 4.804t3 8.554z"/></symbol><symbol id="cod_zamok" viewBox="0 0 97 98.57"><path fill="none" stroke="#000" stroke-miterlimit="10" stroke-width="4" d="M2 2h22.58v22.58H2zm35.17 0h22.58v22.58H37.17zm35.25 0H95v22.58H72.42zM2 38.63h22.58v22.58H2zm35.17 0h22.58v22.58H37.17zm35.25 0H95v22.58H72.42zM2 74h22.58v22.58H2zm35.17 0h22.58v22.58H37.17zm35.25 0H95v22.58H72.42z"/></symbol><symbol id="cog" viewBox="0 0 64 64"><path d="M36.571 32q0-3.786-2.679-6.464t-6.464-2.679-6.464 2.679T18.285 32t2.679 6.464 6.464 2.679 6.464-2.679T36.571 32zm18.286-3.893v7.929q0 .429-.286.821t-.714.464l-6.607 1q-.679 1.929-1.393 3.25 1.25 1.786 3.821 4.929.357.429.357.893t-.321.821q-.964 1.321-3.536 3.857t-3.357 2.536q-.429 0-.929-.321l-4.929-3.857q-1.571.821-3.25 1.357-.571 4.857-1.036 6.643-.25 1-1.286 1h-7.929q-.5 0-.875-.304t-.411-.768l-1-6.571q-1.75-.571-3.214-1.321l-5.036 3.821q-.357.321-.893.321-.5 0-.893-.393-4.5-4.071-5.893-6-.25-.357-.25-.821 0-.429.286-.821.536-.75 1.821-2.375t1.929-2.518q-.964-1.786-1.464-3.536l-6.536-.964q-.464-.071-.75-.446t-.286-.839v-7.929q0-.429.286-.821t.679-.464l6.643-1q.5-1.643 1.393-3.286-1.429-2.036-3.821-4.929-.357-.429-.357-.857 0-.357.321-.821.929-1.286 3.518-3.839t3.375-2.554q.464 0 .929.357l4.929 3.821q1.571-.821 3.25-1.357.571-4.857 1.036-6.643.25-1 1.286-1h7.929q.5 0 .875.304t.411.768l1 6.571q1.75.571 3.214 1.321l5.071-3.821q.321-.321.857-.321.464 0 .893.357 4.607 4.25 5.893 6.071.25.286.25.786 0 .429-.286.821-.536.75-1.821 2.375t-1.929 2.518q.929 1.786 1.464 3.5l6.536 1q.464.071.75.446t.286.839z"/></symbol><symbol id="cogs" viewBox="0 0 69 64"><path d="M32 32q0-3.786-2.679-6.464t-6.464-2.679-6.464 2.679T13.714 32t2.679 6.464 6.464 2.679 6.464-2.679T32 32zm27.429 18.286q0-1.857-1.357-3.214t-3.214-1.357-3.214 1.357-1.357 3.214q0 1.893 1.339 3.232t3.232 1.339 3.232-1.339 1.339-3.232zm0-36.572q0-1.857-1.357-3.214t-3.214-1.357-3.214 1.357-1.357 3.214q0 1.893 1.339 3.232t3.232 1.339 3.232-1.339 1.339-3.232zM45.714 28.75v6.607q0 .357-.25.696t-.571.375l-5.536.857q-.393 1.25-1.143 2.714 1.214 1.714 3.214 4.107.25.393.25.714 0 .429-.25.679-.821 1.071-2.946 3.196t-2.804 2.125q-.393 0-.75-.25l-4.107-3.214q-1.321.679-2.75 1.107-.393 3.857-.821 5.536-.25.857-1.071.857h-6.643q-.393 0-.714-.268t-.357-.625l-.821-5.464q-1.214-.357-2.679-1.107l-4.214 3.179q-.25.25-.714.25-.393 0-.75-.286-5.143-4.75-5.143-5.714 0-.321.25-.679.357-.5 1.464-1.893t1.679-2.179q-.821-1.571-1.25-2.929l-5.429-.857q-.357-.036-.607-.339t-.25-.696v-6.607q0-.357.25-.696t.571-.375l5.536-.857q.393-1.25 1.143-2.714-1.214-1.714-3.214-4.107-.25-.393-.25-.714 0-.429.25-.714.786-1.071 2.929-3.179t2.821-2.107q.393 0 .75.25l4.107 3.214q1.214-.643 2.75-1.143.393-3.857.821-5.5.25-.857 1.071-.857h6.643q.393 0 .714.268t.357.625l.821 5.464q1.214.357 2.679 1.107l4.214-3.179q.286-.25.714-.25.393 0 .75.286 5.143 4.75 5.143 5.714 0 .286-.25.679-.429.571-1.5 1.929t-1.607 2.143q.821 1.714 1.214 2.929l5.429.821q.357.071.607.375t.25.696zm22.857 19.036v5q0 .571-5.321 1.107-.429.964-1.071 1.857Q64 59.786 64 60.679q0 .143-.143.25-4.357 2.536-4.429 2.536-.286 0-1.643-1.679t-1.857-2.429q-.714.071-1.071.071t-1.071-.071q-.5.75-1.857 2.429t-1.643 1.679q-.071 0-4.429-2.536-.143-.107-.143-.25 0-.893 1.821-4.929-.643-.893-1.071-1.857-5.321-.536-5.321-1.107v-5q0-.571 5.321-1.107.464-1.036 1.071-1.857-1.821-4.036-1.821-4.929 0-.143.143-.25.143-.071 1.25-.714t2.107-1.214 1.071-.571q.286 0 1.643 1.661t1.857 2.411q.714-.071 1.071-.071t1.071.071q1.821-2.536 3.286-4l.214-.071q.143 0 4.429 2.5.143.107.143.25 0 .893-1.821 4.929.607.821 1.071 1.857 5.321.536 5.321 1.107zm0-36.572v5q0 .571-5.321 1.107-.429.964-1.071 1.857Q64 23.214 64 24.107q0 .143-.143.25-4.357 2.536-4.429 2.536-.286 0-1.643-1.679t-1.857-2.429q-.714.071-1.071.071t-1.071-.071q-.5.75-1.857 2.429t-1.643 1.679q-.071 0-4.429-2.536-.143-.107-.143-.25 0-.893 1.821-4.929-.643-.893-1.071-1.857-5.321-.536-5.321-1.107v-5q0-.571 5.321-1.107.464-1.036 1.071-1.857-1.821-4.036-1.821-4.929 0-.143.143-.25Q46 3 47.107 2.357t2.107-1.214 1.071-.571q.286 0 1.643 1.661t1.857 2.411q.714-.071 1.071-.071t1.071.071q1.821-2.536 3.286-4l.214-.071q.143 0 4.429 2.5.143.107.143.25 0 .893-1.821 4.929.607.821 1.071 1.857 5.321.536 5.321 1.107z"/></symbol><symbol id="comment" viewBox="0 0 64 64"><path d="M64 32q0 6.214-4.286 11.482t-11.643 8.321T32 54.857q-2.5 0-5.179-.286-7.071 6.25-16.429 8.643-1.75.5-4.071.786-.607.071-1.089-.321t-.625-1.036v-.036q-.107-.143-.018-.429t.071-.357.161-.339l.214-.321.25-.304.286-.321q.25-.286 1.107-1.232t1.232-1.357 1.107-1.411 1.161-1.821.964-2.107.929-2.714q-5.607-3.179-8.839-7.857T0 32.001q0-4.643 2.536-8.875t6.821-7.304 10.214-4.875T32 9.143q8.714 0 16.071 3.054t11.643 8.321T64 32z"/></symbol><symbol id="comments" viewBox="0 0 64 64"><path d="M50.286 27.429q0 4.964-3.357 9.179t-9.161 6.661-12.625 2.446q-3.071 0-6.286-.571-4.429 3.143-9.929 4.571-1.286.321-3.071.571H5.75q-.393 0-.732-.286t-.411-.75q-.036-.107-.036-.232t.018-.232.071-.214l.089-.179.125-.196.143-.179.161-.179.143-.161q.179-.214.821-.893t.929-1.054.804-1.036.893-1.375.732-1.571q-4.429-2.571-6.964-6.321t-2.536-8q0-4.964 3.357-9.179t9.161-6.661 12.625-2.446 12.625 2.446 9.161 6.661 3.357 9.179zM64 36.571q0 4.286-2.536 8.018T54.5 50.893q.357.857.732 1.571t.893 1.375.804 1.036.929 1.054.821.893q.036.036.143.161t.161.179.143.179.125.196l.089.179.071.214.018.232-.036.232q-.107.5-.464.786t-.786.25q-1.786-.25-3.071-.571-5.5-1.429-9.929-4.571-3.214.571-6.286.571-9.679 0-16.857-4.714 2.071.143 3.143.143 5.75 0 11.036-1.607t9.429-4.607q4.464-3.286 6.857-7.571t2.393-9.071q0-2.75-.821-5.429 4.607 2.536 7.286 6.357t2.679 8.214z"/></symbol><symbol id="comments_alt" viewBox="0 0 64 64"><path d="M25.143 13.714q-5.464 0-10.214 1.857t-7.554 5.036-2.804 6.821q0 2.929 1.893 5.643t5.321 4.714l3.464 2-1.25 3q1.214-.714 2.214-1.393l1.571-1.107 1.893.357q2.786.5 5.464.5 5.464 0 10.214-1.857t7.554-5.036 2.804-6.821-2.804-6.821-7.554-5.036-10.214-1.857zm0-4.571q6.821 0 12.625 2.446t9.161 6.661 3.357 9.179-3.357 9.179-9.161 6.661-12.625 2.446q-3.071 0-6.286-.571-4.429 3.143-9.929 4.571-1.286.321-3.071.571H5.75q-.393 0-.732-.286t-.411-.75q-.036-.107-.036-.232t.018-.232.071-.214l.089-.179.125-.196.143-.179.161-.179.143-.161q.179-.214.821-.893t.929-1.054.804-1.036.893-1.375.732-1.571q-4.429-2.571-6.964-6.321t-2.536-8q0-4.964 3.357-9.179t9.161-6.661 12.625-2.446zM54.5 50.893q.357.857.732 1.571t.893 1.375.804 1.036.929 1.054.821.893q.036.036.143.161t.161.179.143.179.125.196l.089.179.071.214.018.232-.036.232q-.107.5-.464.786t-.786.25q-1.786-.25-3.071-.571-5.5-1.429-9.929-4.571-3.214.571-6.286.571-9.679 0-16.857-4.714 2.071.143 3.143.143 5.75 0 11.036-1.607t9.429-4.607q4.464-3.286 6.857-7.571t2.393-9.071q0-2.75-.821-5.429 4.607 2.536 7.286 6.357t2.679 8.214q0 4.286-2.536 8.018t-6.964 6.304z"/></symbol><symbol id="comment_alt" viewBox="0 0 64 64"><path d="M32 13.714q-7.286 0-13.625 2.482T8.304 22.892t-3.732 9.107q0 4 2.554 7.625t7.196 6.268l3.107 1.786-.964 3.429q-.857 3.25-2.5 6.143 5.429-2.25 9.821-6.107l1.536-1.357 2.036.214q2.464.286 4.643.286 7.286 0 13.625-2.482t10.071-6.696 3.732-9.107-3.732-9.107-10.071-6.696-13.625-2.482zM64 32q0 6.214-4.286 11.482t-11.643 8.321T32 54.857q-2.5 0-5.179-.286-7.071 6.25-16.429 8.643-1.75.5-4.071.786h-.179q-.536 0-.964-.375t-.571-.982v-.036q-.107-.143-.018-.429t.071-.357.161-.339l.214-.321.25-.304.286-.321q.25-.286 1.107-1.232t1.232-1.357 1.107-1.411 1.161-1.821.964-2.107.929-2.714q-5.607-3.179-8.839-7.857T0 32.001q0-6.214 4.286-11.482t11.643-8.321T32 9.144t16.071 3.054 11.643 8.321T64 32.001z"/></symbol><symbol id="compare" viewBox="0 0 51 43.9"><path d="M33.2 24.5L23 14.3 33.2 4v8H51v5H33.2v7.7zM17.8 27v-7.6L28 29.6 17.8 39.8V32H0v-5z"/></symbol><symbol id="credit_card" viewBox="0 0 69 64"><path d="M62.857 4.571q2.357 0 4.036 1.679t1.679 4.036v43.429q0 2.357-1.679 4.036t-4.036 1.679H5.714q-2.357 0-4.036-1.679t-1.679-4.036V10.286q0-2.357 1.679-4.036t4.036-1.679h57.143zM5.714 9.143q-.464 0-.804.339t-.339.804v8H64v-8q0-.464-.339-.804t-.804-.339H5.714zm57.143 45.714q.464 0 .804-.339t.339-.804V32H4.571v21.714q0 .464.339.804t.804.339h57.143zM9.143 50.286v-4.571h9.143v4.571H9.143zm13.714 0v-4.571h13.714v4.571H22.857z"/></symbol><symbol id="electro_zamok" viewBox="0 0 101 101"><path fill="none" stroke="#000" stroke-miterlimit="10" stroke-width="4" d="M68.44 74.3v17.31h-57V9.39h57V42.3"/><rect x="39.16" y="42.3" width="53" height="32" rx="3.75" ry="3.75" fill="none" stroke="#000" stroke-miterlimit="10" stroke-width="4"/><path fill="none" stroke="#000" stroke-miterlimit="10" stroke-width="4" d="M39.94 50.5h52.22"/></symbol><symbol id="ellipsis_vertical" viewBox="0 0 14 64"><path d="M13.714 44.571v6.857q0 1.429-1 2.429t-2.429 1H3.428q-1.429 0-2.429-1t-1-2.429v-6.857q0-1.429 1-2.429t2.429-1h6.857q1.429 0 2.429 1t1 2.429zm0-18.285v6.857q0 1.429-1 2.429t-2.429 1H3.428q-1.429 0-2.429-1t-1-2.429v-6.857q0-1.429 1-2.429t2.429-1h6.857q1.429 0 2.429 1t1 2.429zm0-18.286v6.857q0 1.429-1 2.429t-2.429 1H3.428q-1.429 0-2.429-1t-1-2.429V8q0-1.429 1-2.429t2.429-1h6.857q1.429 0 2.429 1t1 2.429z"/></symbol><symbol id="envelope" viewBox="0 0 64 64"><path d="M59.429 53.714V26.285q-1.143 1.286-2.464 2.357-9.571 7.357-15.214 12.071-1.821 1.536-2.964 2.393t-3.089 1.732-3.661.875h-.071q-1.714 0-3.661-.875t-3.089-1.732-2.964-2.393q-5.643-4.714-15.214-12.071-1.321-1.071-2.464-2.357v27.429q0 .464.339.804t.804.339h52.571q.464 0 .804-.339t.339-.804zm0-37.535v-.875l-.018-.464-.107-.446-.196-.321-.321-.268-.5-.089H5.716q-.464 0-.804.339t-.339.804q0 6 5.25 10.143 6.893 5.429 14.321 11.321.214.179 1.25 1.054t1.643 1.339 1.589 1.125 1.804.982 1.536.321h.071q.714 0 1.536-.321t1.804-.982 1.589-1.125 1.643-1.339 1.25-1.054q7.429-5.893 14.321-11.321 1.929-1.536 3.589-4.125t1.661-4.696zM64 14.857v38.857q0 2.357-1.679 4.036t-4.036 1.679H5.714q-2.357 0-4.036-1.679t-1.679-4.036V14.857q0-2.357 1.679-4.036t4.036-1.679h52.571q2.357 0 4.036 1.679T64 14.857z"/></symbol><symbol id="envelope_alt" viewBox="0 0 64 64"><path d="M64 25.357v28.357q0 2.357-1.679 4.036t-4.036 1.679H5.714q-2.357 0-4.036-1.679t-1.679-4.036V25.357q1.571 1.75 3.607 3.107 12.929 8.786 17.75 12.321 2.036 1.5 3.304 2.339t3.375 1.714 3.929.875h.071q1.821 0 3.929-.875t3.375-1.714 3.304-2.339q6.071-4.393 17.786-12.321 2.036-1.393 3.571-3.107zm0-10.5q0 2.821-1.75 5.393t-4.357 4.393Q44.464 33.964 41.179 36.25q-.357.25-1.518 1.089t-1.929 1.357-1.857 1.161-2.054.964-1.786.321h-.071q-.821 0-1.786-.321t-2.054-.964-1.857-1.161-1.929-1.357-1.518-1.089q-3.25-2.286-9.357-6.518t-7.321-5.089q-2.214-1.5-4.179-4.125t-1.964-4.875q0-2.786 1.482-4.643t4.232-1.857h52.571q2.321 0 4.018 1.679t1.696 4.036z"/></symbol><symbol id="equalizer" viewBox="0 0 32 32"><path d="M14 4v-.5c0-.825-.675-1.5-1.5-1.5h-5C6.675 2 6 2.675 6 3.5V4H0v4h6v.5c0 .825.675 1.5 1.5 1.5h5c.825 0 1.5-.675 1.5-1.5V8h18V4H14zM8 8V4h4v4H8zm18 5.5c0-.825-.675-1.5-1.5-1.5h-5c-.825 0-1.5.675-1.5 1.5v.5H0v4h18v.5c0 .825.675 1.5 1.5 1.5h5c.825 0 1.5-.675 1.5-1.5V18h6v-4h-6v-.5zM20 18v-4h4v4h-4zm-6 5.5c0-.825-.675-1.5-1.5-1.5h-5c-.825 0-1.5.675-1.5 1.5v.5H0v4h6v.5c0 .825.675 1.5 1.5 1.5h5c.825 0 1.5-.675 1.5-1.5V28h18v-4H14v-.5zM8 28v-4h4v4H8z"/></symbol><symbol id="equalizer2" viewBox="0 0 32 32"><path d="M28 14h.5c.825 0 1.5-.675 1.5-1.5v-5c0-.825-.675-1.5-1.5-1.5H28V0h-4v6h-.5c-.825 0-1.5.675-1.5 1.5v5c0 .825.675 1.5 1.5 1.5h.5v18h4V14zm-4-6h4v4h-4V8zm-5.5 18c.825 0 1.5-.675 1.5-1.5v-5c0-.825-.675-1.5-1.5-1.5H18V0h-4v18h-.5c-.825 0-1.5.675-1.5 1.5v5c0 .825.675 1.5 1.5 1.5h.5v6h4v-6h.5zM14 20h4v4h-4v-4zm-5.5-6c.825 0 1.5-.675 1.5-1.5v-5C10 6.675 9.325 6 8.5 6H8V0H4v6h-.5C2.675 6 2 6.675 2 7.5v5c0 .825.675 1.5 1.5 1.5H4v18h4V14h.5zM4 8h4v4H4V8z"/></symbol><symbol id="exclamation_sign" viewBox="0 0 64 64"><path d="M27.429 4.571q7.464 0 13.768 3.679t9.982 9.982T54.858 32t-3.679 13.768-9.982 9.982-13.768 3.679-13.768-3.679-9.982-9.982T0 32t3.679-13.768 9.982-9.982 13.768-3.679zM32 49.107v-6.786q0-.5-.321-.839t-.786-.339h-6.857q-.464 0-.821.357t-.357.821v6.786q0 .464.357.821t.821.357h6.857q.464 0 .786-.339t.321-.839zm-.071-12.286l.643-22.179q0-.429-.357-.643-.357-.286-.857-.286h-7.857q-.5 0-.857.286-.357.214-.357.643l.607 22.179q0 .357.357.625t.857.268h6.607q.5 0 .839-.268t.375-.625z"/></symbol><symbol id="eye" viewBox="0 0 32 32"><path d="M16 6C9.021 6 2.972 10.064 0 16c2.972 5.936 9.021 10 16 10s13.027-4.064 16-10c-2.972-5.936-9.021-10-16-10zm7.889 5.303A15.212 15.212 0 0 1 28.559 16a15.223 15.223 0 0 1-4.67 4.697C21.527 22.204 18.799 23 16 23s-5.527-.796-7.889-2.303A15.212 15.212 0 0 1 3.441 16a15.223 15.223 0 0 1 5.041-4.925 8 8 0 1 0 15.036 0c.124.074.248.15.371.228zM16 13a3 3 0 1 1-6 0 3 3 0 0 1 6 0z"/></symbol><symbol id="facebook" viewBox="0 0 37 64"><path d="M34.25.429v9.429h-5.607q-3.071 0-4.143 1.286t-1.071 3.857v6.75h10.464L32.5 32.322h-9.071v27.107H12.5V32.322H3.393V21.751H12.5v-7.786q0-6.643 3.714-10.304T26.107 0q5.25 0 8.143.429z"/></symbol><symbol id="facebook_sign" viewBox="0 0 64 64"><path d="M44.571 4.571q4.25 0 7.268 3.018t3.018 7.268v34.286q0 4.25-3.018 7.268t-7.268 3.018h-6.714v-21.25h7.107l1.071-8.286h-8.179v-5.286q0-2 .839-3t3.268-1l4.357-.036v-7.393q-2.25-.321-6.357-.321-4.857 0-7.768 2.857t-2.911 8.071v6.107h-7.143v8.286h7.143v21.25h-19q-4.25 0-7.268-3.018t-3.018-7.268V14.856q0-4.25 3.018-7.268t7.268-3.018H44.57z"/></symbol><symbol id="file-pdf" viewBox="0 0 32 32"><path d="M26.313 18.421c-.427-.42-1.372-.643-2.812-.662-.974-.011-2.147.075-3.38.248-.552-.319-1.122-.665-1.568-1.083-1.202-1.122-2.205-2.68-2.831-4.394.041-.16.075-.301.108-.444 0 0 .677-3.846.498-5.146a1.526 1.526 0 0 0-.088-.369l-.059-.151c-.184-.425-.545-.875-1.111-.85l-.341-.011c-.631 0-1.146.323-1.281.805-.411 1.514.013 3.778.781 6.711l-.197.478c-.55 1.34-1.238 2.689-1.846 3.88l-.079.155a65.82 65.82 0 0 1-1.745 3.213l-.543.287c-.04.021-.97.513-1.188.645-1.852 1.106-3.079 2.361-3.282 3.357-.065.318-.017.725.313.913l.525.264c.228.114.468.172.714.172 1.319 0 2.85-1.643 4.959-5.324a49.318 49.318 0 0 1 7.638-1.815c1.852 1.043 4.129 1.767 5.567 1.767.255 0 .475-.024.654-.072a1.11 1.11 0 0 0 .65-.444c.279-.42.335-.998.26-1.59-.023-.176-.163-.393-.315-.541zM6.614 25.439c.241-.658 1.192-1.958 2.6-3.111.088-.072.306-.276.506-.466-1.472 2.348-2.458 3.283-3.106 3.577zM14.951 6.24c.424 0 .665 1.069.685 2.07s-.214 1.705-.505 2.225c-.241-.77-.357-1.984-.357-2.778 0 0-.018-1.517.177-1.517zm-2.487 13.682c.295-.529.603-1.086.917-1.677a31.984 31.984 0 0 0 1.609-3.511c.716 1.303 1.608 2.41 2.656 3.297.131.111.269.222.415.333-2.132.422-3.974.935-5.596 1.558zm13.439-.12c-.13.081-.502.128-.741.128-.772 0-1.727-.353-3.066-.927.515-.038.986-.057 1.409-.057.774 0 1.004-.003 1.761.19s.767.585.637.667z"/><path d="M28.681 7.159c-.694-.947-1.662-2.053-2.724-3.116s-2.169-2.03-3.116-2.724C21.229.137 20.448 0 20 0H4.5A2.503 2.503 0 0 0 2 2.5v27C2 30.878 3.121 32 4.5 32h23c1.378 0 2.5-1.122 2.5-2.5V10c0-.448-.137-1.23-1.319-2.841zm-4.138-1.702A27.334 27.334 0 0 1 26.811 8H22V3.189a27.334 27.334 0 0 1 2.543 2.268zM28 29.5c0 .271-.229.5-.5.5h-23a.507.507 0 0 1-.5-.5v-27c0-.271.229-.5.5-.5H20v7a1 1 0 0 0 1 1h7v19.5z"/></symbol><symbol id="filter" viewBox="0 0 32 32"><path d="M32 4.906c0 3.765-10.101 12.581-11.987 16.347v7.789c0 .021-.012.036-.014.057V30A2 2 0 0 1 18 32h-4a2 2 0 0 1-2-2v-.899c-.002-.021-.015-.036-.015-.059v-7.789C10.102 17.487 0 8.671 0 4.906h.029C.023 4.864 0 4.828 0 4.788 0 2.647 7.167 0 16 0s16 2.647 16 4.788c0 .04-.023.076-.03.118H32zM16.17 1.984c-7.751 0-14.184 1.245-14.184 3.528 0 2.282 6.433 4.505 14.184 4.505 7.752 0 13.81-2.223 13.81-4.505-.001-2.283-6.058-3.528-13.81-3.528z"/></symbol><symbol id="flat" viewBox="0 0 101 101"><path fill="none" stroke="#000" stroke-miterlimit="10" stroke-width="4" d="M39.55 34.71v8.8M2.4 54.86h96.2v33.39H2.4z"/><path fill="none" stroke="#000" stroke-miterlimit="10" stroke-width="4" d="M14.5 12.75h31.75v42.11H14.5zm31.75 0H86.5v33H46.25zm20.12 0v33M86.5 25.58H66.37"/></symbol><symbol id="gift" viewBox="0 0 64 64"><path d="M33.143 48.429V22.858H21.714v25.571q0 .893.643 1.375t1.643.482h6.857q1 0 1.643-.482t.643-1.375zM16.857 18.286h6.964l-4.5-5.75q-.929-1.107-2.464-1.107-1.429 0-2.429 1t-1 2.429 1 2.429 2.429 1zm24.572-3.429q0-1.429-1-2.429t-2.429-1q-1.536 0-2.464 1.107l-4.464 5.75h6.929q1.429 0 2.429-1t1-2.429zM54.857 24v11.429q0 .5-.321.821t-.821.321h-3.429v14.857q0 1.429-1 2.429t-2.429 1H8q-1.429 0-2.429-1t-1-2.429V36.571H1.142q-.5 0-.821-.321T0 35.429V24q0-.5.321-.821t.821-.321h15.714q-3.321 0-5.661-2.339t-2.339-5.661 2.339-5.661 5.661-2.339q3.821 0 6 2.75l4.571 5.893 4.571-5.893q2.179-2.75 6-2.75 3.321 0 5.661 2.339t2.339 5.661-2.339 5.661-5.661 2.339h15.714q.5 0 .821.321t.321.821z"/></symbol><symbol id="group" viewBox="0 0 69 64"><path d="M21.179 32q-5.786.179-9.464 4.571H6.929Q4 36.571 2 35.125t-2-4.232q0-12.607 4.429-12.607.214 0 1.554.75t3.482 1.518 4.25.768q2.393 0 4.75-.821-.179 1.321-.179 2.357 0 4.964 2.893 9.143zm38.25 22.75q0 4.286-2.607 6.768T49.893 64H18.679q-4.321 0-6.929-2.482T9.143 54.75q0-1.893.125-3.696t.5-3.893.946-3.875 1.536-3.482 2.214-2.893T17.518 35t3.982-.714q.357 0 1.536.768t2.607 1.714 3.821 1.714 4.821.768 4.821-.768 3.821-1.714 2.607-1.714 1.536-.768q2.179 0 3.982.714t3.054 1.911 2.214 2.893 1.536 3.482.946 3.875.5 3.893.125 3.696zM22.857 9.143q0 3.786-2.679 6.464t-6.464 2.679-6.464-2.679-2.679-6.464T7.25 2.679 13.714 0t6.464 2.679 2.679 6.464zM48 22.857q0 5.679-4.018 9.696t-9.696 4.018-9.696-4.018-4.018-9.696 4.018-9.696 9.696-4.018 9.696 4.018T48 22.857zm20.571 8.036q0 2.786-2 4.232t-4.929 1.446h-4.786Q53.177 32.178 47.392 32q2.893-4.179 2.893-9.143 0-1.036-.179-2.357 2.357.821 4.75.821 2.107 0 4.25-.768t3.482-1.518 1.554-.75q4.429 0 4.429 12.607zM64 9.143q0 3.786-2.679 6.464t-6.464 2.679-6.464-2.679-2.679-6.464 2.679-6.464T54.857 0t6.464 2.679T64 9.143z"/></symbol><symbol id="heart" viewBox="0 0 64 64"><path d="M32 59.429q-.929 0-1.571-.643l-22.286-21.5q-.357-.286-.982-.929t-1.982-2.339-2.429-3.482-1.911-4.321T0 21.286Q0 13.429 4.536 9t12.536-4.429q2.214 0 4.518.768t4.286 2.071 3.411 2.446 2.714 2.429q1.286-1.286 2.714-2.429t3.411-2.446 4.286-2.071 4.518-.768q8 0 12.536 4.429t4.536 12.286q0 7.893-8.179 16.071l-22.25 21.429q-.643.643-1.571.643z"/></symbol><symbol id="home" viewBox="0 0 59 64"><path d="M50.286 35.429v17.143q0 .929-.679 1.607T48 54.858H34.286V41.144h-9.143v13.714H11.429q-.929 0-1.607-.679t-.679-1.607V35.429q0-.036.018-.107t.018-.107l20.536-16.929 20.536 16.929q.036.071.036.214zm7.964-2.465l-2.214 2.643q-.286.321-.75.393h-.107q-.464 0-.75-.25L29.715 15.143 5.001 35.75q-.429.286-.857.25-.464-.071-.75-.393L1.18 32.964q-.286-.357-.25-.839t.393-.768L27.002 9.964q1.143-.929 2.714-.929t2.714.929l8.714 7.286v-6.964q0-.5.321-.821t.821-.321h6.857q.5 0 .821.321t.321.821v14.571l7.821 6.5q.357.286.393.768t-.25.839z"/></symbol><symbol id="hospital" viewBox="0 0 101 101"><path fill="none" stroke="#000" stroke-miterlimit="10" stroke-width="4" d="M98.51 31.09H69.92V2.49H31.09v28.6H2.49v38.83h28.6v28.59h38.83V69.92h28.59V31.09z"/></symbol><symbol id="hotel" viewBox="0 0 101 101"><path fill="none" stroke="#000" stroke-miterlimit="10" stroke-width="4" d="M2.07 49.05h97V69.8h-97zm97-13.5V80.8m-97-60.6v60.6m6.99-32.95V46.2a4 4 0 0 1 4-4h22.75a4 4 0 0 1 4 4v1.65"/><path fill="none" stroke="#000" stroke-miterlimit="10" stroke-width="4" d="M43.93 47.85v12.82h56.5"/></symbol><symbol id="house" viewBox="0 0 101 101"><path fill="none" stroke="#000" stroke-linejoin="bevel" stroke-width="4" d="M99.5 48.29l-48.59-39-49.41 39h98z"/><path fill="none" stroke="#000" stroke-miterlimit="10" stroke-width="4" d="M10 48.89h81v42.82H10z"/><path fill="none" stroke="#000" stroke-miterlimit="10" stroke-width="4" d="M58.56 60.8h19v19h-19zm-35.12 0h19v30.91h-19z"/></symbol><symbol id="link" viewBox="0 0 59 64"><path d="M52 43.429Q52 42 51 41l-7.429-7.429q-1-1-2.429-1-1.5 0-2.571 1.143.107.107.679.661t.768.768.536.679.464.911.125.982q0 1.429-1 2.429t-2.429 1q-.536 0-.982-.125t-.911-.464-.679-.536-.768-.768-.661-.679q-1.179 1.107-1.179 2.607 0 1.429 1 2.429l7.357 7.393q.964.964 2.429.964 1.429 0 2.429-.929l5.25-5.214q1-1 1-2.393zM26.893 18.25q0-1.429-1-2.429l-7.357-7.393q-1-1-2.429-1-1.393 0-2.429.964l-5.25 5.214q-1 1-1 2.393 0 1.429 1 2.429l7.429 7.429q.964.964 2.429.964 1.5 0 2.571-1.107-.107-.107-.679-.661t-.768-.768-.536-.679-.464-.911-.125-.982q0-1.429 1-2.429t2.429-1q.536 0 .982.125t.911.464.679.536.768.768.661.679q1.179-1.107 1.179-2.607zm31.964 25.179q0 4.286-3.036 7.25l-5.25 5.214q-2.964 2.964-7.25 2.964-4.321 0-7.286-3.036l-7.357-7.393q-2.964-2.964-2.964-7.25 0-4.393 3.143-7.464l-3.143-3.143q-3.071 3.143-7.429 3.143-4.286 0-7.286-3L3.57 23.285q-3-3-3-7.286t3.036-7.25l5.25-5.214Q11.82.571 16.106.571q4.321 0 7.286 3.036L30.749 11q2.964 2.964 2.964 7.25 0 4.393-3.143 7.464l3.143 3.143q3.071-3.143 7.429-3.143 4.286 0 7.286 3l7.429 7.429q3 3 3 7.286z"/></symbol><symbol id="linkedin" viewBox="0 0 64 64"><path d="M12.464 22.321v35.393H.678V22.321h11.786zm.75-10.928Q13.25 14 11.41 15.75T6.571 17.5H6.5q-2.929 0-4.714-1.75T0 11.393Q0 8.75 1.839 7.018t4.804-1.732 4.75 1.732 1.821 4.375zm41.643 26.036v20.286h-11.75V38.786q0-3.75-1.446-5.875t-4.518-2.125q-2.25 0-3.768 1.232t-2.268 3.054q-.393 1.071-.393 2.893v19.75h-11.75q.071-14.25.071-23.107t-.036-10.571l-.036-1.714h11.75v5.143h-.071q.714-1.143 1.464-2t2.018-1.857 3.107-1.554 4.089-.554q6.107 0 9.821 4.054t3.714 11.875z"/></symbol><symbol id="linkedin_sign" viewBox="0 0 64 64"><path d="M8.464 50.5h8.25V25.714h-8.25V50.5zm8.786-32.429q-.036-1.857-1.286-3.071t-3.321-1.214T9.268 15t-1.304 3.071q0 1.821 1.268 3.054t3.304 1.232h.036q2.107 0 3.393-1.232t1.286-3.054zM38.143 50.5h8.25V36.286q0-5.5-2.607-8.321t-6.893-2.821q-4.857 0-7.464 4.179h.071v-3.607h-8.25q.107 2.357 0 24.786h8.25V36.645q0-1.357.25-2 .536-1.25 1.607-2.125T34 31.645q4.143 0 4.143 5.607v13.25zm16.714-35.643v34.286q0 4.25-3.018 7.268t-7.268 3.018H10.285q-4.25 0-7.268-3.018t-3.018-7.268V14.857q0-4.25 3.018-7.268t7.268-3.018h34.286q4.25 0 7.268 3.018t3.018 7.268z"/></symbol><symbol id="list_one" viewBox="0 0 50 46"><path d="M.5.5h11v11H.5z"/><path d="M11 1v10H1V1h10m1-1H0v12h12V0zM.5 17.5h11v11H.5z"/><path d="M11 18v10H1V18h10m1-1H0v12h12V17zM.5 34.5h11v11H.5z"/><path d="M11 35v10H1V35h10m1-1H0v12h12V34zM19.5.5h30v11h-30z"/><path d="M49 1v10H20V1h29m1-1H19v12h31V0zM19.5 17.5h30v11h-30z"/><path d="M49 18v10H20V18h29m1-1H19v12h31V17zM19.5 34.5h30v11h-30z"/><path d="M49 35v10H20V35h29m1-1H19v12h31V34z"/></symbol><symbol id="list_two" viewBox="0 0 50 46"><path d="M.5.5h11v11H.5z"/><path d="M11 1v10H1V1h10m1-1H0v12h12V0zM.5 17.5h11v11H.5z"/><path d="M11 18v10H1V18h10m1-1H0v12h12V17zM.5 34.5h11v11H.5z"/><path d="M11 35v10H1V35h10m1-1H0v12h12V34zM19.5.5h11v11h-11z"/><path d="M30 1v10H20V1h10m1-1H19v12h12V0zM19.5 17.5h11v11h-11z"/><path d="M30 18v10H20V18h10m1-1H19v12h12V17zM19.5 34.5h11v11h-11z"/><path d="M30 35v10H20V35h10m1-1H19v12h12V34zM38.5.5h11v11h-11z"/><path d="M49 1v10H39V1h10m1-1H38v12h12V0zM38.5 17.5h11v11h-11z"/><path d="M49 18v10H39V18h10m1-1H38v12h12V17zM38.5 34.5h11v11h-11z"/><path d="M49 35v10H39V35h10m1-1H38v12h12V34z"/></symbol><symbol id="lock" viewBox="0 0 41 64"><path d="M11.429 27.429h18.286v-6.857q0-3.786-2.679-6.464t-6.464-2.679-6.464 2.679-2.679 6.464v6.857zm29.714 3.428v20.571q0 1.429-1 2.429t-2.429 1H3.428q-1.429 0-2.429-1t-1-2.429V30.857q0-1.429 1-2.429t2.429-1h1.143v-6.857q0-6.571 4.714-11.286t11.286-4.714 11.286 4.714 4.714 11.286v6.857h1.143q1.429 0 2.429 1t1 2.429z"/></symbol><symbol id="map_marker" viewBox="0 0 37 64"><path d="M27.429 22.857q0-3.786-2.679-6.464t-6.464-2.679-6.464 2.679-2.679 6.464 2.679 6.464T18.286 32t6.464-2.679 2.679-6.464zm9.142 0q0 3.893-1.179 6.393l-13 27.643q-.571 1.179-1.696 1.857t-2.411.679-2.411-.679-1.661-1.857L1.177 29.25q-1.179-2.5-1.179-6.393 0-7.571 5.357-12.929t12.929-5.357 12.929 5.357 5.357 12.929z"/></symbol><symbol id="office" viewBox="0 0 101 101"><path fill="none" stroke="#000" stroke-linejoin="bevel" stroke-width="4" d="M50.5 18.29L61.06 1.77H39.94L50.5 18.29z"/><path fill="none" stroke="#000" stroke-linejoin="bevel" stroke-width="4" d="M67.23 74.97L50.5 15.57l-16.73 59.4L50.5 99.23l16.73-24.26z"/></symbol><symbol id="ok" viewBox="0 0 64 64"><path d="M59.679 20.214q0 1.429-1 2.429L27.965 53.357q-1 1-2.429 1t-2.429-1L5.321 35.571q-1-1-1-2.429t1-2.429l4.857-4.857q1-1 2.429-1t2.429 1l10.5 10.536 23.429-23.464q1-1 2.429-1t2.429 1l4.857 4.857q1 1 1 2.429z"/></symbol><symbol id="paper_clip" viewBox="0 0 50 64"><path d="M50.143 49.464q0 4.179-2.821 7t-7 2.821q-4.821 0-8.393-3.571L4.179 28Q.143 23.893.143 18.321q0-5.679 3.929-9.643t9.607-3.964q5.643 0 9.75 4.036l21.607 21.643q.357.357.357.786 0 .571-1.089 1.661t-1.661 1.089q-.464 0-.821-.357L20.179 11.893q-2.821-2.75-6.464-2.75-3.786 0-6.393 2.679t-2.607 6.464q0 3.75 2.714 6.464L35.143 52.5q2.25 2.25 5.179 2.25 2.286 0 3.786-1.5t1.5-3.786q0-2.929-2.25-5.179l-20.75-20.75q-.929-.857-2.143-.857-1.036 0-1.714.679t-.679 1.714q0 1.143.893 2.107l14.643 14.643q.357.357.357.786 0 .571-1.107 1.679t-1.679 1.107q-.429 0-.786-.357L15.75 30.393q-2.25-2.179-2.25-5.321 0-2.929 2.036-4.964t4.964-2.036q3.143 0 5.321 2.25l20.75 20.75q3.571 3.5 3.571 8.393z"/></symbol><symbol id="phone" viewBox="0 0 50 64"><path d="M50.286 44.286q0 .964-.357 2.518t-.75 2.446q-.75 1.786-4.357 3.786-3.357 1.821-6.643 1.821-.964 0-1.893-.125t-2.054-.446-1.679-.518-1.982-.732-1.75-.643q-3.5-1.25-6.25-2.964-4.536-2.821-9.429-7.714t-7.714-9.429q-1.714-2.75-2.964-6.25-.107-.321-.643-1.75t-.732-1.982-.518-1.679-.446-2.054T0 16.678q0-3.286 1.821-6.643 2-3.607 3.786-4.357.893-.393 2.446-.75t2.518-.357q.5 0 .75.107.643.214 1.893 2.714.393.679 1.071 1.929t1.25 2.268 1.107 1.911q.107.143.625.893t.768 1.268.25 1.018q0 .714-1.018 1.786t-2.214 1.964-2.214 1.893-1.018 1.643q0 .321.179.804t.304.732.5.857.411.679q2.714 4.893 6.214 8.393t8.393 6.214q.071.036.679.411t.857.5.732.304.804.179q.643 0 1.643-1.018t1.893-2.214 1.964-2.214 1.786-1.018q.5 0 1.018.25t1.268.768.893.625q.893.536 1.911 1.107t2.268 1.25 1.929 1.071q2.5 1.25 2.714 1.893.107.25.107.75z"/></symbol><symbol id="picture" viewBox="0 0 69 64"><path d="M22.857 20.571q0 2.857-2 4.857t-4.857 2-4.857-2-2-4.857 2-4.857 4.857-2 4.857 2 2 4.857zm36.572 13.715v16H9.143v-6.857L20.572 32l5.714 5.714 18.286-18.286zm3.428-25.143H5.714q-.464 0-.804.339t-.339.804v43.429q0 .464.339.804t.804.339h57.143q.464 0 .804-.339t.339-.804V10.286q0-.464-.339-.804t-.804-.339zm5.714 1.143v43.429q0 2.357-1.679 4.036t-4.036 1.679H5.713q-2.357 0-4.036-1.679t-1.679-4.036V10.286q0-2.357 1.679-4.036t4.036-1.679h57.143q2.357 0 4.036 1.679t1.679 4.036z"/></symbol><symbol id="quote_left" viewBox="0 0 59 64"><path d="M27.429 34.286V48q0 2.857-2 4.857t-4.857 2H6.858q-2.857 0-4.857-2T.001 48V22.857q0-3.714 1.446-7.089t3.911-5.839 5.839-3.911 7.089-1.446h2.286q.929 0 1.607.679t.679 1.607v4.571q0 .929-.679 1.607t-1.607.679h-2.286q-3.786 0-6.464 2.679t-2.679 6.464v1.143q0 1.429 1 2.429t2.429 1h8q2.857 0 4.857 2t2 4.857zm32 0V48q0 2.857-2 4.857t-4.857 2H38.858q-2.857 0-4.857-2t-2-4.857V22.857q0-3.714 1.446-7.089t3.911-5.839 5.839-3.911 7.089-1.446h2.286q.929 0 1.607.679t.679 1.607v4.571q0 .929-.679 1.607t-1.607.679h-2.286q-3.786 0-6.464 2.679t-2.679 6.464v1.143q0 1.429 1 2.429t2.429 1h8q2.857 0 4.857 2t2 4.857z"/></symbol><symbol id="refresh" viewBox="0 0 64 64"><path d="M53.964 37.714q0 .179-.036.25-2.286 9.571-9.571 15.518t-17.071 5.946q-5.214 0-10.089-1.964t-8.696-5.607l-4.607 4.607q-.679.679-1.607.679T.68 56.464t-.679-1.607v-16q0-.929.679-1.607t1.607-.679h16q.929 0 1.607.679t.679 1.607-.679 1.607l-4.893 4.893q2.536 2.357 5.75 3.643t6.679 1.286q4.786 0 8.929-2.321t6.643-6.393q.393-.607 1.893-4.179.286-.821 1.071-.821h6.857q.464 0 .804.339t.339.804zm.893-28.571v16q0 .929-.679 1.607t-1.607.679h-16q-.929 0-1.607-.679t-.679-1.607.679-1.607l4.929-4.929q-5.286-4.893-12.464-4.893-4.786 0-8.929 2.321t-6.643 6.393q-.393.607-1.893 4.179-.286.821-1.071.821H1.786q-.464 0-.804-.339t-.339-.804v-.25q2.321-9.571 9.643-15.518t17.143-5.946q5.214 0 10.143 1.982t8.75 5.589l4.643-4.607q.679-.679 1.607-.679t1.607.679.679 1.607z"/></symbol><symbol id="remove" viewBox="0 0 50 64"><path d="M46.357 47.214q0 1.429-1 2.429L40.5 54.5q-1 1-2.429 1t-2.429-1L25.142 44l-10.5 10.5q-1 1-2.429 1t-2.429-1l-4.857-4.857q-1-1-1-2.429t1-2.429l10.5-10.5-10.5-10.5q-1-1-1-2.429t1-2.429l4.857-4.857q1-1 2.429-1t2.429 1l10.5 10.5 10.5-10.5q1-1 2.429-1t2.429 1l4.857 4.857q1 1 1 2.429t-1 2.429l-10.5 10.5 10.5 10.5q1 1 1 2.429z"/></symbol><symbol id="reorder" viewBox="0 0 64 64"><path d="M54.857 48v4.571q0 .929-.679 1.607t-1.607.679H2.285q-.929 0-1.607-.679t-.679-1.607V48q0-.929.679-1.607t1.607-.679h50.286q.929 0 1.607.679T54.857 48zm0-18.286v4.571q0 .929-.679 1.607t-1.607.679H2.285q-.929 0-1.607-.679t-.679-1.607v-4.571q0-.929.679-1.607t1.607-.679h50.286q.929 0 1.607.679t.679 1.607zm0-18.285V16q0 .929-.679 1.607t-1.607.679H2.285q-.929 0-1.607-.679T-.001 16v-4.571q0-.929.679-1.607t1.607-.679h50.286q.929 0 1.607.679t.679 1.607z"/></symbol><symbol id="restoran" viewBox="0 0 101 101"><path fill="none" stroke="#000" stroke-linejoin="bevel" stroke-width="4" d="M89.94 80.04H11.06l-9.73-9.25h98.34l-9.73 9.25zM8.55 69.89a42 42 0 0 1 83.9 0M43.52 27.94a7 7 0 0 1 14 0"/></symbol><symbol id="rss" viewBox="0 0 50 64"><path d="M13.714 48q0 2.857-2 4.857t-4.857 2-4.857-2T0 48t2-4.857 4.857-2 4.857 2 2 4.857zM32 52.393q.071 1-.607 1.714-.643.75-1.679.75h-4.821q-.893 0-1.536-.589t-.714-1.482q-.786-8.179-6.589-13.982T2.072 32.215q-.893-.071-1.482-.714t-.589-1.536v-4.821q0-1.036.75-1.679.607-.607 1.536-.607h.179q5.714.464 10.929 2.875t9.25 6.482q4.071 4.036 6.482 9.25t2.875 10.929zm18.286.071q.071.964-.643 1.679-.643.714-1.643.714h-5.107q-.929 0-1.589-.625t-.696-1.518q-.429-7.679-3.607-14.589t-8.268-12-12-8.268-14.589-3.643q-.893-.036-1.518-.696t-.625-1.554V6.857q0-1 .714-1.643.643-.643 1.571-.643h.107q9.357.464 17.911 4.286t15.196 10.5Q42.179 26 46 34.553t4.286 17.911z"/></symbol><symbol id="search" viewBox="0 0 59 64"><path d="M41.143 29.714q0-6.607-4.696-11.304t-11.304-4.696-11.304 4.696-4.696 11.304 4.696 11.304 11.304 4.696 11.304-4.696 4.696-11.304zm18.286 29.715q0 1.857-1.357 3.214T54.858 64q-1.929 0-3.214-1.357l-12.25-12.214q-6.393 4.429-14.25 4.429-5.107 0-9.768-1.982T7.34 47.519t-5.357-8.036-1.982-9.768 1.982-9.768 5.357-8.036 8.036-5.357 9.768-1.982 9.768 1.982 8.036 5.357 5.357 8.036 1.982 9.768q0 7.857-4.429 14.25l12.25 12.25q1.321 1.321 1.321 3.214z"/></symbol><symbol id="shopping_cart" viewBox="0 0 59 64"><path d="M22.857 54.857q0 1.857-1.357 3.214t-3.214 1.357-3.214-1.357-1.357-3.214 1.357-3.214 3.214-1.357 3.214 1.357 1.357 3.214zm32 0q0 1.857-1.357 3.214t-3.214 1.357-3.214-1.357-1.357-3.214 1.357-3.214 3.214-1.357 3.214 1.357 1.357 3.214zM59.429 16v18.286q0 .857-.589 1.518t-1.446.768l-37.286 4.357q.464 2.143.464 2.5 0 .571-.857 2.286h32.857q.929 0 1.607.679t.679 1.607-.679 1.607-1.607.679H16.001q-.929 0-1.607-.679t-.679-1.607q0-.393.286-1.125t.571-1.286.768-1.429.554-1.054L9.573 13.714H2.287q-.929 0-1.607-.679t-.679-1.607.679-1.607 1.607-.679h9.143q.571 0 1.018.232t.696.554.464.875.286.929.196 1.054.161.929h42.893q.929 0 1.607.679t.679 1.607z"/></symbol><symbol id="signal" viewBox="0 0 64 64"><path d="M9.143 51.429v6.857q0 .5-.321.821t-.821.321H1.144q-.5 0-.821-.321t-.321-.821v-6.857q0-.5.321-.821t.821-.321h6.857q.5 0 .821.321t.321.821zm13.714-4.572v11.429q0 .5-.321.821t-.821.321h-6.857q-.5 0-.821-.321t-.321-.821V46.857q0-.5.321-.821t.821-.321h6.857q.5 0 .821.321t.321.821zm13.714-9.143v20.571q0 .5-.321.821t-.821.321h-6.857q-.5 0-.821-.321t-.321-.821V37.714q0-.5.321-.821t.821-.321h6.857q.5 0 .821.321t.321.821zM50.286 24v34.286q0 .5-.321.821t-.821.321h-6.857q-.5 0-.821-.321t-.321-.821V24q0-.5.321-.821t.821-.321h6.857q.5 0 .821.321t.321.821zM64 5.714v52.571q0 .5-.321.821t-.821.321h-6.857q-.5 0-.821-.321t-.321-.821V5.714q0-.5.321-.821t.821-.321h6.857q.5 0 .821.321t.321.821z"/></symbol><symbol id="signin" viewBox="0 0 64 64"><path d="M42.286 32q0 .929-.679 1.607L22.178 53.036q-.679.679-1.607.679t-1.607-.679-.679-1.607V41.143h-16q-.929 0-1.607-.679t-.679-1.607V25.143q0-.929.679-1.607t1.607-.679h16V12.571q0-.929.679-1.607t1.607-.679 1.607.679l19.429 19.429q.679.679.679 1.607zm12.571-12.571v25.143q0 4.25-3.018 7.268t-7.268 3.018H33.142q-.464 0-.804-.339t-.339-.804q0-.143-.036-.714t-.018-.946.107-.839.357-.696.732-.232H44.57q2.357 0 4.036-1.679t1.679-4.036V19.43q0-2.357-1.679-4.036t-4.036-1.679H33.427l-.411-.036-.411-.107-.286-.196-.25-.321-.071-.482q0-.143-.036-.714t-.018-.946.107-.839.357-.696.732-.232h11.429q4.25 0 7.268 3.018t3.018 7.268z"/></symbol><symbol id="signout" viewBox="0 0 59 64"><path d="M22.857 51.429q0 .143.036.714t.018.946-.107.839-.357.696-.732.232H10.286q-4.25 0-7.268-3.018T0 44.57V19.427q0-4.25 3.018-7.268t7.268-3.018h11.429q.464 0 .804.339t.339.804q0 .143.036.714t.018.946-.107.839-.357.696-.732.232H10.287q-2.357 0-4.036 1.679t-1.679 4.036v25.143q0 2.357 1.679 4.036t4.036 1.679H21.43l.411.036.411.107.286.196.25.321.071.482zM56 32q0 .929-.679 1.607L35.892 53.036q-.679.679-1.607.679t-1.607-.679-.679-1.607V41.143h-16q-.929 0-1.607-.679t-.679-1.607V25.143q0-.929.679-1.607t1.607-.679h16V12.571q0-.929.679-1.607t1.607-.679 1.607.679l19.429 19.429Q56 31.072 56 32z"/></symbol><symbol id="sitemap" viewBox="0 0 64 64"><path d="M64 44.571V56q0 1.429-1 2.429t-2.429 1H49.142q-1.429 0-2.429-1t-1-2.429V44.571q0-1.429 1-2.429t2.429-1h3.429v-6.857H34.285v6.857h3.429q1.429 0 2.429 1t1 2.429V56q0 1.429-1 2.429t-2.429 1H26.285q-1.429 0-2.429-1t-1-2.429V44.571q0-1.429 1-2.429t2.429-1h3.429v-6.857H11.428v6.857h3.429q1.429 0 2.429 1t1 2.429V56q0 1.429-1 2.429t-2.429 1H3.428q-1.429 0-2.429-1t-1-2.429V44.571q0-1.429 1-2.429t2.429-1h3.429v-6.857q0-1.857 1.357-3.214t3.214-1.357h18.286v-6.857h-3.429q-1.429 0-2.429-1t-1-2.429V7.999q0-1.429 1-2.429t2.429-1h11.429q1.429 0 2.429 1t1 2.429v11.429q0 1.429-1 2.429t-2.429 1h-3.429v6.857h18.286q1.857 0 3.214 1.357t1.357 3.214v6.857h3.429q1.429 0 2.429 1t1 2.429z"/></symbol><symbol id="sklad" viewBox="0 0 101 101"><circle cx="30" cy="80.36" r="12.68" fill="none" stroke="#000" stroke-miterlimit="10" stroke-width="4"/><path fill="none" stroke="#000" stroke-miterlimit="10" stroke-width="4" d="M30 67.69V13.27L17.33 7.96m25.35 72.4H77.3l6.37 7.66M73.8 71.27h-33a1.53 1.53 0 0 1-1.53-1.53v-19H73.8zM39.3 20.04h34.5v20.5H39.3z"/></symbol><symbol id="skype" viewBox="0 0 64 64"><path d="M41.893 37.964q0-1.786-.696-3.268t-1.732-2.446-2.607-1.75-2.946-1.214-3.125-.821l-3.714-.857q-1.071-.25-1.571-.375t-1.25-.411-1.071-.571-.589-.75-.268-1.071q0-2.75 5.143-2.75 1.536 0 2.75.429t1.929 1.018 1.357 1.196 1.429 1.036 1.714.429q1.679 0 2.696-1.143t1.018-2.75q0-1.964-2-3.554t-5.071-2.411-6.5-.821q-2.429 0-4.714.554t-4.268 1.679-3.179 3.107-1.196 4.589q0 2.179.679 3.804t2 2.696 2.857 1.732 3.679 1.161l5.214 1.286q3.214.786 4 1.286 1.143.714 1.143 2.143 0 1.393-1.429 2.304t-3.75.911q-1.821 0-3.268-.571t-2.321-1.375-1.625-1.607-1.643-1.375-1.929-.571q-1.786 0-2.696 1.071t-.911 2.679q0 3.286 4.357 5.625t10.393 2.339q2.607 0 5-.661t4.375-1.911 3.161-3.339 1.179-4.696zm12.964 7.75q0 5.679-4.018 9.696t-9.696 4.018q-4.643 0-8.357-2.857-2.75.571-5.357.571-5.107 0-9.768-1.982t-8.036-5.357-5.357-8.036-1.982-9.768q0-2.607.571-5.357Q0 22.928 0 18.285q0-5.679 4.018-9.696t9.696-4.018q4.643 0 8.357 2.857 2.75-.571 5.357-.571 5.107 0 9.768 1.982t8.036 5.357 5.357 8.036T52.571 32q0 2.607-.571 5.357 2.857 3.714 2.857 8.357z"/></symbol><symbol id="spinner11" viewBox="0 0 32 32"><path d="M32 12H20l4.485-4.485C22.218 5.249 19.205 4 16 4S9.781 5.248 7.515 7.515C5.249 9.782 4 12.795 4 16s1.248 6.219 3.515 8.485C9.782 26.751 12.795 28 16 28s6.219-1.248 8.485-3.515c.189-.189.371-.384.546-.583l3.01 2.634A15.96 15.96 0 0 1 16 32C7.163 32 0 24.837 0 16S7.163 0 16 0c4.418 0 8.418 1.791 11.313 4.687L32 0v12z"/></symbol><symbol id="star" viewBox="0 0 59 64"><path d="M59.429 23.107q0 .786-.929 1.714L45.536 37.464l3.071 17.857q.036.25.036.714 0 .75-.375 1.268t-1.089.518q-.679 0-1.429-.429l-16.036-8.429-16.036 8.429q-.786.429-1.429.429-.75 0-1.125-.518t-.375-1.268q0-.214.071-.714l3.071-17.857-13-12.643q-.893-.964-.893-1.714 0-1.321 2-1.643l17.929-2.607 8.036-16.25q.679-1.464 1.75-1.464t1.75 1.464l8.036 16.25 17.929 2.607q2 .321 2 1.643z"/></symbol><symbol id="star_empty" viewBox="0 0 59 64"><path d="M40.607 35.857L51.536 25.25l-15.071-2.214-6.75-13.643-6.75 13.643L7.894 25.25l10.929 10.607-2.607 15.036 13.5-7.107 13.464 7.107zm18.822-12.75q0 .786-.929 1.714L45.536 37.464l3.071 17.857q.036.25.036.714 0 1.786-1.464 1.786-.679 0-1.429-.429l-16.036-8.429-16.036 8.429q-.786.429-1.429.429-.75 0-1.125-.518t-.375-1.268q0-.214.071-.714l3.071-17.857-13-12.643q-.893-.964-.893-1.714 0-1.321 2-1.643l17.929-2.607 8.036-16.25q.679-1.464 1.75-1.464t1.75 1.464l8.036 16.25 17.929 2.607q2 .321 2 1.643z"/></symbol><symbol id="store" viewBox="0 0 101 101"><path fill="none" stroke="#000" stroke-linejoin="bevel" stroke-width="4" d="M66.41 62.55H13.16L1.46 31.74l73.14-4.36-8.19 35.17z"/><path fill="none" stroke="#000" stroke-miterlimit="10" stroke-width="4" d="M16.7 72.91h57.9L87.43 15.9l12.11-3.66"/><circle cx="29.58" cy="84.41" r="4.34"/><circle cx="73.48" cy="84.41" r="4.34"/></symbol><symbol id="support" viewBox="0 0 101 101"><path fill="none" stroke="#000" stroke-miterlimit="10" stroke-width="4" d="M33.13 23.43l-8.4 8.39 3.08 11.47 11.47 3.08 8.39-8.4L44.6 26.5l-11.47-3.07z"/><path d="M21.8 20.49a20.37 20.37 0 0 0 22.53 33.08L70 79.21l.1.12A7.16 7.16 0 0 0 80.2 69.2l-.12-.1-25.46-25.51a20.36 20.36 0 0 0-32.82-23.1z" fill="none" stroke="#000" stroke-miterlimit="10" stroke-width="4"/></symbol><symbol id="thumbs_down_alt" viewBox="0 0 64 64"><path d="M9.143 16q0-.929-.679-1.607t-1.607-.679-1.607.679T4.571 16t.679 1.607 1.607.679 1.607-.679T9.143 16zm41.143 20.571q0-1.25-.768-2.893t-1.911-1.679q.536-.607.893-1.696t.357-1.982q0-2.464-1.893-4.25.643-1.107.643-2.464 0-1.321-.625-2.625t-1.696-1.875q.179-1.071.179-2 0-3.036-1.75-4.5t-4.857-1.464h-4.571q-4.679 0-12.214 2.607-.179.071-1.036.375t-1.268.446-1.25.411-1.357.393-1.179.232-1.125.107h-1.143v22.857h1.143q.571 0 1.268.321t1.429.964 1.375 1.268 1.429 1.571 1.232 1.518 1.125 1.464.821 1.071q1.964 2.429 2.75 3.25 1.464 1.536 2.125 3.911t1.089 4.482 1.357 3.036q3.429 0 4.571-1.679t1.143-5.179q0-2.107-1.714-5.732t-1.714-5.696h12.571q1.786 0 3.179-1.375t1.393-3.196zm4.571.036q0 3.679-2.714 6.393t-6.429 2.714h-6.286q1.714 3.536 1.714 6.857 0 4.214-1.25 6.643-1.25 2.464-3.643 3.625T30.856 64q-1.821 0-3.214-1.321-1.214-1.179-1.929-2.929t-.911-3.232-.625-3.018-1.107-2.286q-1.714-1.786-3.821-4.536-3.607-4.679-4.893-5.536H4.57q-1.893 0-3.232-1.339t-1.339-3.232V13.714q0-1.893 1.339-3.232T4.57 9.143h10.286q.786 0 4.929-1.429 4.571-1.571 7.964-2.357t7.143-.786h4q5 0 8.089 2.821t3.054 7.714v.179q2.143 2.75 2.143 6.357 0 .786-.107 1.536 1.357 2.393 1.357 5.143 0 1.286-.321 2.464 1.75 2.607 1.75 5.821z"/></symbol><symbol id="thumbs_up_alt" viewBox="0 0 64 64"><path d="M9.143 48q0-.929-.679-1.607t-1.607-.679-1.607.679T4.571 48t.679 1.607 1.607.679 1.607-.679T9.143 48zm41.143-20.571q0-1.821-1.393-3.196t-3.179-1.375H33.143q0-2.071 1.714-5.696t1.714-5.732q0-3.5-1.143-5.179t-4.571-1.679q-.929.929-1.357 3.036t-1.089 4.482-2.125 3.911q-.786.821-2.75 3.25-.143.179-.821 1.071t-1.125 1.464-1.232 1.518-1.429 1.571-1.375 1.268-1.429.964-1.268.321h-1.143v22.857h1.143q.464 0 1.125.107t1.179.232 1.357.393 1.25.411 1.268.446 1.036.375q7.536 2.607 12.214 2.607h4.321q6.857 0 6.857-5.964 0-.929-.179-2 1.071-.571 1.696-1.875t.625-2.625-.643-2.464q1.893-1.786 1.893-4.25 0-.893-.357-1.982T47.606 32q1.143-.036 1.911-1.679t.768-2.893zm4.571-.036q0 3.179-1.75 5.821.321 1.179.321 2.464 0 2.75-1.357 5.143.107.75.107 1.536 0 3.607-2.143 6.357.036 4.964-3.036 7.839t-8.107 2.875h-4.607q-3.429 0-6.768-.804t-7.732-2.339q-4.143-1.429-4.929-1.429H4.57q-1.893 0-3.232-1.339t-1.339-3.232V27.428q0-1.893 1.339-3.232t3.232-1.339h9.786q1.286-.857 4.893-5.536 2.071-2.679 3.821-4.571.857-.893 1.268-3.054t1.089-4.518 2.214-3.857Q29.034 0 30.855 0q3 0 5.393 1.161t3.643 3.625 1.25 6.643q0 3.321-1.714 6.857h6.286q3.714 0 6.429 2.714t2.714 6.393z"/></symbol><symbol id="trash" viewBox="0 0 50 64"><path d="M18.286 26.286v20.571q0 .5-.321.821t-.821.321h-2.286q-.5 0-.821-.321t-.321-.821V26.286q0-.5.321-.821t.821-.321h2.286q.5 0 .821.321t.321.821zm9.143 0v20.571q0 .5-.321.821t-.821.321h-2.286q-.5 0-.821-.321t-.321-.821V26.286q0-.5.321-.821t.821-.321h2.286q.5 0 .821.321t.321.821zm9.142 0v20.571q0 .5-.321.821t-.821.321h-2.286q-.5 0-.821-.321t-.321-.821V26.286q0-.5.321-.821t.821-.321h2.286q.5 0 .821.321t.321.821zm4.572 25.857V18.286h-32v33.857q0 .786.25 1.446t.518.964.375.304H40q.107 0 .375-.304t.518-.964.25-1.446zm-24-38.429h16l-1.714-4.179q-.25-.321-.607-.393H19.501q-.357.071-.607.393zm33.143 1.143v2.286q0 .5-.321.821t-.821.321h-3.429v33.857q0 2.964-1.679 5.125T40 59.428H10.286q-2.357 0-4.036-2.089t-1.679-5.054v-34H1.142q-.5 0-.821-.321T0 17.143v-2.286q0-.5.321-.821t.821-.321h11.036l2.5-5.964q.536-1.321 1.929-2.25t2.821-.929h11.429q1.429 0 2.821.929t1.929 2.25l2.5 5.964h11.036q.5 0 .821.321t.321.821z"/></symbol><symbol id="truck" viewBox="0 0 64 64"><path d="M22.857 50.286q0-1.857-1.357-3.214t-3.214-1.357-3.214 1.357-1.357 3.214 1.357 3.214 3.214 1.357T21.5 53.5t1.357-3.214zM9.143 32h13.714v-9.143h-5.643q-.464 0-.786.321l-6.964 6.964q-.321.321-.321.786v1.071zm45.714 18.286q0-1.857-1.357-3.214t-3.214-1.357-3.214 1.357-1.357 3.214 1.357 3.214 3.214 1.357T53.5 53.5t1.357-3.214zM64 11.429V48q0 .536-.143.946t-.482.661-.589.411-.839.214-.804.071-.911 0-.804-.018q0 3.786-2.679 6.464t-6.464 2.679-6.464-2.679-2.679-6.464H27.428q0 3.786-2.679 6.464t-6.464 2.679-6.464-2.679-2.679-6.464H6.856q-.107 0-.804.018t-.911 0-.804-.071-.839-.214-.589-.411-.482-.661T2.284 48q0-.929.679-1.607t1.607-.679V34.285q0-.286-.018-1.25t0-1.357.089-1.232.232-1.321.5-1.089.804-1.071l7.071-7.071q.679-.679 1.804-1.143t2.089-.464h5.714V11.43q0-.929.679-1.607t1.607-.679h36.571q.929 0 1.607.679t.679 1.607z"/></symbol><symbol id="tumblr" viewBox="0 0 37 64"><path d="M33.714 47.464l2.857 8.464q-.821 1.25-3.964 2.357t-6.321 1.143q-3.714.071-6.804-.929t-5.089-2.643T11 52.07t-1.982-4.286-.589-4.214V24.141h-6v-7.679Q5 15.533 7.036 13.98t3.25-3.214 2.071-3.643 1.214-3.536.536-3.161q.036-.179.161-.304t.268-.125h8.714V15.14h11.893v9H23.214v18.5q0 1.071.232 2t.804 1.875 1.768 1.482 2.911.5q2.786-.071 4.786-1.036z"/></symbol><symbol id="tumblr_sign" viewBox="0 0 64 64"><path d="M40.571 52.179l-2.214-6.536q-1.571.786-3.679.786-1.286.036-2.214-.375t-1.375-1.125-.625-1.446-.179-1.554V27.715h9.179v-6.929h-9.143V9.143h-6.714q-.286 0-.321.357-.179 1.571-.625 3.107T21.268 16t-2.75 3.393-4.232 2.429v5.893h4.643v14.929q0 2.036.768 4.107t2.321 3.964 4.321 3.054 6.304 1.089q2.464-.036 4.875-.893t3.054-1.786zm14.286-37.322v34.286q0 4.25-3.018 7.268t-7.268 3.018H10.285q-4.25 0-7.268-3.018t-3.018-7.268V14.857q0-4.25 3.018-7.268t7.268-3.018h34.286q4.25 0 7.268 3.018t3.018 7.268z"/></symbol><symbol id="turnik" viewBox="0 0 101 101"><path fill="none" stroke="#000" stroke-miterlimit="10" stroke-width="4" d="M10.27 17.89h24.94v80.83H10.27zm25.97 4.86a10 10 0 0 1 0 20m5.77-18.16L75.38 2.06M42.01 40.34l33.37 22.53M46.25 32.76h44.68"/></symbol><symbol id="twitter_sign" viewBox="0 0 64 64"><path d="M45.714 21.786q-2 .893-4.321 1.214 2.429-1.429 3.321-4.179-2.321 1.357-4.786 1.821-2.179-2.357-5.464-2.357-3.107 0-5.304 2.196t-2.196 5.304q0 1.036.179 1.714-4.607-.25-8.643-2.321t-6.857-5.536q-1.036 1.786-1.036 3.786 0 4.071 3.25 6.25-1.679-.036-3.571-.929v.071q0 2.679 1.786 4.768t4.393 2.589q-1.036.286-1.821.286-.464 0-1.393-.143.75 2.25 2.661 3.714t4.339 1.5q-4.143 3.214-9.321 3.214-.929 0-1.786-.107 5.286 3.357 11.5 3.357 4 0 7.5-1.268t6-3.393 4.304-4.893 2.679-5.786.875-6.018q0-.643-.036-.964 2.25-1.607 3.75-3.893zm9.143-6.929v34.286q0 4.25-3.018 7.268t-7.268 3.018H10.285q-4.25 0-7.268-3.018t-3.018-7.268V14.857q0-4.25 3.018-7.268t7.268-3.018h34.286q4.25 0 7.268 3.018t3.018 7.268z"/></symbol><symbol id="ul" viewBox="0 0 64 64"><path d="M13.714 50.286q0 2.857-2 4.857t-4.857 2-4.857-2-2-4.857 2-4.857 4.857-2 4.857 2 2 4.857zm0-18.286q0 2.857-2 4.857t-4.857 2-4.857-2T0 32t2-4.857 4.857-2 4.857 2 2 4.857zM64 46.857v6.857q0 .464-.339.804t-.804.339H19.428q-.464 0-.804-.339t-.339-.804v-6.857q0-.464.339-.804t.804-.339h43.429q.464 0 .804.339t.339.804zM13.714 13.714q0 2.857-2 4.857t-4.857 2-4.857-2-2-4.857 2-4.857 4.857-2 4.857 2 2 4.857zM64 28.571v6.857q0 .464-.339.804t-.804.339H19.428q-.464 0-.804-.339t-.339-.804v-6.857q0-.464.339-.804t.804-.339h43.429q.464 0 .804.339t.339.804zm0-18.285v6.857q0 .464-.339.804t-.804.339H19.428q-.464 0-.804-.339t-.339-.804v-6.857q0-.464.339-.804t.804-.339h43.429q.464 0 .804.339t.339.804z"/></symbol><symbol id="unif1c1" viewBox="0 0 64 64"><path d="M52.429 13.571q1 1 1.714 2.714t.714 3.143v41.143q0 1.429-1 2.429t-2.429 1h-48q-1.429 0-2.429-1t-1-2.429V3.428q0-1.429 1-2.429t2.429-1h32q1.429 0 3.143.714t2.714 1.714zM36.571 4.857v13.429H50q-.357-1.036-.786-1.464L38.035 5.643q-.429-.429-1.464-.786zm13.715 54.572V22.858H35.429q-1.429 0-2.429-1t-1-2.429V4.572H4.571v54.857h45.714zM31.929 38.25q1.179.929 3 2 2.107-.25 4.179-.25 5.25 0 6.321 1.75.571.786.071 1.857 0 .036-.036.071l-.071.071v.036q-.214 1.357-2.536 1.357-1.714 0-4.107-.714t-4.643-1.893q-7.893.857-14 2.964-5.464 9.357-8.643 9.357-.536 0-1-.25l-.857-.429q-.036-.036-.214-.179-.357-.357-.214-1.286.321-1.429 2-3.268t4.714-3.446q.5-.321.821.214.071.071.071.143 1.857-3.036 3.821-7.036 2.429-4.857 3.714-9.357-.857-2.929-1.089-5.696t.232-4.554q.393-1.429 1.5-1.429h.786q.821 0 1.25.536.643.75.321 2.429-.071.214-.143.286.036.107.036.286v1.071q-.071 4.393-.5 6.857 1.964 5.857 5.214 8.5zM11.357 52.929q1.857-.857 4.893-5.643-1.821 1.429-3.125 3t-1.768 2.643zm14.214-32.858q-.536 1.5-.071 4.714.036-.25.25-1.571 0-.107.25-1.536.036-.143.143-.286-.036-.036-.036-.071-.036-.071-.036-.107-.036-.786-.464-1.286 0 .036-.036.071v.071zm-4.428 23.608q4.821-1.929 10.143-2.893-.071-.036-.464-.339t-.571-.482q-2.714-2.393-4.536-6.286-.964 3.071-2.964 7.036-1.071 2-1.607 2.964zm23.071-.572q-.857-.857-5-.857 2.714 1 4.429 1 .5 0 .643-.036 0-.036-.071-.107z"/></symbol><symbol id="unif1f0" viewBox="0 0 82 64"><path d="M70.536 35.357h-4.929q.5-1.321 2.357-6.393l.107-.321q.143-.357.357-.929t.321-.929l.429 1.964zm-51.572-2.321L16.893 22.5q-.393-1.929-2.679-1.929H4.643l-.071.464q11.107 2.821 14.393 12zm6.393-12.465l-5.786 15.643-.607-3.179q-.929-2.5-3.036-4.625t-4.679-3.161l4.821 18.214h6.25l9.321-22.893h-6.286zM30.321 43.5h5.929l3.714-22.929h-5.929zM57.75 21.143q-2.464-.964-5.321-.964-4.393 0-7.179 2.107t-2.821 5.464q-.036 3.643 5.179 6.214 1.714.821 2.393 1.464t.679 1.393q0 1.071-1.071 1.643t-2.464.571q-3.071 0-5.571-1.179l-.786-.393-.821 5.143q2.643 1.214 6.607 1.214 4.643.036 7.446-2.107t2.875-5.714q0-3.786-5-6.214-1.75-.893-2.536-1.5t-.786-1.357q0-.786.875-1.375t2.518-.589q2.5-.036 4.429.857l.536.286zm15.179-.572h-4.571q-2.321 0-3.107 1.929l-8.786 21h6.214l1.25-3.429H71.5q.179.786.714 3.429h5.5zm9.357-11.428v45.714q0 1.857-1.357 3.214t-3.214 1.357H4.572q-1.857 0-3.214-1.357T.001 54.857V9.143q0-1.857 1.357-3.214t3.214-1.357h73.143q1.857 0 3.214 1.357t1.357 3.214z"/></symbol><symbol id="user" viewBox="0 0 46 64"><path d="M45.714 49.964q0 3.893-2.232 6.679t-5.375 2.786h-30.5q-3.143 0-5.375-2.786T0 49.964q0-3.036.304-5.732t1.125-5.429 2.089-4.679 3.357-3.179 4.804-1.232q4.679 4.571 11.179 4.571t11.179-4.571q2.714 0 4.804 1.232t3.357 3.179 2.089 4.679 1.125 5.429.304 5.732zm-9.143-31.678q0 5.679-4.018 9.696T22.857 32t-9.696-4.018-4.018-9.696 4.018-9.696 9.696-4.018 9.696 4.018 4.018 9.696z"/></symbol><symbol id="vk" viewBox="0 0 69 64"><path d="M68.464 18.571q.821 2.286-5.357 10.5-.857 1.143-2.321 3.036-1.429 1.821-1.964 2.571t-1.089 1.768-.429 1.5.464 1.232 1.161 1.536 2.036 1.893q.143.071.179.143 5.036 4.679 6.821 7.893.107.179.232.446t.25.946-.018 1.214-.893.982-2.107.446l-9.143.143q-.857.179-2-.179t-1.857-.786l-.714-.429q-1.071-.75-2.5-2.286t-2.446-2.768-2.179-2.071-2.018-.554q-.107.036-.286.125t-.607.518-.768 1.054-.607 1.857-.232 2.768q0 .536-.125.982t-.268.661l-.143.179q-.643.679-1.893.786h-4.107q-2.536.143-5.214-.589t-4.696-1.893-3.679-2.357-2.518-2.054l-.893-.857q-.357-.357-.982-1.071T13 42.606t-3.786-5.393-4.375-7.536-4.661-9.714q-.214-.571-.214-.964t.107-.571l.143-.214q.536-.679 2.036-.679l9.786-.071q.429.071.821.232t.571.304l.179.107q.571.393.857 1.143.714 1.786 1.643 3.696t1.464 2.911l.571 1.036q1.036 2.143 2 3.714t1.732 2.446 1.482 1.375 1.214.5.964-.179q.071-.036.179-.179t.429-.786.482-1.679.339-2.893 0-4.464q-.071-1.429-.321-2.607t-.5-1.643l-.214-.429q-.893-1.214-3.036-1.536-.464-.071.179-.857.571-.679 1.357-1.071 1.893-.929 8.536-.857 2.929.036 4.821.464.714.179 1.196.482t.732.857.375 1.143.125 1.625-.036 1.964-.089 2.518-.054 2.946q0 .393-.036 1.5t-.018 1.714.125 1.446.411 1.393.804.875q.286.071.607.143t.929-.393 1.357-1.232T46.07 30.8t2.429-3.839q2.143-3.714 3.821-8.036.143-.357.357-.625t.393-.375l.143-.107.179-.089.464-.107.714-.018 10.286-.071q1.393-.179 2.286.089t1.107.589z"/></symbol><symbol id="vremya" viewBox="0 0 101 101"><circle cx="50.5" cy="50.5" r="38.5" fill="none" stroke="#000" stroke-miterlimit="10" stroke-width="4"/><path fill="none" stroke="#000" stroke-miterlimit="10" stroke-width="4" d="M50.5 20.66V50.5h13.08"/></symbol><symbol id="warning_sign" viewBox="0 0 64 64"><path d="M36.571 49.107v-6.786q0-.5-.339-.839t-.804-.339h-6.857q-.464 0-.804.339t-.339.839v6.786q0 .5.339.839t.804.339h6.857q.464 0 .804-.339t.339-.839zM36.5 35.75l.643-16.393q0-.429-.357-.679-.464-.393-.857-.393h-7.857q-.393 0-.857.393-.357.25-.357.75l.607 16.321q0 .357.357.589t.857.232h6.607q.5 0 .839-.232t.375-.589zM36 2.393l27.429 50.286q1.25 2.25-.071 4.5-.607 1.036-1.661 1.643t-2.268.607H4.572q-1.214 0-2.268-.607T.643 57.179q-1.321-2.25-.071-4.5L28.001 2.393q.607-1.107 1.679-1.75T32.001 0t2.321.643 1.679 1.75z"/></symbol><symbol id="youtube" viewBox="0 0 64 64"><path d="M34.679 44.429v7.536q0 2.393-1.393 2.393-.821 0-1.607-.786v-10.75q.786-.786 1.607-.786 1.393 0 1.393 2.393zm12.071.035v1.643h-3.214v-1.643q0-2.429 1.607-2.429t1.607 2.429zm-34.5-7.785h3.821v-3.357H4.928v3.357h3.75V57h3.571V36.679zM22.536 57h3.179V39.357h-3.179v13.5q-1.071 1.5-2.036 1.5-.643 0-.75-.75-.036-.107-.036-1.25v-13h-3.179v13.964q0 1.75.286 2.607.429 1.321 2.071 1.321 1.714 0 3.643-2.179v1.929zm15.321-5.286v-7.036q0-2.607-.321-3.536-.607-2-2.536-2-1.786 0-3.321 1.929v-7.75H28.5V57h3.179v-1.714Q33.286 57.25 35 57.25q1.929 0 2.536-1.964.321-.964.321-3.571zm12.072-.357v-.464h-3.25q0 1.821-.071 2.179-.25 1.286-1.429 1.286-1.643 0-1.643-2.464v-3.107h6.393v-3.679q0-2.821-.964-4.143-1.393-1.821-3.786-1.821-2.429 0-3.821 1.821-1 1.321-1 4.143v6.179q0 2.821 1.036 4.143 1.393 1.821 3.857 1.821 2.571 0 3.857-1.893.643-.964.75-1.929.071-.321.071-2.071zM28.214 18.75v-7.5q0-2.464-1.536-2.464t-1.536 2.464v7.5q0 2.5 1.536 2.5t1.536-2.5zm25.679 26.821q0 8.357-.929 12.5-.5 2.107-2.071 3.536T47.25 63.25q-6.571.75-19.821.75t-19.821-.75q-2.071-.214-3.661-1.643t-2.054-3.536q-.929-4-.929-12.5 0-8.357.929-12.5.5-2.107 2.071-3.536t3.679-1.679q6.536-.714 19.786-.714t19.821.714q2.071.25 3.661 1.679t2.054 3.536q.929 4 .929 12.5zM18.25 0h3.643l-4.321 14.25v9.679h-3.571V14.25q-.5-2.643-2.179-7.571Q10.501 3 9.501 0h3.786l2.536 9.393zm13.214 11.893v6.25q0 2.893-1 4.214-1.357 1.821-3.786 1.821-2.393 0-3.75-1.821-1-1.357-1-4.214v-6.25q0-2.857 1-4.179 1.357-1.821 3.75-1.821 2.429 0 3.786 1.821 1 1.321 1 4.179zm11.965-5.786v17.821h-3.25v-1.964q-1.893 2.214-3.679 2.214-1.643 0-2.107-1.321-.286-.857-.286-2.679V6.107h3.25v13.107q0 1.179.036 1.25.107.786.75.786.964 0 2.036-1.536V6.107h3.25z"/></symbol><symbol id="youtube_sign" viewBox="0 0 64 64"><path d="M32.821 46.536v-5.607q0-1.786-1.036-1.786-.607 0-1.179.571v8q.571.571 1.179.571 1.036 0 1.036-1.75zm6.572-4.357h2.357v-1.214q0-1.821-1.179-1.821t-1.179 1.821v1.214zM19 32.679v2.5h-2.857v15.107H13.5V35.179h-2.786v-2.5H19zm7.179 4.5v13.107h-2.393v-1.429q-1.393 1.607-2.714 1.607-1.179 0-1.5-1-.214-.607-.214-1.929V37.178h2.357v9.643q0 .857.036.929.036.536.536.536.714 0 1.5-1.107v-10h2.393zm9 3.964v5.214q0 1.857-.25 2.607-.429 1.5-1.893 1.5-1.25 0-2.429-1.464v1.286h-2.393V32.679h2.393v5.75Q31.75 37 33.036 37q1.464 0 1.893 1.5.25.75.25 2.643zm8.964 4.607v.321q0 1.036-.071 1.536-.107.786-.536 1.429-.964 1.429-2.857 1.429-1.857 0-2.893-1.357-.75-.964-.75-3.071V41.43q0-2.107.714-3.071 1.036-1.357 2.857-1.357t2.786 1.357q.75 1.036.75 3.071v2.714h-4.75v2.321q0 1.821 1.214 1.821.857 0 1.071-.929 0-.036.018-.25t.018-.589v-.768h2.429zM28.036 16.321v5.571q0 1.821-1.143 1.821t-1.143-1.821v-5.571q0-1.857 1.143-1.857t1.143 1.857zm19.035 25.465q0-6.321-.679-9.286-.357-1.571-1.536-2.625t-2.714-1.232q-4.857-.536-14.714-.536-9.821 0-14.679.536-1.571.179-2.732 1.232T8.499 32.5q-.714 3.107-.714 9.286 0 6.286.714 9.286.357 1.536 1.518 2.607t2.696 1.25q4.893.536 14.714.536t14.714-.536q1.536-.179 2.696-1.25t1.518-2.607q.714-3 .714-9.286zm-26.964-23.25l3.214-10.571h-2.679l-1.821 6.964-1.893-6.964h-2.786q.25.821.821 2.464l.857 2.464q1.25 3.679 1.643 5.643v7.179h2.643v-7.179zm10.322 2.893v-4.643q0-2.071-.75-3.107-1.036-1.357-2.786-1.357-1.821 0-2.786 1.357-.75 1.036-.75 3.107v4.643q0 2.071.75 3.107.964 1.357 2.786 1.357 1.75 0 2.786-1.357.75-.964.75-3.107zm6.464 4.285h2.393V12.5h-2.393v10.107q-.786 1.107-1.5 1.107-.536 0-.571-.571-.036-.071-.036-.929V12.5h-2.393v10.464q0 1.321.214 1.964.393.964 1.536.964 1.286 0 2.75-1.607v1.429zm17.964-10.857v34.286q0 4.25-3.018 7.268t-7.268 3.018H10.285q-4.25 0-7.268-3.018t-3.018-7.268V14.857q0-4.25 3.018-7.268t7.268-3.018h34.286q4.25 0 7.268 3.018t3.018 7.268z"/></symbol><symbol id="zoom_in" viewBox="0 0 59 64"><path d="M36.571 28.571v2.286q0 .464-.339.804t-.804.339h-8v8q0 .464-.339.804t-.804.339h-2.286q-.464 0-.804-.339T22.856 40v-8h-8q-.464 0-.804-.339t-.339-.804v-2.286q0-.464.339-.804t.804-.339h8v-8q0-.464.339-.804t.804-.339h2.286q.464 0 .804.339t.339.804v8h8q.464 0 .804.339t.339.804zm4.572 1.143q0-6.607-4.696-11.304t-11.304-4.696-11.304 4.696-4.696 11.304 4.696 11.304 11.304 4.696 11.304-4.696 4.696-11.304zm18.286 29.715q0 1.893-1.339 3.232T54.858 64q-1.929 0-3.214-1.357l-12.25-12.214q-6.393 4.429-14.25 4.429-5.107 0-9.768-1.982T7.34 47.519t-5.357-8.036-1.982-9.768 1.982-9.768 5.357-8.036 8.036-5.357 9.768-1.982 9.768 1.982 8.036 5.357 5.357 8.036 1.982 9.768q0 7.857-4.429 14.25l12.25 12.25q1.321 1.321 1.321 3.214z"/></symbol><symbol id="zoom_out" viewBox="0 0 59 64"><path d="M36.571 28.571v2.286q0 .464-.339.804t-.804.339H14.857q-.464 0-.804-.339t-.339-.804v-2.286q0-.464.339-.804t.804-.339h20.571q.464 0 .804.339t.339.804zm4.572 1.143q0-6.607-4.696-11.304t-11.304-4.696-11.304 4.696-4.696 11.304 4.696 11.304 11.304 4.696 11.304-4.696 4.696-11.304zm18.286 29.715q0 1.893-1.339 3.232T54.858 64q-1.929 0-3.214-1.357l-12.25-12.214q-6.393 4.429-14.25 4.429-5.107 0-9.768-1.982T7.34 47.519t-5.357-8.036-1.982-9.768 1.982-9.768 5.357-8.036 8.036-5.357 9.768-1.982 9.768 1.982 8.036 5.357 5.357 8.036 1.982 9.768q0 7.857-4.429 14.25l12.25 12.25q1.321 1.321 1.321 3.214z"/></symbol><symbol id="_422" viewBox="0 0 64 64"><path d="M52.429 13.571q1 1 1.714 2.714t.714 3.143v41.143q0 1.429-1 2.429t-2.429 1h-48q-1.429 0-2.429-1t-1-2.429V3.428q0-1.429 1-2.429t2.429-1h32q1.429 0 3.143.714t2.714 1.714zM36.571 4.857v13.429H50q-.357-1.036-.786-1.464L38.035 5.643q-.429-.429-1.464-.786zm13.715 54.572V22.858H35.429q-1.429 0-2.429-1t-1-2.429V4.572H4.571v54.857h45.714zm-41.965-32v3.821h2.5l5.857 23.607h5.679l4.571-17.321q.25-.714.357-1.643.071-.571.071-.857h.143l.107.857q.036.107.125.714t.196.929l4.571 17.321h5.679l5.857-23.607h2.5v-3.821H35.82v3.821h3.214l-3.536 15.643q-.179.714-.25 1.643l-.071.75h-.143q0-.107-.018-.232t-.054-.286-.036-.232q-.036-.179-.143-.75t-.179-.893l-5.143-19.464H25.39l-5.143 19.464q-.071.321-.161.875t-.125.768l-.143.75h-.143l-.071-.75q-.071-.929-.25-1.643L15.818 31.25h3.214v-3.821H8.318z"/></symbol><symbol id="_423" viewBox="0 0 64 64"><path d="M52.429 13.571q1 1 1.714 2.714t.714 3.143v41.143q0 1.429-1 2.429t-2.429 1h-48q-1.429 0-2.429-1t-1-2.429V3.428q0-1.429 1-2.429t2.429-1h32q1.429 0 3.143.714t2.714 1.714zM36.571 4.857v13.429H50q-.357-1.036-.786-1.464L38.035 5.643q-.429-.429-1.464-.786zm13.715 54.572V22.858H35.429q-1.429 0-2.429-1t-1-2.429V4.572H4.571v54.857h45.714zm-34.965-8.358v3.786h10.036v-3.786h-2.679l3.679-5.75q.179-.25.357-.589t.268-.482.125-.143h.071q.036.143.179.357.071.143.161.268t.214.286.232.304l3.821 5.75h-2.714v3.786h10.393v-3.786h-2.429l-6.857-9.75 6.964-10.071h2.393V27.43h-9.964v3.821h2.643l-3.679 5.679q-.143.25-.357.589t-.321.482l-.071.107h-.071q-.036-.143-.179-.357-.214-.393-.607-.821l-3.786-5.679h2.714V27.43H15.5v3.821h2.429l6.75 9.714-6.929 10.107h-2.429z"/></symbol><symbol id="_424" viewBox="0 0 64 64"><path d="M52.429 13.571q1 1 1.714 2.714t.714 3.143v41.143q0 1.429-1 2.429t-2.429 1h-48q-1.429 0-2.429-1t-1-2.429V3.428q0-1.429 1-2.429t2.429-1h32q1.429 0 3.143.714t2.714 1.714zM36.571 4.857v13.429H50q-.357-1.036-.786-1.464L38.035 5.643q-.429-.429-1.464-.786zm13.715 54.572V22.858H35.429q-1.429 0-2.429-1t-1-2.429V4.572H4.571v54.857h45.714zm-35.429-8.358v3.786h11.679v-3.786h-3.321v-5.964h4.893q2.714 0 4.214-.536 2.393-.821 3.804-3.107t1.411-5.214q0-2.893-1.321-5.036t-3.571-3.107q-1.714-.679-4.643-.679H14.859v3.821h3.286V51.07h-3.286zm12.607-10h-4.25V31.5H27.5q1.857 0 2.964.643 2 1.179 2 4.107 0 3.179-2.214 4.286-1.107.536-2.786.536z"/></symbol><symbol id="_425" viewBox="0 0 64 64"><path d="M52.429 13.571q1 1 1.714 2.714t.714 3.143v41.143q0 1.429-1 2.429t-2.429 1h-48q-1.429 0-2.429-1t-1-2.429V3.428q0-1.429 1-2.429t2.429-1h32q1.429 0 3.143.714t2.714 1.714zM36.571 4.857v13.429H50q-.357-1.036-.786-1.464L38.035 5.643q-.429-.429-1.464-.786zm13.715 54.572V22.858H35.429q-1.429 0-2.429-1t-1-2.429V4.572H4.571v54.857h45.714zm-4.572-16v11.429H9.143v-6.857L16 41.144l4.571 4.571 13.714-13.714zM16 36.571q-2.857 0-4.857-2t-2-4.857 2-4.857 4.857-2 4.857 2 2 4.857-2 4.857-4.857 2z"/></symbol><symbol id="_429" viewBox="0 0 64 64"><path d="M52.429 13.571q1 1 1.714 2.714t.714 3.143v41.143q0 1.429-1 2.429t-2.429 1h-48q-1.429 0-2.429-1t-1-2.429V3.428q0-1.429 1-2.429t2.429-1h32q1.429 0 3.143.714t2.714 1.714zM36.571 4.857v13.429H50q-.357-1.036-.786-1.464L38.035 5.643q-.429-.429-1.464-.786zm13.715 54.572V22.858H35.429q-1.429 0-2.429-1t-1-2.429V4.572H4.571v54.857h45.714zm-33.143-32q.286-.393.75-.446t.857.232l1.821 1.357q.393.286.446.75t-.232.857l-6.5 8.679 6.5 8.679q.286.393.232.857t-.446.75l-1.821 1.357q-.393.286-.857.232t-.75-.446l-8.071-10.75q-.5-.679 0-1.357zm28.643 10.75q.5.679 0 1.357l-8.071 10.75q-.286.393-.75.446t-.857-.232l-1.821-1.357q-.393-.286-.446-.75t.232-.857l6.5-8.679-6.5-8.679q-.286-.393-.232-.857t.446-.75l1.821-1.357q.393-.286.857-.232t.75.446zM23.643 54.643q-.464-.071-.732-.464t-.196-.857l4.929-29.679q.071-.464.464-.732t.857-.196l2.25.357q.464.071.732.464t.196.857l-4.929 29.679q-.071.464-.464.732t-.857.196z"/></symbol><symbol id="_466" viewBox="0 0 82 64"><path d="M39.964 12.179q-4.571-3.036-10.036-3.036-3.679 0-7.054 1.446t-5.804 3.875-3.875 5.786-1.446 7.036q0 3.714 1.446 7.071t3.875 5.786 5.786 3.875 7.071 1.446q5.464 0 10.036-3.036-4.679-3.821-6.357-9.482t.018-11.304 6.339-9.464zm1.179.857q-4.5 3.536-6.143 8.911t-.018 10.732 6.161 8.893q4.536-3.536 6.161-8.893t-.018-10.732-6.143-8.911zm1.178-.857Q46.964 16 48.66 21.661t.018 11.321-6.357 9.446q4.571 3.036 10.036 3.036 3.714 0 7.071-1.446t5.786-3.875 3.875-5.786 1.446-7.071q0-3.679-1.446-7.036t-3.875-5.786-5.804-3.875-7.054-1.446q-5.464 0-10.036 3.036zm26.465 25.785h.25v-.107h-.607v.107h.25v.607h.107v-.607zm1.035.607h.143v-.714h-.179l-.214.464-.214-.464h-.179v.714h.107v-.536l.214.464h.143l.179-.464v.536zm-.285 15.715v.071h-.179v-.107h.179v.036zm0 .321h.107l-.143-.179h.071l.036-.036q.036-.036.036-.107t-.036-.107l-.036-.036h-.321v.464h.107v-.179h.036zm-45.072-2.428q0-.679.393-1.107t1.071-.429q.643 0 1.036.446t.393 1.089q0 .679-.393 1.107t-1.036.429q-.679 0-1.071-.429t-.393-1.107zm16.893-1.572q1.071 0 1.25 1.143h-2.5q.179-1.143 1.25-1.143zm12.714 1.572q0-.679.393-1.107t1.036-.429 1.054.446.411 1.089q0 .679-.393 1.107t-1.071.429q-.643 0-1.036-.429t-.393-1.107zm9.715 0q0-.643.411-1.089t1.054-.446 1.054.446.411 1.089q0 .679-.411 1.107t-1.054.429-1.054-.446-.411-1.089zm5.643 2.571q-.071 0-.143-.036-.036 0-.107-.071t-.071-.107q-.036-.071-.036-.143 0-.107.036-.143 0-.071.071-.143l.036-.036q.071 0 .071-.036.071-.036.143-.036.107 0 .143.036l.143.071.071.143v.036q.036.071.036.107l-.036.036v.107l-.036.036-.036.071q-.071.071-.143.071-.036.036-.143.036zm-48.036-.143h1.071v-3.036q0-.857-.518-1.375t-1.411-.554q-1.143 0-1.679.857-.5-.857-1.607-.857-.857 0-1.393.714v-.571h-1.071v4.821h1.071v-2.679q0-1.286 1.179-1.286 1.071 0 1.071 1.286v2.679h1.036v-2.679q0-1.286 1.179-1.286 1.071 0 1.071 1.286v2.679zm5.928 0h1.036v-4.821h-1.036v.571q-.607-.714-1.536-.714-1.036 0-1.714.714t-.679 1.821.679 1.821 1.714.714q1 0 1.536-.714v.607zm6.358-1.464q0-1.214-1.679-1.429l-.5-.071q-.821-.143-.821-.5 0-.536.893-.536.821 0 1.536.393l.429-.857q-.786-.5-1.964-.5-.929 0-1.464.429t-.536 1.143q0 1.179 1.679 1.393l.464.071q.857.143.857.5 0 .607-1.107.607-.893 0-1.607-.5l-.464.821q.893.607 2.071.607 1.036 0 1.625-.429t.589-1.143zm4.642 1.214l-.286-.893q-.464.25-.929.25-.679 0-.679-.786v-2.179h1.714v-.964h-1.714v-1.464h-1.071v1.464h-1v.964h1v2.179q0 1.786 1.679 1.786.75 0 1.286-.357zm3.072-4.714q-1.036 0-1.714.714T39 52.178q0 1.143.696 1.839t1.768.696q1.179 0 1.964-.679l-.5-.786q-.643.536-1.393.536-1.214 0-1.464-1.179h3.607v-.429q0-1.143-.643-1.839t-1.643-.696zm5.678 0q-.821 0-1.25.714v-.571H44.75v4.821h1.071v-2.714q0-1.25 1.036-1.25.357 0 .643.143l.321-1q-.321-.143-.75-.143zm1.072 2.536q0 1.107.696 1.821t1.875.714q1.036 0 1.714-.571l-.5-.857q-.643.464-1.25.429-.643 0-1.054-.429t-.411-1.107.411-1.107 1.054-.429q.679 0 1.25.429l.5-.857q-.714-.571-1.714-.571-1.179 0-1.875.714t-.696 1.821zm8.75 2.428h1.071v-4.821h-1.071v.571q-.536-.714-1.5-.714-1.036 0-1.732.714t-.696 1.821.696 1.821 1.732.714q1 0 1.5-.714v.607zm4.75-4.964q-.821 0-1.25.714v-.571h-1.036v4.821h1.036v-2.714q0-1.25 1.036-1.25.357 0 .643.143l.321-1q-.286-.143-.75-.143zm5 4.964h1.036v-6.786h-1.036v2.536q-.536-.714-1.536-.714t-1.696.732-.696 1.804.696 1.804 1.696.732q1.036 0 1.536-.714v.607zm2.786-.714l-.071.036h-.107q-.071.036-.143.107-.107.036-.107.143-.036.071-.036.214 0 .107.036.179 0 .071.107.143.071.071.143.107t.179.036q.143 0 .214-.036 0-.036.071-.071l.071-.036q.036-.036.107-.143.036-.071.036-.179 0-.143-.036-.214-.036-.036-.107-.143 0-.036-.071-.071l-.071-.036q-.036 0-.107-.018t-.107-.018zm12.857-44.75v45.714q0 1.857-1.357 3.214t-3.214 1.357H4.572q-1.857 0-3.214-1.357T.001 54.857V9.143q0-1.857 1.357-3.214t3.214-1.357h73.143q1.857 0 3.214 1.357t1.357 3.214z"/></symbol><symbol id="_525" viewBox="0 0 64 64"><path d="M51.821 4.571q1.25 0 2.143.893t.893 2.143v48.786q0 1.25-.893 2.143t-2.143.893H37.857v-21.25h7.107l1.071-8.286h-8.179v-5.286q0-2 .839-3t3.268-1l4.357-.036v-7.393q-2.25-.321-6.357-.321-4.857 0-7.768 2.857t-2.911 8.071v6.107h-7.143v8.286h7.143v21.25H3.034q-1.25 0-2.143-.893t-.893-2.143V7.606q0-1.25.893-2.143t2.143-.893H51.82z"/></symbol><symbol id="_527" viewBox="0 0 64 64"><path d="M35.179 34.786q.464 0 3.482 1.571t3.196 1.893q.071.179.071.536 0 1.179-.607 2.714-.571 1.393-2.536 2.339t-3.643.946q-2.036 0-6.786-2.214-3.5-1.607-6.071-4.214t-5.286-6.607q-2.571-3.821-2.536-6.929v-.286q.107-3.25 2.643-5.643.857-.786 1.857-.786.214 0 .643.054t.679.054q.679 0 .946.232t.554.982q.286.714 1.179 3.143t.893 2.679q0 .75-1.232 2.054t-1.232 1.661q0 .25.179.536 1.214 2.607 3.643 4.893 2 1.893 5.393 3.607.429.25.786.25.536 0 1.929-1.732t1.857-1.732zm-7.25 18.928q4.536 0 8.696-1.786t7.161-4.786 4.786-7.161 1.786-8.696-1.786-8.696-4.786-7.161-7.161-4.786-8.696-1.786-8.696 1.786-7.161 4.786-4.786 7.161T5.5 31.285q0 7.25 4.286 13.143l-2.821 8.321 8.643-2.75q5.643 3.714 12.321 3.714zm0-49.357q5.464 0 10.446 2.143t8.589 5.75 5.75 8.589 2.143 10.446-2.143 10.446-5.75 8.589-8.589 5.75-10.446 2.143q-6.964 0-13.036-3.357L0 59.642l4.857-14.464Q1 38.821 1 31.285q0-5.464 2.143-10.446t5.75-8.589 8.589-5.75 10.446-2.143z"/></symbol><symbol id="_594" viewBox="0 0 64 64"><path d="M18.286 0q.464 0 .804.339t.339.804v52.571q0 .714-.607 1L1.679 63.857q-.25.143-.536.143-.464 0-.804-.339T0 62.857V10.286q0-.714.607-1L17.75.143Q18 0 18.286 0zm44.571 0q.464 0 .804.339t.339.804v52.571q0 .714-.607 1L46.25 63.857Q46 64 45.714 64q-.464 0-.804-.339t-.339-.804V10.286q0-.714.607-1L62.321.143q.25-.143.536-.143zm-40 0q.286 0 .5.107L41.643 9.25q.643.357.643 1.036v52.571q0 .464-.339.804t-.804.339q-.286 0-.5-.107L22.357 54.75q-.643-.357-.643-1.036V1.143q0-.464.339-.804T22.857 0z"/></symbol></svg>