<?xml version="1.0" encoding="utf-8"?>
<!-- Generated by IcoMoon.io -->
<!DOCTYPE svg PUBLIC "-//W3C//DTD SVG 1.1//EN" "http://www.w3.org/Graphics/SVG/1.1/DTD/svg11.dtd">
<svg version="1.1" xmlns="http://www.w3.org/2000/svg" xmlns:xlink="http://www.w3.org/1999/xlink" width="64" height="64" viewBox="0 0 64 64">
<path d="M9.143 16q0-0.929-0.679-1.607t-1.607-0.679-1.607 0.679-0.679 1.607 0.679 1.607 1.607 0.679 1.607-0.679 0.679-1.607zM50.286 36.571q0-1.25-0.768-2.893t-1.911-1.679q0.536-0.607 0.893-1.696t0.357-1.982q0-2.464-1.893-4.25 0.643-1.107 0.643-2.464 0-1.321-0.625-2.625t-1.696-1.875q0.179-1.071 0.179-2 0-3.036-1.75-4.5t-4.857-1.464h-4.571q-4.679 0-12.214 2.607-0.179 0.071-1.036 0.375t-1.268 0.446-1.25 0.411-1.357 0.393-1.179 0.232-1.125 0.107h-1.143v22.857h1.143q0.571 0 1.268 0.321t1.429 0.964 1.375 1.268 1.429 1.571 1.232 1.518 1.125 1.464 0.821 1.071q1.964 2.429 2.75 3.25 1.464 1.536 2.125 3.911t1.089 4.482 1.357 3.036q3.429 0 4.571-1.679t1.143-5.179q0-2.107-1.714-5.732t-1.714-5.696h12.571q1.786 0 3.179-1.375t1.393-3.196zM54.857 36.607q0 3.679-2.714 6.393t-6.429 2.714h-6.286q1.714 3.536 1.714 6.857 0 4.214-1.25 6.643-1.25 2.464-3.643 3.625t-5.393 1.161q-1.821 0-3.214-1.321-1.214-1.179-1.929-2.929t-0.911-3.232-0.625-3.018-1.107-2.286q-1.714-1.786-3.821-4.536-3.607-4.679-4.893-5.536h-9.786q-1.893 0-3.232-1.339t-1.339-3.232v-22.857q0-1.893 1.339-3.232t3.232-1.339h10.286q0.786 0 4.929-1.429 4.571-1.571 7.964-2.357t7.143-0.786h4q5 0 8.089 2.821t3.054 7.714v0.179q2.143 2.75 2.143 6.357 0 0.786-0.107 1.536 1.357 2.393 1.357 5.143 0 1.286-0.321 2.464 1.75 2.607 1.75 5.821z"></path>
</svg>
