<?xml version="1.0" encoding="utf-8"?>
<!-- Generated by IcoMoon.io -->
<!DOCTYPE svg PUBLIC "-//W3C//DTD SVG 1.1//EN" "http://www.w3.org/Graphics/SVG/1.1/DTD/svg11.dtd">
<svg version="1.1" xmlns="http://www.w3.org/2000/svg" xmlns:xlink="http://www.w3.org/1999/xlink" width="50" height="64" viewBox="0 0 50 64">
<path d="M18.286 26.286v20.571q0 0.5-0.321 0.821t-0.821 0.321h-2.286q-0.5 0-0.821-0.321t-0.321-0.821v-20.571q0-0.5 0.321-0.821t0.821-0.321h2.286q0.5 0 0.821 0.321t0.321 0.821zM27.429 26.286v20.571q0 0.5-0.321 0.821t-0.821 0.321h-2.286q-0.5 0-0.821-0.321t-0.321-0.821v-20.571q0-0.5 0.321-0.821t0.821-0.321h2.286q0.5 0 0.821 0.321t0.321 0.821zM36.571 26.286v20.571q0 0.5-0.321 0.821t-0.821 0.321h-2.286q-0.5 0-0.821-0.321t-0.321-0.821v-20.571q0-0.5 0.321-0.821t0.821-0.321h2.286q0.5 0 0.821 0.321t0.321 0.821zM41.143 52.143v-33.857h-32v33.857q0 0.786 0.25 1.446t0.518 0.964 0.375 0.304h29.714q0.107 0 0.375-0.304t0.518-0.964 0.25-1.446zM17.143 13.714h16l-1.714-4.179q-0.25-0.321-0.607-0.393h-11.321q-0.357 0.071-0.607 0.393zM50.286 14.857v2.286q0 0.5-0.321 0.821t-0.821 0.321h-3.429v33.857q0 2.964-1.679 5.125t-4.036 2.161h-29.714q-2.357 0-4.036-2.089t-1.679-5.054v-34h-3.429q-0.5 0-0.821-0.321t-0.321-0.821v-2.286q0-0.5 0.321-0.821t0.821-0.321h11.036l2.5-5.964q0.536-1.321 1.929-2.25t2.821-0.929h11.429q1.429 0 2.821 0.929t1.929 2.25l2.5 5.964h11.036q0.5 0 0.821 0.321t0.321 0.821z"></path>
</svg>
