<?xml version="1.0" encoding="utf-8"?>
<!-- Generated by IcoMoon.io -->
<!DOCTYPE svg PUBLIC "-//W3C//DTD SVG 1.1//EN" "http://www.w3.org/Graphics/SVG/1.1/DTD/svg11.dtd">
<svg version="1.1" xmlns="http://www.w3.org/2000/svg" xmlns:xlink="http://www.w3.org/1999/xlink" width="64" height="64" viewBox="0 0 64 64">
<path d="M22.857 50.286q0-1.857-1.357-3.214t-3.214-1.357-3.214 1.357-1.357 3.214 1.357 3.214 3.214 1.357 3.214-1.357 1.357-3.214zM9.143 32h13.714v-9.143h-5.643q-0.464 0-0.786 0.321l-6.964 6.964q-0.321 0.321-0.321 0.786v1.071zM54.857 50.286q0-1.857-1.357-3.214t-3.214-1.357-3.214 1.357-1.357 3.214 1.357 3.214 3.214 1.357 3.214-1.357 1.357-3.214zM64 11.429v36.571q0 0.536-0.143 0.946t-0.482 0.661-0.589 0.411-0.839 0.214-0.804 0.071-0.911 0-0.804-0.018q0 3.786-2.679 6.464t-6.464 2.679-6.464-2.679-2.679-6.464h-13.714q0 3.786-2.679 6.464t-6.464 2.679-6.464-2.679-2.679-6.464h-2.286q-0.107 0-0.804 0.018t-0.911 0-0.804-0.071-0.839-0.214-0.589-0.411-0.482-0.661-0.143-0.946q0-0.929 0.679-1.607t1.607-0.679v-11.429q0-0.286-0.018-1.25t0-1.357 0.089-1.232 0.232-1.321 0.5-1.089 0.804-1.071l7.071-7.071q0.679-0.679 1.804-1.143t2.089-0.464h5.714v-6.857q0-0.929 0.679-1.607t1.607-0.679h36.571q0.929 0 1.607 0.679t0.679 1.607z"></path>
</svg>
