<?xml version="1.0" encoding="utf-8"?>
<!-- Generated by IcoMoon.io -->
<!DOCTYPE svg PUBLIC "-//W3C//DTD SVG 1.1//EN" "http://www.w3.org/Graphics/SVG/1.1/DTD/svg11.dtd">
<svg version="1.1" xmlns="http://www.w3.org/2000/svg" xmlns:xlink="http://www.w3.org/1999/xlink" width="37" height="64" viewBox="0 0 37 64">
<path d="M33.714 47.464l2.857 8.464q-0.821 1.25-3.964 2.357t-6.321 1.143q-3.714 0.071-6.804-0.929t-5.089-2.643-3.393-3.786-1.982-4.286-0.589-4.214v-19.429h-6v-7.679q2.571-0.929 4.607-2.482t3.25-3.214 2.071-3.643 1.214-3.536 0.536-3.161q0.036-0.179 0.161-0.304t0.268-0.125h8.714v15.143h11.893v9h-11.929v18.5q0 1.071 0.232 2t0.804 1.875 1.768 1.482 2.911 0.5q2.786-0.071 4.786-1.036z"></path>
</svg>
