<?xml version="1.0" encoding="utf-8"?>
<!-- Generated by IcoMoon.io -->
<!DOCTYPE svg PUBLIC "-//W3C//DTD SVG 1.1//EN" "http://www.w3.org/Graphics/SVG/1.1/DTD/svg11.dtd">
<svg version="1.1" xmlns="http://www.w3.org/2000/svg" xmlns:xlink="http://www.w3.org/1999/xlink" width="64" height="64" viewBox="0 0 64 64">
<path d="M40.571 52.179l-2.214-6.536q-1.571 0.786-3.679 0.786-1.286 0.036-2.214-0.375t-1.375-1.125-0.625-1.446-0.179-1.554v-14.214h9.179v-6.929h-9.143v-11.643h-6.714q-0.286 0-0.321 0.357-0.179 1.571-0.625 3.107t-1.393 3.393-2.75 3.393-4.232 2.429v5.893h4.643v14.929q0 2.036 0.768 4.107t2.321 3.964 4.321 3.054 6.304 1.089q2.464-0.036 4.875-0.893t3.054-1.786zM54.857 14.857v34.286q0 4.25-3.018 7.268t-7.268 3.018h-34.286q-4.25 0-7.268-3.018t-3.018-7.268v-34.286q0-4.25 3.018-7.268t7.268-3.018h34.286q4.25 0 7.268 3.018t3.018 7.268z"></path>
</svg>
