<svg xmlns="http://www.w3.org/2000/svg"
 xmlns:xlink="http://www.w3.org/1999/xlink"
 width="27px" height="29px"  viewBox="0 0 27 29">
<path fill-rule="evenodd"  fill="#545454"
 d="M25.78955,6.8813477 C24.965576,7.3828125 23.620117,7.7263184 22.827148,7.7043457 C24.192627,7.0307617 24.89154,6.0 24.910522,4.9658203 C24.527344,5.4855957 23.083008,6.454834 22.080933,6.465576 C21.95514,6.2731934 21.829773,6.0925293 21.71112,5.9311523 C20.067505,3.697754 17.000793,2.5822754 14.711792,3.7617188 C14.87262,3.6066895 15.038818,3.4560547 15.209351,3.3110352 C15.432678,3.1125488 16.873108,2.2509766 16.413086,1.7915039 C16.015564,1.3828125 14.469543,2.9794922 14.159485,3.2312012 C14.557129,2.8684082 15.209778,2.2556152 15.076416,1.6733398 C14.399048,2.0551758 13.831421,2.6779785 13.485596,3.3945312 C13.597473,3.1020508 13.643066,2.7805176 13.563232,2.4848633 C12.141235,4.484375 12.011719,7.4379883 12.0672,10.233643 C11.081421,9.809082 10.233459,9.503662 9.548767,9.416504 C7.6259155,9.172363 5.3771973,9.010742 1.9636841,9.050293 C2.2667847,10.090332 3.3688354,11.199951 5.3794556,11.434326 C5.000183,11.525879 4.385193,11.895752 3.9094849,12.230225 C4.5758667,13.297607 5.648926,13.969971 7.727234,13.682129 C6.8826294,14.081055 6.5133057,14.460449 6.27771,15.053223 C6.9871826,15.69873 8.3220825,16.26123 9.979065,15.386719 C8.384094,16.993896 10.143982,18.118408 11.621582,17.26709 C10.054871,21.14331 5.752075,22.591553 2.401184,21.181885 C12.187378,27.505615 24.528442,18.503906 23.245361,9.215576 C24.787354,8.624268 25.470764,7.7143555 25.78955,6.8813477 Z"/>
</svg>