<?xml version="1.0" encoding="utf-8"?>
<!-- Generated by IcoMoon.io -->
<!DOCTYPE svg PUBLIC "-//W3C//DTD SVG 1.1//EN" "http://www.w3.org/Graphics/SVG/1.1/DTD/svg11.dtd">
<svg version="1.1" xmlns="http://www.w3.org/2000/svg" xmlns:xlink="http://www.w3.org/1999/xlink" width="64" height="64" viewBox="0 0 64 64">
<path d="M52.429 13.571q1 1 1.714 2.714t0.714 3.143v41.143q0 1.429-1 2.429t-2.429 1h-48q-1.429 0-2.429-1t-1-2.429v-57.143q0-1.429 1-2.429t2.429-1h32q1.429 0 3.143 0.714t2.714 1.714zM36.571 4.857v13.429h13.429q-0.357-1.036-0.786-1.464l-11.179-11.179q-0.429-0.429-1.464-0.786zM50.286 59.429v-36.571h-14.857q-1.429 0-2.429-1t-1-2.429v-14.857h-27.429v54.857h45.714zM31.929 38.25q1.179 0.929 3 2 2.107-0.25 4.179-0.25 5.25 0 6.321 1.75 0.571 0.786 0.071 1.857 0 0.036-0.036 0.071l-0.071 0.071v0.036q-0.214 1.357-2.536 1.357-1.714 0-4.107-0.714t-4.643-1.893q-7.893 0.857-14 2.964-5.464 9.357-8.643 9.357-0.536 0-1-0.25l-0.857-0.429q-0.036-0.036-0.214-0.179-0.357-0.357-0.214-1.286 0.321-1.429 2-3.268t4.714-3.446q0.5-0.321 0.821 0.214 0.071 0.071 0.071 0.143 1.857-3.036 3.821-7.036 2.429-4.857 3.714-9.357-0.857-2.929-1.089-5.696t0.232-4.554q0.393-1.429 1.5-1.429h0.786q0.821 0 1.25 0.536 0.643 0.75 0.321 2.429-0.071 0.214-0.143 0.286 0.036 0.107 0.036 0.286v1.071q-0.071 4.393-0.5 6.857 1.964 5.857 5.214 8.5zM11.357 52.929q1.857-0.857 4.893-5.643-1.821 1.429-3.125 3t-1.768 2.643zM25.571 20.071q-0.536 1.5-0.071 4.714 0.036-0.25 0.25-1.571 0-0.107 0.25-1.536 0.036-0.143 0.143-0.286-0.036-0.036-0.036-0.071-0.036-0.071-0.036-0.107-0.036-0.786-0.464-1.286 0 0.036-0.036 0.071v0.071zM21.143 43.679q4.821-1.929 10.143-2.893-0.071-0.036-0.464-0.339t-0.571-0.482q-2.714-2.393-4.536-6.286-0.964 3.071-2.964 7.036-1.071 2-1.607 2.964zM44.214 43.107q-0.857-0.857-5-0.857 2.714 1 4.429 1 0.5 0 0.643-0.036 0-0.036-0.071-0.107z"></path>
</svg>
