<?xml version="1.0" encoding="utf-8"?>
<!-- Generated by IcoMoon.io -->
<!DOCTYPE svg PUBLIC "-//W3C//DTD SVG 1.1//EN" "http://www.w3.org/Graphics/SVG/1.1/DTD/svg11.dtd">
<svg version="1.1" xmlns="http://www.w3.org/2000/svg" xmlns:xlink="http://www.w3.org/1999/xlink" width="82" height="64" viewBox="0 0 82 64">
<path d="M70.536 35.357h-4.929q0.5-1.321 2.357-6.393l0.107-0.321q0.143-0.357 0.357-0.929t0.321-0.929l0.429 1.964zM18.964 33.036l-2.071-10.536q-0.393-1.929-2.679-1.929h-9.571l-0.071 0.464q11.107 2.821 14.393 12zM25.357 20.571l-5.786 15.643-0.607-3.179q-0.929-2.5-3.036-4.625t-4.679-3.161l4.821 18.214h6.25l9.321-22.893h-6.286zM30.321 43.5h5.929l3.714-22.929h-5.929zM57.75 21.143q-2.464-0.964-5.321-0.964-4.393 0-7.179 2.107t-2.821 5.464q-0.036 3.643 5.179 6.214 1.714 0.821 2.393 1.464t0.679 1.393q0 1.071-1.071 1.643t-2.464 0.571q-3.071 0-5.571-1.179l-0.786-0.393-0.821 5.143q2.643 1.214 6.607 1.214 4.643 0.036 7.446-2.107t2.875-5.714q0-3.786-5-6.214-1.75-0.893-2.536-1.5t-0.786-1.357q0-0.786 0.875-1.375t2.518-0.589q2.5-0.036 4.429 0.857l0.536 0.286zM72.929 20.571h-4.571q-2.321 0-3.107 1.929l-8.786 21h6.214l1.25-3.429h7.571q0.179 0.786 0.714 3.429h5.5zM82.286 9.143v45.714q0 1.857-1.357 3.214t-3.214 1.357h-73.143q-1.857 0-3.214-1.357t-1.357-3.214v-45.714q0-1.857 1.357-3.214t3.214-1.357h73.143q1.857 0 3.214 1.357t1.357 3.214z"></path>
</svg>
