<?xml version="1.0" encoding="utf-8"?>
<!-- Generated by IcoMoon.io -->
<!DOCTYPE svg PUBLIC "-//W3C//DTD SVG 1.1//EN" "http://www.w3.org/Graphics/SVG/1.1/DTD/svg11.dtd">
<svg version="1.1" xmlns="http://www.w3.org/2000/svg" xmlns:xlink="http://www.w3.org/1999/xlink" width="46" height="64" viewBox="0 0 46 64">
<path d="M45.714 49.964q0 3.893-2.232 6.679t-5.375 2.786h-30.5q-3.143 0-5.375-2.786t-2.232-6.679q0-3.036 0.304-5.732t1.125-5.429 2.089-4.679 3.357-3.179 4.804-1.232q4.679 4.571 11.179 4.571t11.179-4.571q2.714 0 4.804 1.232t3.357 3.179 2.089 4.679 1.125 5.429 0.304 5.732zM36.571 18.286q0 5.679-4.018 9.696t-9.696 4.018-9.696-4.018-4.018-9.696 4.018-9.696 9.696-4.018 9.696 4.018 4.018 9.696z"></path>
</svg>
