<svg xmlns="http://www.w3.org/2000/svg" viewBox="0 0 259.01 70.19" width="260" height="71">
  <defs>
    <style>
      .a {
        fill: #0066b3;
      }

      .b {
        fill: #faa634;
      }

      .c {
        fill: #fcb331;
      }

      .c, .d, .e {
        fill-rule: evenodd;
      }

      .d {
        fill: #ed1c2e;
      }

      .e {
        fill: #fff;
      }

      .f {
        fill: none;
        stroke: #fff;
        stroke-miterlimit: 2.61;
        stroke-width: 0.22px;
      }
    </style>
  </defs>
  <title>visa_master</title>
  <g>
    <g>
      <g>
        <polygon class="a" points="51.71 52.91 41.98 52.91 48.06 15.53 57.79 15.53 51.71 52.91"/>
        <path class="a" d="M33.79,15.53L24.51,41.24l-1.1-5.54h0L20.14,18.89s-0.4-3.37-4.62-3.37H0.18L0,16.16a36.35,36.35,0,0,1,10.18,4.27l8.46,32.48H28.78L44.26,15.53H33.79Z"/>
        <path class="a" d="M110.34,52.91h8.94l-7.79-37.38h-7.83a4.47,4.47,0,0,0-4.49,2.79L84.65,52.91H94.8l2-5.55H109.2ZM99.63,39.69l5.11-14,2.88,14h-8Z"/>
        <path class="a" d="M85.41,24.52l1.39-8A28.1,28.1,0,0,0,78,14.86c-4.83,0-16.3,2.11-16.3,12.38,0,9.66,13.46,9.78,13.46,14.85s-12.07,4.16-16.06,1L57.7,51.44a27.26,27.26,0,0,0,11,2.11c6.64,0,16.66-3.44,16.66-12.8,0-9.72-13.58-10.62-13.58-14.85S81.25,22.22,85.41,24.52Z"/>
      </g>
      <path class="b" d="M23.41,35.71L20.14,18.89s-0.4-3.37-4.62-3.37H0.18L0,16.16a37.73,37.73,0,0,1,14.45,7.25A29.16,29.16,0,0,1,23.41,35.71Z"/>
    </g>
    <g>
      <polygon class="c" points="223.85 70.19 225.66 70.15 227.45 70.02 229.2 69.79 230.94 69.48 232.64 69.09 234.31 68.62 235.94 68.06 237.54 67.44 239.1 66.72 240.62 65.96 242.09 65.1 243.52 64.19 244.89 63.21 246.22 62.17 247.5 61.07 248.72 59.89 249.89 58.67 250.99 57.4 252.03 56.07 253.01 54.7 253.92 53.26 254.78 51.8 255.55 50.28 256.26 48.72 256.88 47.12 257.44 45.49 257.91 43.82 258.31 42.12 258.61 40.38 258.84 38.63 258.97 36.84 259.01 35.03 258.97 33.23 258.84 31.46 258.61 29.7 258.31 27.99 257.91 26.3 257.44 24.64 256.88 23 256.26 21.42 255.55 19.87 254.78 18.35 253.92 16.89 253.01 15.46 252.03 14.09 250.99 12.77 249.89 11.5 248.72 10.28 247.5 9.12 246.22 8.02 244.89 6.97 243.52 5.99 242.09 5.08 240.62 4.24 239.1 3.47 237.54 2.76 235.94 2.13 234.31 1.57 232.64 1.1 230.94 0.71 229.2 0.4 227.45 0.18 225.66 0.05 223.85 0 222.05 0.05 220.27 0.18 218.51 0.4 216.78 0.71 215.09 1.1 213.42 1.57 211.8 2.13 210.2 2.76 208.65 3.47 207.15 4.24 205.68 5.08 204.26 5.99 202.89 6.97 201.56 8.02 200.29 9.12 199.07 10.28 197.91 11.5 196.81 12.77 195.77 14.09 194.8 15.46 193.89 16.89 193.05 18.35 192.27 19.87 191.57 21.42 190.94 23 190.4 24.64 189.92 26.3 189.53 27.99 189.22 29.7 189 31.46 188.87 33.23 188.82 35.03 188.87 36.84 189 38.63 189.22 40.38 189.53 42.12 189.92 43.82 190.4 45.49 190.94 47.12 191.57 48.72 192.27 50.28 193.05 51.8 193.89 53.26 194.8 54.7 195.77 56.07 196.81 57.4 197.91 58.67 199.07 59.89 200.29 61.07 201.56 62.17 202.89 63.21 204.26 64.19 205.68 65.1 207.15 65.96 208.65 66.72 210.2 67.44 211.8 68.06 213.42 68.62 215.09 69.09 216.78 69.48 218.51 69.79 220.27 70.02 222.05 70.15 223.85 70.19 223.85 70.19 223.85 70.19"/>
      <polygon class="d" points="176.9 70.19 178.7 70.15 180.49 70.02 182.24 69.79 183.97 69.48 185.66 69.09 187.33 68.62 188.95 68.06 190.55 67.44 192.1 66.72 193.6 65.96 195.07 65.1 196.49 64.19 197.87 63.21 199.19 62.17 200.46 61.07 201.68 59.89 202.84 58.67 203.94 57.4 204.98 56.07 205.95 54.7 206.86 53.26 207.7 51.8 208.49 50.28 209.18 48.72 209.81 47.12 210.36 45.49 210.83 43.82 211.22 42.12 211.53 40.38 211.75 38.63 211.88 36.84 211.93 35.03 211.88 33.23 211.75 31.46 211.53 29.7 211.22 27.99 210.83 26.3 210.36 24.64 209.81 23 209.18 21.42 208.49 19.87 207.7 18.35 206.86 16.89 205.95 15.46 204.98 14.09 203.94 12.77 202.84 11.5 201.68 10.28 200.46 9.12 199.19 8.02 197.87 6.97 196.49 5.99 195.07 5.08 193.6 4.24 192.1 3.47 190.55 2.76 188.95 2.13 187.33 1.57 185.66 1.1 183.97 0.71 182.24 0.4 180.49 0.18 178.7 0.05 176.9 0 175.09 0.05 173.3 0.18 171.55 0.4 169.81 0.71 168.12 1.1 166.44 1.57 164.81 2.13 163.21 2.76 161.65 3.47 160.13 4.24 158.67 5.08 157.23 5.99 155.86 6.97 154.53 8.02 153.26 9.12 152.04 10.28 150.87 11.5 149.76 12.77 148.72 14.09 147.74 15.46 146.83 16.89 145.97 18.35 145.21 19.87 144.5 21.42 143.87 23 143.31 24.64 142.84 26.3 142.45 27.99 142.14 29.7 141.91 31.46 141.78 33.23 141.74 35.03 141.78 36.84 141.91 38.63 142.14 40.38 142.45 42.12 142.84 43.82 143.31 45.49 143.87 47.12 144.5 48.72 145.21 50.28 145.97 51.8 146.83 53.26 147.74 54.7 148.72 56.07 149.76 57.4 150.87 58.67 152.04 59.89 153.26 61.07 154.53 62.17 155.86 63.21 157.23 64.19 158.67 65.1 160.13 65.96 161.65 66.72 163.21 67.44 164.81 68.06 166.44 68.62 168.12 69.09 169.81 69.48 171.55 69.79 173.3 70.02 175.09 70.15 176.9 70.19 176.9 70.19 176.9 70.19"/>
      <polygon class="c" points="196.27 13.46 214.91 13.46 214.91 11.55 197.88 11.55 196.27 13.46 196.27 13.46 196.27 13.46"/>
      <polygon class="c" points="193.47 17.7 214.91 17.7 214.91 15.79 194.6 15.79 193.47 17.7 193.47 17.7 193.47 17.7"/>
      <polygon class="c" points="191.39 21.93 214.91 21.93 214.91 20.02 192.22 20.02 191.39 21.93 191.39 21.93 191.39 21.93"/>
      <polygon class="c" points="189.96 26.16 214.91 26.16 214.91 24.26 190.55 24.26 189.96 26.16 189.96 26.16 189.96 26.16"/>
      <polygon class="c" points="190.79 46.65 214.97 46.65 214.97 44.74 190.19 44.74 190.79 46.65 190.79 46.65 190.79 46.65"/>
      <polygon class="c" points="192.57 50.88 214.97 50.88 214.97 48.98 191.69 48.98 192.57 50.88 192.57 50.88 192.57 50.88"/>
      <polygon class="c" points="195.08 55.11 214.97 55.11 214.97 53.2 193.89 53.2 195.08 55.11 195.08 55.11 195.08 55.11"/>
      <polygon class="c" points="198.54 59.35 214.97 59.35 214.97 57.43 196.87 57.43 198.54 59.35 198.54 59.35 198.54 59.35"/>
      <polygon class="c" points="189.12 30.39 214.91 30.39 214.91 28.48 189.48 28.48 189.12 30.39 189.12 30.39 189.12 30.39"/>
      <polygon class="c" points="204.84 42.42 214.68 42.42 214.68 40.51 205.19 40.51 204.84 42.42 204.84 42.42 204.84 42.42"/>
      <polygon class="c" points="205.62 38.19 214.68 38.19 214.68 36.27 205.98 36.27 205.62 38.19 205.62 38.19 205.62 38.19"/>
      <polygon class="c" points="188.47 36.27 191.02 36.27 191.02 38.19 188.58 38.19 188.47 36.27 188.47 36.27 188.47 36.27"/>
      <polygon class="e" points="183.69 33.97 183.53 33.95 183.36 33.93 183.21 33.91 183.06 33.88 182.91 33.86 182.76 33.84 182.6 33.81 182.44 33.79 182.27 33.77 182.09 33.75 181.87 33.74 181.65 33.73 181.4 33.73 181.13 33.74 180.82 33.77 180.47 33.79 180.24 33.82 180.01 33.86 179.81 33.93 179.63 34 179.47 34.09 179.31 34.18 179.2 34.3 179.09 34.4 179.02 34.53 178.96 34.66 178.94 34.81 178.94 34.95 178.97 35.1 179.02 35.26 179.11 35.41 179.23 35.56 179.47 35.79 179.75 35.97 180.08 36.12 180.44 36.25 180.82 36.37 181.21 36.5 181.6 36.64 181.98 36.8 182.33 37 182.66 37.25 182.96 37.54 183.21 37.91 183.4 38.36 183.52 38.89 183.56 39.53 183.52 40.28 183.43 40.83 183.29 41.32 183.1 41.77 182.87 42.16 182.59 42.5 182.29 42.8 181.95 43.06 181.59 43.28 181.21 43.46 180.82 43.62 180.41 43.73 180 43.83 179.6 43.9 179.21 43.94 178.82 43.96 178.45 43.97 177.94 43.97 177.47 43.96 177.05 43.96 176.66 43.95 176.31 43.94 175.99 43.91 175.7 43.89 175.43 43.85 175.18 43.83 174.96 43.78 174.73 43.74 174.53 43.69 174.33 43.64 174.14 43.57 173.95 43.5 173.75 43.43 174.28 40.81 174.39 40.83 174.52 40.87 174.69 40.92 174.89 40.96 175.1 41.01 175.34 41.06 175.6 41.12 175.88 41.16 176.18 41.21 176.49 41.26 176.8 41.3 177.14 41.33 177.48 41.34 177.82 41.35 178.17 41.35 178.51 41.34 178.85 41.27 179.13 41.18 179.34 41.05 179.5 40.88 179.62 40.72 179.72 40.52 179.78 40.34 179.82 40.16 179.85 39.81 179.74 39.52 179.54 39.28 179.24 39.08 178.89 38.9 178.47 38.73 178.01 38.56 177.55 38.37 177.08 38.16 176.63 37.91 176.21 37.6 175.83 37.23 175.54 36.78 175.32 36.25 175.22 35.61 175.23 34.85 175.29 34.39 175.37 33.95 175.49 33.55 175.63 33.17 175.82 32.82 176.03 32.51 176.28 32.21 176.58 31.95 176.92 31.73 177.3 31.54 177.73 31.36 178.2 31.23 178.73 31.13 179.31 31.04 179.95 31 180.65 30.98 181.09 30.98 181.49 31 181.86 31.01 182.19 31.02 182.49 31.04 182.76 31.07 183 31.09 183.21 31.11 183.41 31.14 183.58 31.17 183.73 31.2 183.87 31.22 183.99 31.24 184.1 31.25 184.2 31.28 184.3 31.29 183.69 33.97 183.69 33.97 183.69 33.97"/>
      <polyline class="f" points="183.69 33.97 183.69 33.97 183.53 33.95 183.36 33.93 183.21 33.91 183.06 33.88 182.91 33.86 182.76 33.84 182.6 33.81 182.44 33.79 182.27 33.77 182.09 33.75 181.87 33.74 181.65 33.73 181.4 33.73 181.13 33.74 180.82 33.77 180.47 33.79 180.47 33.79 180.24 33.82 180.01 33.86 179.81 33.93 179.63 34 179.47 34.09 179.31 34.18 179.2 34.3 179.09 34.4 179.02 34.53 178.96 34.66 178.94 34.81 178.94 34.95 178.97 35.1 179.02 35.26 179.11 35.41 179.23 35.56 179.23 35.56 179.47 35.79 179.75 35.97 180.08 36.12 180.44 36.25 180.82 36.37 181.21 36.5 181.6 36.64 181.98 36.8 182.33 37 182.66 37.25 182.96 37.54 183.21 37.91 183.4 38.36 183.52 38.89 183.56 39.53 183.52 40.28 183.52 40.28 183.43 40.83 183.29 41.32 183.1 41.77 182.87 42.16 182.59 42.5 182.29 42.8 181.95 43.06 181.59 43.28 181.21 43.46 180.82 43.62 180.41 43.73 180 43.83 179.6 43.9 179.21 43.94 178.82 43.96 178.45 43.97 178.45 43.97 177.94 43.97 177.47 43.96 177.05 43.96 176.66 43.95 176.31 43.94 175.99 43.91 175.7 43.89 175.43 43.85 175.18 43.83 174.96 43.78 174.73 43.74 174.53 43.69 174.33 43.64 174.14 43.57 173.95 43.5 173.75 43.43 174.28 40.81 174.28 40.81 174.39 40.83 174.52 40.87 174.69 40.92 174.89 40.96 175.1 41.01 175.34 41.06 175.6 41.12 175.88 41.16 176.18 41.21 176.49 41.26 176.8 41.3 177.14 41.33 177.48 41.34 177.82 41.35 178.17 41.35 178.51 41.34 178.51 41.34 178.85 41.27 179.13 41.18 179.34 41.05 179.5 40.88 179.62 40.72 179.72 40.52 179.78 40.34 179.82 40.16 179.82 40.16 179.85 39.81 179.74 39.52 179.54 39.28 179.24 39.08 178.89 38.9 178.47 38.73 178.01 38.56 177.55 38.37 177.08 38.16 176.63 37.91 176.21 37.6 175.83 37.23 175.54 36.78 175.32 36.25 175.22 35.61 175.23 34.85 175.23 34.85 175.29 34.39 175.37 33.95 175.49 33.55 175.63 33.17 175.82 32.82 176.03 32.51 176.28 32.21 176.58 31.95 176.92 31.73 177.3 31.54 177.73 31.36 178.2 31.23 178.73 31.13 179.31 31.04 179.95 31 180.65 30.98 180.65 30.98 181.09 30.98 181.49 31 181.86 31.01 182.19 31.02 182.49 31.04 182.76 31.07 183 31.09 183.21 31.11 183.41 31.14 183.58 31.17 183.73 31.2 183.87 31.22 183.99 31.24 184.1 31.25 184.2 31.28 184.3 31.29 183.69 33.97"/>
      <polygon class="e" points="186.5 28.37 189.78 28.37 189.29 31.23 191.27 31.23 190.84 33.91 188.76 33.85 187.63 40.45 187.61 40.69 187.67 40.89 187.79 41.05 187.94 41.18 188.16 41.26 188.4 41.33 188.66 41.38 188.94 41.4 189.2 41.39 189.44 41.37 189.65 41.33 189.84 41.28 189.99 41.24 190.1 41.2 190.17 41.18 190.19 41.16 189.78 43.37 189.7 43.43 189.61 43.47 189.53 43.52 189.45 43.57 189.37 43.6 189.27 43.64 189.16 43.67 189.06 43.71 188.94 43.74 188.82 43.77 188.68 43.79 188.54 43.82 188.38 43.84 188.21 43.86 188.02 43.89 187.81 43.91 186.91 43.91 186.44 43.88 186.03 43.83 185.65 43.76 185.33 43.67 185.06 43.57 184.83 43.45 184.63 43.31 184.48 43.15 184.36 42.99 184.28 42.79 184.22 42.59 184.18 42.36 184.17 42.11 184.17 41.85 184.2 41.58 184.24 41.28 186.5 28.37 186.5 28.37 186.5 28.37"/>
      <polyline class="f" points="186.5 28.37 189.78 28.37 189.29 31.23 191.27 31.23 190.84 33.91 188.76 33.85 187.63 40.45 187.63 40.45 187.61 40.69 187.67 40.89 187.79 41.05 187.94 41.18 188.16 41.26 188.4 41.33 188.66 41.38 188.94 41.4 188.94 41.4 189.2 41.39 189.44 41.37 189.65 41.33 189.84 41.28 189.99 41.24 190.1 41.2 190.17 41.18 190.19 41.16 189.78 43.37 189.78 43.37 189.7 43.43 189.61 43.47 189.53 43.52 189.45 43.57 189.37 43.6 189.27 43.64 189.16 43.67 189.06 43.71 188.94 43.74 188.82 43.77 188.68 43.79 188.54 43.82 188.38 43.84 188.21 43.86 188.02 43.89 187.81 43.91 186.91 43.91 186.91 43.91 186.44 43.88 186.03 43.83 185.65 43.76 185.33 43.67 185.06 43.57 184.83 43.45 184.63 43.31 184.48 43.15 184.36 42.99 184.28 42.79 184.22 42.59 184.18 42.36 184.17 42.11 184.17 41.85 184.2 41.58 184.24 41.28 186.5 28.37"/>
      <polygon class="e" points="193.89 38.37 193.85 38.57 193.84 38.78 193.87 39.01 193.91 39.23 194 39.46 194.09 39.67 194.22 39.9 194.36 40.1 194.53 40.3 194.71 40.48 194.9 40.66 195.11 40.8 195.32 40.93 195.56 41.03 195.79 41.12 196.03 41.16 196.34 41.21 196.63 41.25 196.94 41.28 197.25 41.31 197.56 41.32 197.88 41.32 198.19 41.31 198.51 41.28 198.82 41.24 199.15 41.18 199.48 41.1 199.8 41 200.13 40.87 200.47 40.73 200.8 40.54 201.15 40.34 200.67 43.25 200.48 43.34 200.29 43.44 200.1 43.51 199.93 43.58 199.75 43.64 199.56 43.7 199.37 43.74 199.17 43.78 198.96 43.82 198.72 43.84 198.47 43.86 198.2 43.89 197.89 43.9 197.57 43.9 197.2 43.91 196.81 43.91 196.23 43.9 195.64 43.84 195.05 43.76 194.46 43.62 193.88 43.44 193.32 43.21 192.79 42.92 192.29 42.57 191.83 42.17 191.43 41.69 191.08 41.14 190.8 40.51 190.6 39.81 190.47 39.02 190.43 38.15 190.49 37.17 190.54 36.8 190.61 36.36 190.7 35.9 190.83 35.4 191.01 34.89 191.22 34.38 191.5 33.86 191.83 33.36 192.21 32.89 192.67 32.44 193.19 32.04 193.78 31.68 194.47 31.39 195.24 31.17 196.09 31.03 197.05 30.98 197.51 31 198 31.04 198.48 31.13 198.97 31.24 199.44 31.42 199.9 31.63 200.33 31.92 200.72 32.25 201.07 32.65 201.37 33.13 201.61 33.67 201.77 34.3 201.87 35.01 201.88 35.81 201.8 36.71 201.62 37.71 201.56 38.43 192.93 38.43 193.47 36.1 198.66 36.1 198.68 35.8 198.67 35.52 198.65 35.26 198.6 35.02 198.52 34.8 198.43 34.59 198.32 34.42 198.2 34.25 198.06 34.11 197.9 33.99 197.72 33.88 197.55 33.79 197.36 33.72 197.17 33.67 196.97 33.63 196.75 33.61 196.53 33.62 196.31 33.66 196.11 33.71 195.91 33.78 195.71 33.87 195.53 33.98 195.36 34.11 195.2 34.25 195.05 34.42 194.91 34.59 194.78 34.78 194.67 34.98 194.56 35.2 194.48 35.43 194.41 35.67 194.36 35.92 193.89 38.37 193.89 38.37 193.89 38.37"/>
      <polyline class="f" points="193.89 38.37 193.89 38.37 193.85 38.57 193.84 38.78 193.87 39.01 193.91 39.23 194 39.46 194.09 39.67 194.22 39.9 194.36 40.1 194.53 40.3 194.71 40.48 194.9 40.66 195.11 40.8 195.32 40.93 195.56 41.03 195.79 41.12 196.03 41.16 196.03 41.16 196.34 41.21 196.63 41.25 196.94 41.28 197.25 41.31 197.56 41.32 197.88 41.32 198.19 41.31 198.51 41.28 198.82 41.24 199.15 41.18 199.48 41.1 199.8 41 200.13 40.87 200.47 40.73 200.8 40.54 201.15 40.34 200.67 43.25 200.67 43.25 200.48 43.34 200.29 43.44 200.1 43.51 199.93 43.58 199.75 43.64 199.56 43.7 199.37 43.74 199.17 43.78 198.96 43.82 198.72 43.84 198.47 43.86 198.2 43.89 197.89 43.9 197.57 43.9 197.2 43.91 196.81 43.91 196.81 43.91 196.23 43.9 195.64 43.84 195.05 43.76 194.46 43.62 193.88 43.44 193.32 43.21 192.79 42.92 192.29 42.57 191.83 42.17 191.43 41.69 191.08 41.14 190.8 40.51 190.6 39.81 190.47 39.02 190.43 38.15 190.49 37.17 190.49 37.17 190.54 36.8 190.61 36.36 190.7 35.9 190.83 35.4 191.01 34.89 191.22 34.38 191.5 33.86 191.83 33.36 192.21 32.89 192.67 32.44 193.19 32.04 193.78 31.68 194.47 31.39 195.24 31.17 196.09 31.03 197.05 30.98 197.05 30.98 197.51 31 198 31.04 198.48 31.13 198.97 31.24 199.44 31.42 199.9 31.63 200.33 31.92 200.72 32.25 201.07 32.65 201.37 33.13 201.61 33.67 201.77 34.3 201.87 35.01 201.88 35.81 201.8 36.71 201.62 37.71 201.56 38.43 192.93 38.43 193.47 36.1 198.66 36.1 198.66 36.1 198.68 35.8 198.67 35.52 198.65 35.26 198.6 35.02 198.52 34.8 198.43 34.59 198.32 34.42 198.2 34.25 198.06 34.11 197.9 33.99 197.72 33.88 197.55 33.79 197.36 33.72 197.17 33.67 196.97 33.63 196.75 33.61 196.75 33.61 196.53 33.62 196.31 33.66 196.11 33.71 195.91 33.78 195.71 33.87 195.53 33.98 195.36 34.11 195.2 34.25 195.05 34.42 194.91 34.59 194.78 34.78 194.67 34.98 194.56 35.2 194.48 35.43 194.41 35.67 194.36 35.92 193.89 38.37"/>
      <polygon class="e" points="222.12 31.94 221.97 31.86 221.82 31.79 221.65 31.7 221.47 31.62 221.3 31.55 221.09 31.48 220.89 31.41 220.68 31.34 220.46 31.28 220.23 31.23 219.98 31.18 219.73 31.15 219.46 31.13 219.19 31.1 218.9 31.1 218.61 31.1 218.31 31.1 218 31.13 217.69 31.16 217.35 31.22 217.02 31.31 216.69 31.45 216.36 31.61 216.03 31.82 215.71 32.08 215.4 32.39 215.1 32.77 214.82 33.21 214.56 33.73 214.31 34.32 214.09 34.98 213.9 35.74 213.82 36.17 213.78 36.58 213.75 37 213.77 37.4 213.8 37.8 213.88 38.18 213.99 38.54 214.12 38.89 214.3 39.21 214.51 39.52 214.76 39.79 215.04 40.04 215.36 40.25 215.73 40.43 216.13 40.58 216.58 40.69 216.74 40.73 216.91 40.76 217.13 40.79 217.37 40.81 217.63 40.83 217.9 40.83 218.19 40.83 218.49 40.81 218.8 40.77 219.1 40.72 219.4 40.63 219.7 40.54 219.99 40.41 220.27 40.25 220.51 40.06 220.75 39.85 220.22 43.01 220.15 43.07 220.08 43.14 219.98 43.23 219.88 43.3 219.75 43.39 219.58 43.47 219.39 43.56 219.18 43.63 218.9 43.71 218.6 43.77 218.24 43.82 217.83 43.86 217.37 43.89 216.83 43.9 216.23 43.89 215.57 43.85 215.02 43.79 214.48 43.67 213.93 43.5 213.39 43.26 212.87 42.98 212.37 42.62 211.9 42.21 211.46 41.73 211.07 41.2 210.74 40.61 210.45 39.95 210.24 39.22 210.1 38.43 210.05 37.59 210.07 36.67 210.2 35.68 210.3 35.2 210.4 34.72 210.52 34.26 210.64 33.82 210.77 33.41 210.93 33 211.08 32.6 211.24 32.24 211.42 31.87 211.6 31.53 211.8 31.2 212.01 30.89 212.23 30.59 212.46 30.31 212.7 30.05 212.95 29.8 213.22 29.56 213.49 29.34 213.78 29.14 214.07 28.95 214.39 28.77 214.71 28.61 215.04 28.47 215.39 28.34 215.75 28.22 216.12 28.13 216.5 28.05 216.9 27.98 217.31 27.92 217.73 27.87 218.16 27.84 218.61 27.83 218.99 27.84 219.35 27.87 219.71 27.9 220.06 27.95 220.4 28 220.72 28.07 221.02 28.13 221.31 28.2 221.58 28.27 221.82 28.34 222.04 28.41 222.23 28.48 222.4 28.54 222.54 28.59 222.65 28.64 222.72 28.66 222.12 31.94 222.12 31.94 222.12 31.94"/>
      <polyline class="f" points="222.12 31.94 222.12 31.94 221.97 31.86 221.82 31.79 221.65 31.7 221.47 31.62 221.3 31.55 221.09 31.48 220.89 31.41 220.68 31.34 220.46 31.28 220.23 31.23 219.98 31.18 219.73 31.15 219.46 31.13 219.19 31.1 218.9 31.1 218.61 31.1 218.61 31.1 218.31 31.1 218 31.13 217.69 31.16 217.35 31.22 217.02 31.31 216.69 31.45 216.36 31.61 216.03 31.82 215.71 32.08 215.4 32.39 215.1 32.77 214.82 33.21 214.56 33.73 214.31 34.32 214.09 34.98 213.9 35.74 213.9 35.74 213.82 36.17 213.78 36.58 213.75 37 213.77 37.4 213.8 37.8 213.88 38.18 213.99 38.54 214.12 38.89 214.3 39.21 214.51 39.52 214.76 39.79 215.04 40.04 215.36 40.25 215.73 40.43 216.13 40.58 216.58 40.69 216.58 40.69 216.74 40.73 216.91 40.76 217.13 40.79 217.37 40.81 217.63 40.83 217.9 40.83 218.19 40.83 218.49 40.81 218.8 40.77 219.1 40.72 219.4 40.63 219.7 40.54 219.99 40.41 220.27 40.25 220.51 40.06 220.75 39.85 220.22 43.01 220.22 43.01 220.15 43.07 220.08 43.14 219.98 43.23 219.88 43.3 219.75 43.39 219.58 43.47 219.39 43.56 219.18 43.63 218.9 43.71 218.6 43.77 218.24 43.82 217.83 43.86 217.37 43.89 216.83 43.9 216.23 43.89 215.57 43.85 215.57 43.85 215.02 43.79 214.48 43.67 213.93 43.5 213.39 43.26 212.87 42.98 212.37 42.62 211.9 42.21 211.46 41.73 211.07 41.2 210.74 40.61 210.45 39.95 210.24 39.22 210.1 38.43 210.05 37.59 210.07 36.67 210.2 35.68 210.2 35.68 210.3 35.2 210.4 34.72 210.52 34.26 210.64 33.82 210.77 33.41 210.93 33 211.08 32.6 211.24 32.24 211.42 31.87 211.6 31.53 211.8 31.2 212.01 30.89 212.23 30.59 212.46 30.31 212.7 30.05 212.95 29.8 213.22 29.56 213.49 29.34 213.78 29.14 214.07 28.95 214.39 28.77 214.71 28.61 215.04 28.47 215.39 28.34 215.75 28.22 216.12 28.13 216.5 28.05 216.9 27.98 217.31 27.92 217.73 27.87 218.16 27.84 218.61 27.83 218.61 27.83 218.99 27.84 219.35 27.87 219.71 27.9 220.06 27.95 220.4 28 220.72 28.07 221.02 28.13 221.31 28.2 221.58 28.27 221.82 28.34 222.04 28.41 222.23 28.48 222.4 28.54 222.54 28.59 222.65 28.64 222.72 28.66 222.12 31.94"/>
      <polygon class="e" points="251.27 43.91 247.99 43.91 248.23 42.6 248.23 42.48 248.04 42.72 247.84 42.93 247.64 43.12 247.43 43.28 247.21 43.44 247 43.57 246.78 43.67 246.56 43.78 246.34 43.86 246.11 43.92 245.88 43.98 245.65 44.02 245.41 44.05 245.19 44.08 244.95 44.09 244.71 44.09 244.1 44.04 243.53 43.91 243.01 43.71 242.53 43.44 242.11 43.09 241.73 42.69 241.4 42.25 241.11 41.76 240.88 41.22 240.69 40.67 240.56 40.09 240.46 39.48 240.43 38.88 240.44 38.26 240.5 37.66 240.6 37.06 240.78 36.36 241 35.7 241.25 35.09 241.54 34.52 241.85 33.99 242.2 33.52 242.57 33.09 242.96 32.7 243.38 32.36 243.81 32.06 244.26 31.8 244.71 31.6 245.19 31.43 245.66 31.33 246.13 31.25 246.62 31.23 246.96 31.24 247.29 31.28 247.6 31.34 247.89 31.42 248.16 31.52 248.4 31.62 248.63 31.75 248.84 31.88 249.03 32.02 249.21 32.18 249.37 32.33 249.51 32.49 249.63 32.64 249.73 32.79 249.83 32.94 249.9 33.08 249.9 33.08 250.73 28.43 253.95 28.43 251.27 43.91 251.27 43.91 251.27 43.91"/>
      <polyline class="f" points="251.27 43.91 247.99 43.91 248.23 42.6 248.23 42.48 248.23 42.48 248.04 42.72 247.84 42.93 247.64 43.12 247.43 43.28 247.21 43.44 247 43.57 246.78 43.67 246.56 43.78 246.34 43.86 246.11 43.92 245.88 43.98 245.65 44.02 245.41 44.05 245.19 44.08 244.95 44.09 244.71 44.09 244.71 44.09 244.1 44.04 243.53 43.91 243.01 43.71 242.53 43.44 242.11 43.09 241.73 42.69 241.4 42.25 241.11 41.76 240.88 41.22 240.69 40.67 240.56 40.09 240.46 39.48 240.43 38.88 240.44 38.26 240.5 37.66 240.6 37.06 240.6 37.06 240.78 36.36 241 35.7 241.25 35.09 241.54 34.52 241.85 33.99 242.2 33.52 242.57 33.09 242.96 32.7 243.38 32.36 243.81 32.06 244.26 31.8 244.71 31.6 245.19 31.43 245.66 31.33 246.13 31.25 246.62 31.23 246.62 31.23 246.96 31.24 247.29 31.28 247.6 31.34 247.89 31.42 248.16 31.52 248.4 31.62 248.63 31.75 248.84 31.88 249.03 32.02 249.21 32.18 249.37 32.33 249.51 32.49 249.63 32.64 249.73 32.79 249.83 32.94 249.9 33.08 249.9 33.08 250.73 28.43 253.95 28.43 251.27 43.91"/>
      <polygon class="c" points="245.91 41.05 246.24 41.02 246.55 40.95 246.83 40.87 247.1 40.74 247.35 40.6 247.59 40.42 247.81 40.22 248.02 40 248.19 39.77 248.36 39.51 248.51 39.23 248.64 38.95 248.76 38.66 248.86 38.35 248.94 38.03 249 37.71 249.06 37.38 249.09 37.03 249.09 36.71 249.08 36.38 249.05 36.07 249 35.78 248.92 35.49 248.82 35.22 248.7 34.98 248.56 34.76 248.41 34.57 248.23 34.4 248.03 34.26 247.81 34.17 247.59 34.11 247.34 34.09 247.02 34.11 246.73 34.16 246.45 34.25 246.18 34.37 245.94 34.52 245.71 34.71 245.51 34.91 245.31 35.14 245.13 35.4 244.96 35.67 244.81 35.95 244.68 36.26 244.56 36.58 244.47 36.9 244.37 37.25 244.3 37.59 244.24 38.11 244.26 38.68 244.35 39.26 244.5 39.81 244.74 40.3 245.04 40.69 245.44 40.95 245.91 41.05 245.91 41.05 245.91 41.05"/>
      <polygon class="e" points="173.21 41.28 172.73 43.91 169.75 43.91 169.83 43.43 169.89 42.99 169.94 42.66 169.99 42.48 169.82 42.67 169.63 42.86 169.41 43.03 169.16 43.2 168.87 43.37 168.58 43.51 168.27 43.65 167.95 43.77 167.61 43.88 167.26 43.96 166.92 44.03 166.56 44.08 166.22 44.1 165.88 44.11 165.55 44.08 165.23 44.03 164.81 43.92 164.43 43.8 164.1 43.65 163.81 43.47 163.54 43.28 163.31 43.07 163.12 42.85 162.95 42.61 162.81 42.36 162.69 42.1 162.6 41.84 162.53 41.58 162.48 41.31 162.44 41.03 162.42 40.77 162.42 40.51 162.46 40.05 162.53 39.61 162.65 39.2 162.8 38.8 162.99 38.42 163.2 38.07 163.45 37.74 163.73 37.45 164.03 37.17 164.36 36.93 164.71 36.7 165.06 36.51 165.44 36.35 165.83 36.22 166.23 36.11 166.65 36.04 166.67 36.04 166.73 36.03 166.81 36.01 166.94 36 167.09 35.98 167.25 35.97 167.43 35.94 167.63 35.92 167.83 35.9 168.03 35.87 168.25 35.86 168.43 35.84 168.62 35.83 168.8 35.81 168.97 35.8 169.1 35.8 169.37 35.8 169.65 35.81 169.91 35.83 170.18 35.83 170.39 35.84 170.55 35.85 170.67 35.86 170.71 35.86 170.73 35.78 170.8 35.56 170.86 35.32 170.88 35.09 170.84 34.83 170.73 34.59 170.59 34.38 170.4 34.2 170.18 34.05 169.93 33.94 169.64 33.87 169.33 33.85 169 33.84 168.65 33.82 168.28 33.82 167.9 33.84 167.51 33.86 167.13 33.9 166.75 33.93 166.39 33.98 166.03 34.02 165.69 34.09 165.38 34.14 165.1 34.2 164.84 34.27 164.62 34.34 164.46 34.43 164.33 34.5 165.17 31.65 165.43 31.54 165.69 31.45 165.97 31.36 166.26 31.3 166.54 31.24 166.85 31.2 167.16 31.15 167.47 31.13 167.81 31.1 168.15 31.09 168.5 31.08 168.87 31.08 169.25 31.08 169.64 31.08 170.06 31.09 170.47 31.1 170.8 31.13 171.16 31.18 171.52 31.27 171.9 31.37 172.27 31.52 172.63 31.68 172.98 31.88 173.31 32.11 173.61 32.37 173.87 32.65 174.1 32.97 174.28 33.33 174.4 33.71 174.47 34.11 174.47 34.56 174.4 35.03 173.21 41.28 173.21 41.28 173.21 41.28"/>
      <polyline class="f" points="173.21 41.28 172.73 43.91 169.75 43.91 169.75 43.91 169.83 43.43 169.89 42.99 169.94 42.66 169.99 42.48 169.99 42.48 169.82 42.67 169.63 42.86 169.41 43.03 169.16 43.2 168.87 43.37 168.58 43.51 168.27 43.65 167.95 43.77 167.61 43.88 167.26 43.96 166.92 44.03 166.56 44.08 166.22 44.1 165.88 44.11 165.55 44.08 165.23 44.03 165.23 44.03 164.81 43.92 164.43 43.8 164.1 43.65 163.81 43.47 163.54 43.28 163.31 43.07 163.12 42.85 162.95 42.61 162.81 42.36 162.69 42.1 162.6 41.84 162.53 41.58 162.48 41.31 162.44 41.03 162.42 40.77 162.42 40.51 162.42 40.51 162.46 40.05 162.53 39.61 162.65 39.2 162.8 38.8 162.99 38.42 163.2 38.07 163.45 37.74 163.73 37.45 164.03 37.17 164.36 36.93 164.71 36.7 165.06 36.51 165.44 36.35 165.83 36.22 166.23 36.11 166.65 36.04 166.65 36.04 166.67 36.04 166.73 36.03 166.81 36.01 166.94 36 167.09 35.98 167.25 35.97 167.43 35.94 167.63 35.92 167.83 35.9 168.03 35.87 168.25 35.86 168.43 35.84 168.62 35.83 168.8 35.81 168.97 35.8 169.1 35.8 169.1 35.8 169.37 35.8 169.65 35.81 169.91 35.83 170.18 35.83 170.39 35.84 170.55 35.85 170.67 35.86 170.71 35.86 170.71 35.86 170.73 35.78 170.8 35.56 170.86 35.32 170.88 35.09 170.88 35.09 170.84 34.83 170.73 34.59 170.59 34.38 170.4 34.2 170.18 34.05 169.93 33.94 169.64 33.87 169.33 33.85 169.33 33.85 169 33.84 168.65 33.82 168.28 33.82 167.9 33.84 167.51 33.86 167.13 33.9 166.75 33.93 166.39 33.98 166.03 34.02 165.69 34.09 165.38 34.14 165.1 34.2 164.84 34.27 164.62 34.34 164.46 34.43 164.33 34.5 165.17 31.65 165.17 31.65 165.43 31.54 165.69 31.45 165.97 31.36 166.26 31.3 166.54 31.24 166.85 31.2 167.16 31.15 167.47 31.13 167.81 31.1 168.15 31.09 168.5 31.08 168.87 31.08 169.25 31.08 169.64 31.08 170.06 31.09 170.47 31.1 170.47 31.1 170.8 31.13 171.16 31.18 171.52 31.27 171.9 31.37 172.27 31.52 172.63 31.68 172.98 31.88 173.31 32.11 173.61 32.37 173.87 32.65 174.1 32.97 174.28 33.33 174.4 33.71 174.47 34.11 174.47 34.56 174.4 35.03 173.21 41.28"/>
      <polygon class="d" points="170.35 38.19 170.34 38.13 170.29 38.07 170.22 38.04 170.1 38.02 169.97 37.99 169.82 37.98 169.64 37.98 169.46 37.98 169.28 37.99 169.07 38.02 168.88 38.04 168.69 38.06 168.52 38.09 168.35 38.12 168.21 38.16 168.08 38.19 168 38.22 167.9 38.25 167.77 38.3 167.64 38.36 167.49 38.43 167.33 38.51 167.17 38.59 167.01 38.69 166.85 38.81 166.69 38.93 166.55 39.07 166.42 39.21 166.3 39.37 166.22 39.53 166.15 39.72 166.11 39.91 166.1 40.31 166.16 40.63 166.28 40.87 166.43 41.05 166.61 41.16 166.81 41.24 167 41.27 167.19 41.28 167.55 41.27 167.87 41.24 168.17 41.19 168.45 41.12 168.68 41.03 168.91 40.93 169.11 40.82 169.29 40.69 169.44 40.57 169.58 40.43 169.7 40.3 169.8 40.16 169.88 40.02 169.95 39.87 170.01 39.74 170.04 39.61 170.14 39.27 170.22 38.88 170.29 38.5 170.35 38.19 170.35 38.19 170.35 38.19"/>
      <polygon class="e" points="148.3 43.91 145.08 43.91 147.76 28.37 153.36 28.37 153.9 37.59 157.77 28.37 163.62 28.37 160.87 43.91 157.65 43.91 159.69 32.3 159.56 32.3 154.74 43.91 151.1 43.91 151.08 43.43 151 42.13 150.89 40.3 150.77 38.19 150.65 36.07 150.54 34.22 150.46 32.87 150.44 32.3 150.4 32.3 150.33 32.3 150.26 32.3 150.26 32.3 148.3 43.91 148.3 43.91 148.3 43.91"/>
      <polyline class="f" points="148.3 43.91 145.08 43.91 147.76 28.37 153.36 28.37 153.9 37.59 157.77 28.37 163.62 28.37 160.87 43.91 157.65 43.91 159.69 32.3 159.56 32.3 154.74 43.91 151.1 43.91 151.1 43.91 151.08 43.43 151 42.13 150.89 40.3 150.77 38.19 150.65 36.07 150.54 34.22 150.46 32.87 150.44 32.3 150.44 32.3 150.4 32.3 150.33 32.3 150.26 32.3 150.26 32.3 148.3 43.91"/>
      <polygon class="e" points="231.96 41.28 231.48 43.91 228.51 43.91 228.53 43.43 228.54 43 228.54 42.68 228.56 42.54 228.41 42.72 228.23 42.89 228.02 43.06 227.78 43.23 227.53 43.38 227.25 43.52 226.96 43.66 226.66 43.78 226.34 43.88 226.01 43.97 225.68 44.03 225.34 44.08 225 44.1 224.67 44.11 224.35 44.08 224.03 44.03 223.6 43.92 223.22 43.8 222.89 43.65 222.59 43.47 222.33 43.28 222.1 43.07 221.91 42.85 221.75 42.61 221.6 42.36 221.5 42.1 221.4 41.84 221.34 41.58 221.3 41.31 221.26 41.03 221.24 40.77 221.24 40.51 221.26 40.05 221.33 39.61 221.44 39.2 221.59 38.8 221.77 38.42 221.99 38.07 222.24 37.74 222.51 37.45 222.82 37.17 223.14 36.93 223.49 36.7 223.85 36.51 224.22 36.35 224.61 36.22 225 36.11 225.4 36.04 225.43 36.04 225.49 36.03 225.57 36.01 225.69 36 225.84 35.98 226.01 35.97 226.19 35.94 226.38 35.92 226.58 35.9 226.79 35.87 226.99 35.86 227.19 35.84 227.38 35.83 227.55 35.81 227.71 35.8 227.84 35.8 228.13 35.8 228.41 35.81 228.68 35.83 228.94 35.83 229.17 35.84 229.36 35.85 229.47 35.86 229.51 35.86 229.54 35.78 229.57 35.56 229.61 35.32 229.63 35.09 229.58 34.83 229.49 34.59 229.33 34.38 229.16 34.2 228.94 34.05 228.69 33.94 228.44 33.87 228.15 33.85 227.82 33.84 227.46 33.82 227.1 33.82 226.72 33.84 226.33 33.86 225.95 33.9 225.57 33.93 225.2 33.98 224.85 34.02 224.5 34.09 224.2 34.14 223.91 34.2 223.65 34.27 223.44 34.34 223.27 34.43 223.14 34.5 223.97 31.65 224.23 31.54 224.5 31.45 224.78 31.36 225.06 31.3 225.36 31.24 225.65 31.2 225.96 31.15 226.28 31.13 226.61 31.1 226.96 31.09 227.3 31.08 227.66 31.08 228.03 31.08 228.41 31.08 228.81 31.09 229.22 31.1 229.55 31.13 229.9 31.18 230.27 31.27 230.65 31.37 231.02 31.52 231.38 31.68 231.74 31.88 232.07 32.11 232.37 32.37 232.64 32.65 232.87 32.97 233.05 33.33 233.18 33.71 233.26 34.11 233.26 34.56 233.21 35.03 231.96 41.28 231.96 41.28 231.96 41.28"/>
      <polygon class="e" points="231.48 43.99 231.55 43.92 232.03 41.3 231.89 41.27 231.41 43.9 231.48 43.83 231.48 43.99 231.54 43.98 231.55 43.92 231.48 43.99 231.48 43.99 231.48 43.99"/>
      <polygon class="e" points="228.44 43.91 228.51 43.99 231.48 43.99 231.48 43.83 228.51 43.83 228.58 43.91 228.44 43.91 228.42 43.99 228.51 43.99 228.44 43.91 228.44 43.91 228.44 43.91"/>
      <polygon class="e" points="228.62 42.59 228.52 42.49 228.47 42.68 228.46 43 228.46 43.43 228.44 43.91 228.58 43.91 228.6 43.43 228.62 43 228.61 42.68 228.61 42.59 228.51 42.49 228.62 42.59 228.62 42.59 228.62 42.59"/>
      <polygon class="e" points="224.02 44.1 224.02 44.1 224.35 44.15 224.67 44.18 225 44.17 225.34 44.15 225.69 44.1 226.02 44.04 226.35 43.95 226.68 43.85 226.98 43.73 227.29 43.59 227.57 43.45 227.82 43.28 228.07 43.12 228.28 42.95 228.47 42.76 228.62 42.59 228.51 42.49 228.35 42.67 228.19 42.83 227.97 43 227.75 43.16 227.5 43.31 227.22 43.45 226.93 43.59 226.63 43.71 226.33 43.8 226 43.9 225.66 43.96 225.34 44.01 225 44.03 224.67 44.04 224.35 44.01 224.04 43.96 224.04 43.96 224.02 44.1 224.02 44.1 224.02 44.1"/>
      <polygon class="e" points="221.15 40.51 221.15 40.51 221.16 40.77 221.19 41.03 221.22 41.32 221.27 41.59 221.33 41.85 221.43 42.12 221.53 42.4 221.69 42.64 221.85 42.89 222.04 43.12 222.28 43.34 222.55 43.53 222.86 43.72 223.2 43.88 223.59 43.99 224.02 44.1 224.04 43.96 223.62 43.85 223.25 43.73 222.93 43.58 222.62 43.41 222.37 43.23 222.16 43.02 221.97 42.8 221.81 42.57 221.67 42.33 221.57 42.08 221.47 41.83 221.41 41.57 221.37 41.3 221.33 41.03 221.31 40.77 221.32 40.51 221.32 40.51 221.15 40.51 221.15 40.51 221.15 40.51"/>
      <polygon class="e" points="225.4 35.97 225.4 35.97 224.99 36.04 224.59 36.15 224.2 36.27 223.82 36.44 223.45 36.63 223.09 36.87 222.78 37.12 222.47 37.4 222.18 37.7 221.94 38.03 221.7 38.38 221.52 38.77 221.37 39.18 221.26 39.6 221.19 40.05 221.15 40.51 221.32 40.51 221.33 40.05 221.4 39.63 221.51 39.22 221.66 38.82 221.84 38.45 222.05 38.12 222.3 37.79 222.56 37.49 222.87 37.23 223.19 36.98 223.52 36.77 223.89 36.58 224.24 36.42 224.63 36.29 225.01 36.18 225.4 36.11 225.4 36.11 225.4 35.97 225.4 35.97 225.4 35.97"/>
      <polygon class="e" points="227.84 35.72 227.84 35.72 227.71 35.72 227.55 35.74 227.38 35.75 227.19 35.77 226.99 35.79 226.79 35.8 226.58 35.83 226.38 35.85 226.19 35.87 226.01 35.9 225.84 35.91 225.69 35.93 225.57 35.94 225.47 35.95 225.43 35.97 225.4 35.97 225.4 36.11 225.43 36.11 225.5 36.1 225.57 36.09 225.69 36.07 225.84 36.05 226.01 36.04 226.19 36.01 226.38 35.99 226.58 35.97 226.79 35.94 226.99 35.93 227.19 35.91 227.38 35.9 227.55 35.88 227.71 35.88 227.84 35.88 227.84 35.88 227.84 35.72 227.84 35.72 227.84 35.72"/>
      <polygon class="e" points="229.44 35.85 229.51 35.79 229.47 35.79 229.36 35.78 229.17 35.77 228.94 35.74 228.68 35.74 228.41 35.74 228.13 35.72 227.84 35.72 227.84 35.88 228.13 35.88 228.41 35.88 228.68 35.91 228.94 35.91 229.17 35.91 229.36 35.92 229.47 35.93 229.51 35.93 229.58 35.87 229.51 35.93 229.57 35.94 229.58 35.87 229.44 35.85 229.44 35.85 229.44 35.85"/>
      <polygon class="e" points="229.56 35.09 229.55 35.09 229.54 35.32 229.5 35.55 229.47 35.77 229.44 35.85 229.58 35.87 229.61 35.79 229.64 35.58 229.68 35.32 229.71 35.09 229.7 35.09 229.56 35.09 229.56 35.09 229.56 35.09"/>
      <polygon class="e" points="228.15 33.92 228.15 33.93 228.42 33.94 228.67 34.01 228.91 34.12 229.11 34.26 229.28 34.43 229.42 34.63 229.51 34.84 229.56 35.09 229.7 35.09 229.65 34.82 229.56 34.56 229.39 34.33 229.2 34.14 228.98 33.98 228.72 33.87 228.45 33.8 228.15 33.77 228.15 33.78 228.15 33.92 228.15 33.92 228.15 33.92"/>
      <polygon class="e" points="223.07 34.49 223.19 34.56 223.31 34.5 223.46 34.42 223.66 34.34 223.92 34.27 224.21 34.22 224.52 34.16 224.86 34.1 225.2 34.05 225.57 34 225.95 33.97 226.33 33.93 226.72 33.91 227.1 33.91 227.46 33.91 227.82 33.91 228.15 33.92 228.15 33.78 227.82 33.77 227.46 33.74 227.1 33.74 226.72 33.77 226.33 33.79 225.95 33.82 225.57 33.86 225.2 33.91 224.84 33.95 224.49 34.01 224.18 34.07 223.9 34.13 223.64 34.2 223.41 34.27 223.24 34.36 223.09 34.44 223.21 34.51 223.07 34.49 223.07 34.49 223.07 34.49"/>
      <polygon class="e" points="223.95 31.57 223.9 31.63 223.07 34.49 223.21 34.51 224.04 31.66 224 31.72 223.95 31.57 223.91 31.59 223.9 31.63 223.95 31.57 223.95 31.57 223.95 31.57"/>
      <polygon class="e" points="229.22 31.03 229.22 31.03 228.81 31.01 228.41 31 228.03 31 227.66 31 227.3 31 226.96 31.02 226.61 31.03 226.28 31.05 225.96 31.08 225.64 31.13 225.34 31.17 225.05 31.23 224.76 31.29 224.48 31.37 224.21 31.47 223.95 31.57 224 31.72 224.25 31.61 224.53 31.52 224.79 31.43 225.07 31.37 225.37 31.31 225.66 31.27 225.96 31.22 226.28 31.2 226.61 31.17 226.96 31.16 227.3 31.16 227.66 31.16 228.03 31.16 228.41 31.16 228.81 31.17 229.22 31.17 229.22 31.17 229.22 31.03 229.22 31.03 229.22 31.03"/>
      <polygon class="e" points="233.28 35.04 233.28 35.04 233.34 34.56 233.34 34.11 233.25 33.69 233.12 33.3 232.93 32.94 232.7 32.6 232.41 32.31 232.12 32.05 231.77 31.82 231.42 31.61 231.04 31.45 230.67 31.3 230.28 31.2 229.91 31.11 229.55 31.05 229.22 31.03 229.22 31.17 229.55 31.2 229.89 31.25 230.26 31.34 230.63 31.45 230.99 31.59 231.35 31.75 231.7 31.94 232.02 32.17 232.32 32.43 232.58 32.7 232.81 33.01 232.98 33.35 233.11 33.72 233.19 34.11 233.19 34.56 233.13 35.02 233.13 35.02 233.28 35.04 233.28 35.04 233.28 35.04"/>
      <polygon class="e" points="232.03 41.3 232.03 41.3 233.28 35.04 233.13 35.02 231.89 41.27 231.89 41.27 232.03 41.3 232.03 41.3 232.03 41.3"/>
      <polygon class="c" points="229.1 38.19 229.07 38.12 229.03 38.06 228.94 38.03 228.82 37.99 228.69 37.98 228.54 37.97 228.36 37.97 228.19 37.98 228 38 227.81 38.03 227.62 38.05 227.44 38.07 227.26 38.11 227.11 38.13 226.96 38.17 226.84 38.19 226.75 38.2 226.66 38.24 226.54 38.28 226.41 38.32 226.26 38.39 226.11 38.47 225.95 38.55 225.79 38.66 225.64 38.76 225.49 38.89 225.36 39.02 225.23 39.18 225.12 39.34 225.04 39.52 224.97 39.71 224.93 39.91 224.92 40.31 224.98 40.63 225.07 40.87 225.21 41.05 225.39 41.16 225.59 41.24 225.79 41.27 226 41.28 226.35 41.27 226.68 41.24 226.99 41.18 227.26 41.09 227.52 41 227.75 40.89 227.96 40.77 228.15 40.63 228.32 40.5 228.46 40.35 228.59 40.2 228.69 40.05 228.78 39.91 228.84 39.77 228.88 39.63 228.92 39.49 228.97 39.16 229.03 38.82 229.07 38.49 229.1 38.19 229.1 38.19 229.1 38.19"/>
      <polygon class="e" points="253.49 42.29 253.51 42.02 253.6 41.7 253.77 41.41 253.97 41.16 254.22 40.96 254.5 40.82 254.81 40.73 255.14 40.69 255.47 40.73 255.78 40.82 256.07 40.96 256.32 41.16 256.52 41.41 256.68 41.7 256.78 42.02 256.8 42.29 256.45 42.29 256.43 42.08 256.36 41.82 256.25 41.58 256.09 41.38 255.9 41.21 255.68 41.09 255.42 41.01 255.14 40.99 254.87 41.01 254.61 41.09 254.39 41.21 254.2 41.38 254.04 41.58 253.92 41.82 253.85 42.08 253.83 42.29 253.49 42.29 253.49 42.29 253.49 42.29"/>
      <polygon class="e" points="254.55 42.29 254.55 41.58 255.2 41.58 255.34 41.59 255.47 41.61 255.57 41.65 255.65 41.7 255.71 41.77 255.76 41.84 255.78 41.92 255.79 42.01 255.78 42.11 255.76 42.19 255.72 42.27 255.7 42.29 255.2 42.29 255.25 42.28 255.33 42.27 255.4 42.24 255.46 42.22 255.51 42.18 255.53 42.15 255.56 42.09 255.56 42.01 255.55 41.95 255.52 41.9 255.49 41.88 255.45 41.85 255.39 41.84 255.33 41.83 255.27 41.83 255.2 41.83 254.85 41.83 254.85 42.29 254.55 42.29 254.55 42.29 254.55 42.29"/>
      <polygon class="e" points="253.49 42.29 253.47 42.36 253.51 42.7 253.6 43.02 253.77 43.31 253.97 43.54 254.22 43.74 254.5 43.9 254.81 43.99 255.14 44.03 255.47 43.99 255.78 43.9 256.07 43.74 256.32 43.54 256.52 43.31 256.68 43.02 256.78 42.7 256.81 42.36 256.8 42.29 256.45 42.29 256.46 42.36 256.43 42.64 256.36 42.91 256.25 43.13 256.09 43.33 255.9 43.5 255.68 43.63 255.42 43.71 255.14 43.73 254.87 43.71 254.61 43.63 254.39 43.5 254.2 43.33 254.04 43.13 253.92 42.91 253.85 42.64 253.83 42.36 253.83 42.29 253.49 42.29 253.49 42.29 253.49 42.29"/>
      <polygon class="e" points="254.55 42.29 254.55 43.01 254.85 43.01 254.85 42.42 255.14 42.42 255.5 43.01 255.74 43.01 255.38 42.42 255.46 42.42 255.55 42.4 255.62 42.37 255.68 42.33 255.7 42.29 255.2 42.29 255.14 42.3 254.85 42.3 254.85 42.29 254.55 42.29 254.55 42.29 254.55 42.29"/>
      <path class="f" d="M253.47,42.36h0l0-.34,0.09-.32,0.17-.28,0.2-.25,0.25-.2,0.28-.14,0.31-.09,0.33,0h0l0.33,0,0.31,0.09L256.07,41l0.25,0.2,0.2,0.25,0.17,0.28L256.78,42l0,0.34h0l0,0.34-0.09.32-0.17.28-0.2.24-0.25.2-0.28.15-0.31.09-0.33,0h0l-0.33,0-0.31-.09-0.28-.15-0.25-.2-0.2-.24L253.6,43l-0.09-.32,0-.34M254.85,43h-0.3V41.58h0.79l0.13,0,0.09,0,0.08,0,0.06,0.07,0,0.07,0,0.08V42h0v0.11l0,0.08,0,0.07,0,0.06-0.06,0-0.07,0-0.08,0h-0.08L255.74,43H255.5l-0.36-.59h-0.3V43m0.3-.71h0l0.11,0h0.08l0.07,0,0.06,0,0,0,0,0,0-.06V42h0V41.95l0,0,0,0,0,0h-0.6V42.3h0.3m0,1.43h0l0.27,0,0.26-.08,0.22-.13,0.19-.17,0.15-.2,0.12-.22,0.07-.26,0-.28h0l0-.28-0.07-.26-0.12-.24-0.15-.2-0.19-.17-0.22-.12L255.42,41l-0.27,0h0l-0.27,0-0.26.08-0.22.12-0.19.17-0.15.2-0.12.24-0.07.26,0,0.28h0l0,0.28,0.07,0.26L254,43.13l0.15,0.2,0.19,0.17,0.22,0.13,0.26,0.08,0.27,0"/>
      <polygon class="e" points="232.85 43.91 236.19 43.91 236.19 43.91 237.38 37.17 237.43 36.91 237.5 36.65 237.57 36.39 237.67 36.13 237.79 35.87 237.93 35.62 238.08 35.39 238.27 35.16 238.49 34.96 238.72 34.77 239 34.59 239.3 34.45 239.65 34.33 240.03 34.24 240.44 34.17 240.9 34.14 241.07 34.14 241.16 34.14 241.2 34.14 241.2 34.14 241.73 31.1 241.4 31.13 241.08 31.16 240.78 31.22 240.5 31.3 240.24 31.4 239.99 31.52 239.75 31.65 239.53 31.79 239.31 31.95 239.11 32.12 238.92 32.31 238.74 32.5 238.56 32.7 238.38 32.92 238.2 33.14 238.04 33.37 238.39 31.23 235.06 31.23 232.85 43.91 232.85 43.91 232.85 43.91 232.85 43.91"/>
      <polyline class="f" points="232.85 43.91 236.19 43.91 236.19 43.91 237.38 37.17 237.38 37.17 237.43 36.91 237.5 36.65 237.57 36.39 237.67 36.13 237.79 35.87 237.93 35.62 238.08 35.39 238.27 35.16 238.49 34.96 238.72 34.77 239 34.59 239.3 34.45 239.65 34.33 240.03 34.24 240.44 34.17 240.9 34.14 240.9 34.14 241.07 34.14 241.16 34.14 241.2 34.14 241.2 34.14 241.73 31.1 241.73 31.1 241.4 31.13 241.08 31.16 240.78 31.22 240.5 31.3 240.24 31.4 239.99 31.52 239.75 31.65 239.53 31.79 239.31 31.95 239.11 32.12 238.92 32.31 238.74 32.5 238.56 32.7 238.38 32.92 238.2 33.14 238.04 33.37 238.39 31.23 235.06 31.23 232.85 43.91 232.85 43.91"/>
      <polygon class="e" points="201.5 43.91 204.84 43.91 204.9 43.91 206.03 37.17 206.08 36.91 206.14 36.67 206.2 36.42 206.28 36.18 206.38 35.94 206.5 35.72 206.64 35.51 206.81 35.3 206.99 35.13 207.21 34.95 207.47 34.81 207.75 34.68 208.08 34.57 208.45 34.48 208.85 34.42 209.31 34.38 209.35 34.38 209.4 34.39 209.46 34.4 209.52 34.4 209.57 34.42 209.62 34.43 209.66 34.44 209.67 34.44 209.68 34.39 209.72 34.25 209.76 34.04 209.82 33.78 209.91 33.47 209.99 33.14 210.1 32.81 210.2 32.48 210.3 32.25 210.42 32.02 210.53 31.8 210.65 31.6 210.76 31.42 210.84 31.28 210.9 31.2 210.93 31.16 210.91 31.16 210.87 31.15 210.81 31.14 210.72 31.13 210.64 31.13 210.55 31.11 210.46 31.1 210.38 31.1 210.01 31.13 209.68 31.16 209.37 31.22 209.09 31.29 208.82 31.39 208.57 31.5 208.34 31.62 208.13 31.76 207.93 31.92 207.74 32.1 207.56 32.27 207.38 32.48 207.21 32.68 207.04 32.9 206.86 33.14 206.69 33.37 207.11 31.23 203.72 31.23 201.5 43.91 201.5 43.91 201.5 43.91 201.5 43.91"/>
      <polyline class="f" points="201.5 43.91 204.84 43.91 204.9 43.91 206.03 37.17 206.03 37.17 206.08 36.91 206.14 36.67 206.2 36.42 206.28 36.18 206.38 35.94 206.5 35.72 206.64 35.51 206.81 35.3 206.99 35.13 207.21 34.95 207.47 34.81 207.75 34.68 208.08 34.57 208.45 34.48 208.85 34.42 209.31 34.38 209.31 34.38 209.35 34.38 209.4 34.39 209.46 34.4 209.52 34.4 209.57 34.42 209.62 34.43 209.66 34.44 209.67 34.44 209.67 34.44 209.68 34.39 209.72 34.25 209.76 34.04 209.82 33.78 209.91 33.47 209.99 33.14 210.1 32.81 210.2 32.48 210.2 32.48 210.3 32.25 210.42 32.02 210.53 31.8 210.65 31.6 210.76 31.42 210.84 31.28 210.9 31.2 210.93 31.16 210.93 31.16 210.91 31.16 210.87 31.15 210.81 31.14 210.72 31.13 210.64 31.13 210.55 31.11 210.46 31.1 210.38 31.1 210.38 31.1 210.01 31.13 209.68 31.16 209.37 31.22 209.09 31.29 208.82 31.39 208.57 31.5 208.34 31.62 208.13 31.76 207.93 31.92 207.74 32.1 207.56 32.27 207.38 32.48 207.21 32.68 207.04 32.9 206.86 33.14 206.69 33.37 207.11 31.23 203.72 31.23 201.5 43.91 201.5 43.91"/>
      <polygon class="c" points="253.51 56.37 253.51 56.32 253.6 56.01 253.77 55.74 253.97 55.5 254.22 55.31 254.5 55.17 254.81 55.09 255.14 55.05 255.47 55.09 255.78 55.17 256.07 55.31 256.32 55.5 256.52 55.74 256.68 56.01 256.78 56.32 256.78 56.37 256.43 56.37 256.36 56.12 256.25 55.89 256.09 55.69 255.9 55.52 255.68 55.4 255.42 55.31 255.14 55.29 254.87 55.31 254.61 55.4 254.39 55.52 254.2 55.69 254.04 55.89 253.92 56.12 253.85 56.37 253.51 56.37 253.51 56.37 253.51 56.37"/>
      <polygon class="c" points="254.55 56.37 254.55 55.95 255.2 55.95 255.34 55.95 255.47 55.98 255.57 56 255.65 56.05 255.71 56.1 255.76 56.18 255.78 56.26 255.79 56.37 255.56 56.37 255.56 56.31 255.55 56.25 255.52 56.2 255.49 56.18 255.45 56.15 255.39 56.14 255.33 56.13 255.27 56.13 255.2 56.13 254.85 56.13 254.85 56.37 254.55 56.37 254.55 56.37 254.55 56.37"/>
      <polygon class="c" points="253.47 56.63 253.51 56.37 253.85 56.37 253.85 56.38 253.83 56.63 253.47 56.63 253.47 56.63 253.47 56.63"/>
      <polygon class="c" points="254.55 56.63 254.55 56.37 254.85 56.37 254.85 56.6 255.14 56.6 255.25 56.58 255.33 56.57 255.4 56.54 255.46 56.52 255.51 56.48 255.53 56.45 255.56 56.39 255.56 56.37 255.79 56.37 255.79 56.37 255.78 56.45 255.76 56.52 255.72 56.58 255.68 56.63 254.55 56.63 254.55 56.63 254.55 56.63"/>
      <polygon class="c" points="256.46 56.63 256.43 56.38 256.43 56.37 256.78 56.37 256.81 56.63 256.46 56.63 256.46 56.63 256.46 56.63"/>
      <polygon class="c" points="253.47 56.63 253.47 56.66 253.51 57.01 253.6 57.33 253.77 57.61 253.97 57.86 254.22 58.06 254.5 58.2 254.81 58.3 255.14 58.33 255.47 58.3 255.78 58.2 256.07 58.06 256.32 57.86 256.52 57.61 256.68 57.33 256.78 57.01 256.81 56.66 256.81 56.63 256.46 56.63 256.46 56.66 256.43 56.95 256.36 57.21 256.25 57.43 256.09 57.63 255.9 57.8 255.68 57.93 255.42 58.01 255.14 58.03 254.87 58.01 254.61 57.93 254.39 57.8 254.2 57.63 254.04 57.43 253.92 57.21 253.85 56.95 253.83 56.66 253.83 56.63 253.47 56.63 253.47 56.63 253.47 56.63"/>
      <polygon class="c" points="254.55 56.63 254.55 57.31 254.85 57.31 254.85 56.72 255.14 56.72 255.5 57.31 255.74 57.31 255.38 56.72 255.46 56.72 255.55 56.7 255.62 56.67 255.68 56.63 255.68 56.63 254.55 56.63 254.55 56.63 254.55 56.63"/>
    </g>
  </g>
</svg>
