<svg xmlns="http://www.w3.org/2000/svg" viewBox="0 0 136 34.61" width="136" height="35">
  <defs>
    <style>
      .a {
        fill: #231f20;
      }

      .b {
        fill: #ee2e24;
      }

      .c {
        fill: #ffcf01;
      }
    </style>
  </defs>
  <title>yandex</title>
  <g>
    <g>
      <path class="a" d="M72.53,12.91v0.38a23.59,23.59,0,0,1-.48,5.57A10.38,10.38,0,0,1,71,21.71h5v-8.8h-3.4Zm-3.12,8.8a12.39,12.39,0,0,0,1.22-3.1A24.11,24.11,0,0,0,71,13.39V11.54h6.49V21.71h1.39v3.92H77.41V23.08H69.65v2.56H68.16V21.71h1.25Z"/>
      <path class="a" d="M85.53,18.32a2.62,2.62,0,0,0-.61-1.43,1.66,1.66,0,0,0-1.29-.49,1.69,1.69,0,0,0-1.27.46,2.64,2.64,0,0,0-.73,1.47h3.89ZM86.91,22a3.63,3.63,0,0,1-3,1.22,3.5,3.5,0,0,1-2.75-1,4.31,4.31,0,0,1-1.1-3,4.68,4.68,0,0,1,1.1-3.07,3.22,3.22,0,0,1,2.49-1,3.16,3.16,0,0,1,2.28.82,4.83,4.83,0,0,1,1.19,3.48H81.57a3.11,3.11,0,0,0,.76,2,2,2,0,0,0,1.52.58A3,3,0,0,0,86,21.23Z"/>
    </g>
    <polygon class="a" points="90.54 23.08 89.17 23.08 89.17 15.38 90.54 15.38 90.54 18.33 94.22 18.33 94.22 15.38 95.59 15.38 95.59 23.08 94.22 23.08 94.22 19.52 90.54 19.52 90.54 23.08"/>
    <path class="a" d="M100.8,21.89a2.28,2.28,0,0,0,1.32-.33,1.24,1.24,0,0,0,.48-1,1.26,1.26,0,0,0-.45-1,2.44,2.44,0,0,0-1.4-.33H99.53v2.7h1.27Zm-2.64-6.51h1.37V18h1.38a3.46,3.46,0,0,1,2.46.74,2.42,2.42,0,0,1,.71,1.81,2.35,2.35,0,0,1-.69,1.8,3.82,3.82,0,0,1-2.69.73H98.16v-7.7Z"/>
    <polygon class="a" points="107.3 23.08 105.93 23.08 105.93 15.38 110.86 15.38 110.86 16.6 107.3 16.6 107.3 23.08"/>
    <polygon class="a" points="117.63 16.16 117.63 15.38 119 15.38 119 23.08 117.63 23.08 117.63 17.84 113.97 22.29 113.97 23.08 112.6 23.08 112.6 15.38 113.97 15.38 113.97 20.61 117.63 16.16"/>
    <g>
      <path class="b" d="M8,8H5.39C2.81,8,.62,9.94.62,13.75a4.91,4.91,0,0,0,2.95,4.81L0,24.93a0.22,0.22,0,0,0,.18.37H1.87a0.26,0.26,0,0,0,.28-0.16l3.2-6.26H6.5v6.26a0.17,0.17,0,0,0,.16.16H8.09a0.16,0.16,0,0,0,.18-0.18V8.2A0.21,0.21,0,0,0,8,8M6.5,17.4h-1c-1.52,0-3-1.11-3-3.88S3.92,9.45,5.32,9.45H6.5v8Z"/>
      <path class="a" d="M16.68,13.72H15.25a0.18,0.18,0,0,0-.18.16v4.41H12.41V13.88a0.14,0.14,0,0,0-.16-0.16H10.82a0.16,0.16,0,0,0-.18.16V25.11a0.15,0.15,0,0,0,.16.18h1.45a0.16,0.16,0,0,0,.16-0.18V19.75h2.65v5.36a0.17,0.17,0,0,0,.18.18h1.43a0.16,0.16,0,0,0,.16-0.18V13.88a0.16,0.16,0,0,0-.16-0.16"/>
      <path class="a" d="M49.29,24.56l-0.18-.79A0.1,0.1,0,0,0,49,23.68a6.71,6.71,0,0,1-1.64.25c-1.75,0-2.6-1.69-2.6-4.37,0-2.36.71-4.69,1.91-4.69a1.89,1.89,0,0,1,1.34.67,0.24,0.24,0,0,0,.18.09,0.26,0.26,0,0,0,.21-0.16l0.62-1a0.38,0.38,0,0,0,.07-0.21A0.32,0.32,0,0,0,48.85,14a4.41,4.41,0,0,0-2.14-.58c-2.17,0-3.85,2.59-3.85,6.63,0,3.49,1.61,5.5,3.92,5.5a4.74,4.74,0,0,0,2.42-.76,0.23,0.23,0,0,0,.09-0.25"/>
      <path class="a" d="M39.28,18.94L42,13.88A0.1,0.1,0,0,0,42,13.72H40.61a0.62,0.62,0,0,0-.67.44l-2.07,4.32a1.08,1.08,0,0,1-.35.49V13.88a0.14,0.14,0,0,0-.14-0.16h-1.5a0.15,0.15,0,0,0-.14.16V25.13a0.15,0.15,0,0,0,.14.16h1.5a0.14,0.14,0,0,0,.14-0.16v-5.8a0.5,0.5,0,0,1,.16.21l2.63,5.41a0.62,0.62,0,0,0,.65.35h1.47a0.1,0.1,0,0,0,.07-0.16Z"/>
      <path class="a" d="M26.08,23.84H25.8a0.36,0.36,0,0,1-.44-0.42V13.88a0.13,0.13,0,0,0-.14-0.16H20.62a0.16,0.16,0,0,0-.18.16v0.83c0,2.8-.16,6.4-1.64,9.13H18.29a0.16,0.16,0,0,0-.18.19V27.4a0.16,0.16,0,0,0,.16.16h1.11a0.33,0.33,0,0,0,.35-0.35V25.3h4.93v2.1a0.16,0.16,0,0,0,.16.16H26a0.3,0.3,0,0,0,.28-0.35V24a0.17,0.17,0,0,0-.18-0.19m-2.49,0H20.25a15.24,15.24,0,0,0,1.8-7c0-.6.07-1.23,0.07-1.62h1.47v8.67Z"/>
      <path class="a" d="M30.78,13.44c-2.49,0-3.59,3.14-3.59,6.56s1.57,5.57,3.87,5.57a5.13,5.13,0,0,0,2.63-.76,0.16,0.16,0,0,0,.09-0.21l-0.18-.79a0.16,0.16,0,0,0-.18-0.14,6.86,6.86,0,0,1-1.7.25c-1.77,0-2.6-1.55-2.6-3.58V19.8s0.9,0.11,1.43.11h3.36v-1c0-3.58-1.27-5.5-3.11-5.5m-0.25,5c-0.53,0-1.36.09-1.36,0.09a6.53,6.53,0,0,1,0-.72c0.21-2,.69-3,1.5-3s1.2,1,1.31,2.8c0,0.37,0,.79,0,0.79H30.52Z"/>
    </g>
    <path class="c" d="M60.82,2.92H124l8.33,14.38L124,31.7H60.82V2.92ZM57.57,0V34.61H126l10-17.31L126,0H57.57Z"/>
  </g>
</svg>
