<?xml version="1.0" encoding="utf-8"?>
<!-- Generated by IcoMoon.io -->
<!DOCTYPE svg PUBLIC "-//W3C//DTD SVG 1.1//EN" "http://www.w3.org/Graphics/SVG/1.1/DTD/svg11.dtd">
<svg version="1.1" xmlns="http://www.w3.org/2000/svg" xmlns:xlink="http://www.w3.org/1999/xlink" width="64" height="64" viewBox="0 0 64 64">
<path d="M32.821 46.536v-5.607q0-1.786-1.036-1.786-0.607 0-1.179 0.571v8q0.571 0.571 1.179 0.571 1.036 0 1.036-1.75zM39.393 42.179h2.357v-1.214q0-1.821-1.179-1.821t-1.179 1.821v1.214zM19 32.679v2.5h-2.857v15.107h-2.643v-15.107h-2.786v-2.5h8.286zM26.179 37.179v13.107h-2.393v-1.429q-1.393 1.607-2.714 1.607-1.179 0-1.5-1-0.214-0.607-0.214-1.929v-10.357h2.357v9.643q0 0.857 0.036 0.929 0.036 0.536 0.536 0.536 0.714 0 1.5-1.107v-10h2.393zM35.179 41.143v5.214q0 1.857-0.25 2.607-0.429 1.5-1.893 1.5-1.25 0-2.429-1.464v1.286h-2.393v-17.607h2.393v5.75q1.143-1.429 2.429-1.429 1.464 0 1.893 1.5 0.25 0.75 0.25 2.643zM44.143 45.75v0.321q0 1.036-0.071 1.536-0.107 0.786-0.536 1.429-0.964 1.429-2.857 1.429-1.857 0-2.893-1.357-0.75-0.964-0.75-3.071v-4.607q0-2.107 0.714-3.071 1.036-1.357 2.857-1.357t2.786 1.357q0.75 1.036 0.75 3.071v2.714h-4.75v2.321q0 1.821 1.214 1.821 0.857 0 1.071-0.929 0-0.036 0.018-0.25t0.018-0.589v-0.768h2.429zM28.036 16.321v5.571q0 1.821-1.143 1.821t-1.143-1.821v-5.571q0-1.857 1.143-1.857t1.143 1.857zM47.071 41.786q0-6.321-0.679-9.286-0.357-1.571-1.536-2.625t-2.714-1.232q-4.857-0.536-14.714-0.536-9.821 0-14.679 0.536-1.571 0.179-2.732 1.232t-1.518 2.625q-0.714 3.107-0.714 9.286 0 6.286 0.714 9.286 0.357 1.536 1.518 2.607t2.696 1.25q4.893 0.536 14.714 0.536t14.714-0.536q1.536-0.179 2.696-1.25t1.518-2.607q0.714-3 0.714-9.286zM20.107 18.536l3.214-10.571h-2.679l-1.821 6.964-1.893-6.964h-2.786q0.25 0.821 0.821 2.464l0.857 2.464q1.25 3.679 1.643 5.643v7.179h2.643v-7.179zM30.429 21.429v-4.643q0-2.071-0.75-3.107-1.036-1.357-2.786-1.357-1.821 0-2.786 1.357-0.75 1.036-0.75 3.107v4.643q0 2.071 0.75 3.107 0.964 1.357 2.786 1.357 1.75 0 2.786-1.357 0.75-0.964 0.75-3.107zM36.893 25.714h2.393v-13.214h-2.393v10.107q-0.786 1.107-1.5 1.107-0.536 0-0.571-0.571-0.036-0.071-0.036-0.929v-9.714h-2.393v10.464q0 1.321 0.214 1.964 0.393 0.964 1.536 0.964 1.286 0 2.75-1.607v1.429zM54.857 14.857v34.286q0 4.25-3.018 7.268t-7.268 3.018h-34.286q-4.25 0-7.268-3.018t-3.018-7.268v-34.286q0-4.25 3.018-7.268t7.268-3.018h34.286q4.25 0 7.268 3.018t3.018 7.268z"></path>
</svg>
